<svg xmlns="http://www.w3.org/2000/svg" width="506.534" height="519" viewBox="0 0 506.534 519">
  <g id="Group_1156" data-name="Group 1156" transform="translate(-4267.4 -31)">
    <path id="Path_2211" data-name="Path 2211" d="M4435.516,93.194l95.436,54.688h0l53.615-31.1L4435.516,31,4287,116.785l53.615,31.1Z" transform="translate(85.487 0)" fill="#fff"/>
    <path id="Path_2212" data-name="Path 2212" d="M4330.516,94.961,4276.9,64.4V237.042l149.053,86.321V261.17l-95.437-55.224Z" transform="translate(41.434 145.676)" fill="#fff"/>
    <path id="Path_2213" data-name="Path 2213" d="M4420.236,205.945,4324.8,261.17v62.194l149.053-86.321V64.4l-53.615,30.561Z" transform="translate(250.355 145.676)" fill="#fff"/>
    <path id="Path_2214" data-name="Path 2214" d="M4770.314,74.275h0c-1.072-2.145-1.609-4.289-3.217-5.9a19.28,19.28,0,0,0-3.754-5.362h0a40.187,40.187,0,0,0-16.621-13.4,49.208,49.208,0,0,0-47.182,1.072,52.442,52.442,0,0,0-18.766,18.766,49.914,49.914,0,0,0-6.434,21.446l-31.633,18.229h0L4574.082,148.8l-26.809,15.549h0L4520.465,179.9l-26.807-15.549h0L4466.85,148.8l-67.557-40.212h0L4367.125,90.36a49.944,49.944,0,0,0-6.436-21.446,48.512,48.512,0,0,0-18.766-18.765,49.208,49.208,0,0,0-47.182-1.072,46.364,46.364,0,0,0-16.621,13.94c-1.07,1.608-2.68,3.753-3.752,5.362-1.072,2.145-2.146,3.753-3.217,5.9h0a57.518,57.518,0,0,0-3.754,20.91h0c.537,16.085,9.652,31.633,24.664,40.748a43.3,43.3,0,0,0,25.2,6.434,55.5,55.5,0,0,0,22.518-5.362h0l31.633,18.229,68.629,39.676,26.809,15.549,26.809,15.549v31.1h0V403.476a49.342,49.342,0,0,0-16.086,17.157,48.356,48.356,0,0,0-6.434,24.663c0,17.693,9.115,32.706,22.52,41.82a51.721,51.721,0,0,0,20.373,7.506,38.87,38.87,0,0,0,12.867,0,51.718,51.718,0,0,0,20.375-7.506c13.941-8.579,22.518-24.127,22.518-41.82,0-9.115-2.145-17.693-6.434-24.663a49.39,49.39,0,0,0-16.084-17.157v-178l26.809-15.549,26.807-15.549,68.627-39.676,31.633-18.229h0a46.549,46.549,0,0,0,22.52,5.362,53.37,53.37,0,0,0,25.2-6.434,48.788,48.788,0,0,0,24.66-40.748h0A34.248,34.248,0,0,0,4770.314,74.275Z" transform="translate(0.001 54.841)" fill="#fff"/>
  </g>
</svg>
