<?xml version="1.0" encoding="UTF-8"?>
<svg width="713px" height="97px" viewBox="0 0 713 97" version="1.1" xmlns="http://www.w3.org/2000/svg" xmlns:xlink="http://www.w3.org/1999/xlink">
    <!-- Generator: Sketch 52.2 (67145) - http://www.bohemiancoding.com/sketch -->
    <title>InvisiLeash</title>
    <desc>Created with Sketch.</desc>
    <g id="Page-1" stroke="none" stroke-width="1" fill="none" fill-rule="evenodd">
        <path d="M7.027,73.04 L7.027,28.022 L1.415,28.022 C1.25233252,26.151324 1.13033374,24.3213423 1.049,22.532 C0.96766626,20.7426577 0.927,18.912676 0.927,17.042 C0.927,15.171324 0.96766626,13.3413423 1.049,11.552 C1.13033374,9.76265772 1.25233252,7.93267602 1.415,6.062 L42.285,6.062 C42.4476675,7.93267602 42.5696663,9.76265772 42.651,11.552 C42.7323337,13.3413423 42.773,15.171324 42.773,17.042 C42.773,18.912676 42.7323337,20.7426577 42.651,22.532 C42.5696663,24.3213423 42.4476675,26.151324 42.285,28.022 L36.673,28.022 L36.673,73.04 L42.285,73.04 C42.4476675,74.910676 42.5696663,76.7406577 42.651,78.53 C42.7323337,80.3193423 42.773,82.149324 42.773,84.02 C42.773,85.890676 42.7323337,87.7206577 42.651,89.51 C42.5696663,91.2993423 42.4476675,93.129324 42.285,95 L1.415,95 C1.25233252,93.129324 1.13033374,91.2993423 1.049,89.51 C0.96766626,87.7206577 0.927,85.890676 0.927,84.02 C0.927,82.149324 0.96766626,80.3193423 1.049,78.53 C1.13033374,76.7406577 1.25233252,74.910676 1.415,73.04 L7.027,73.04 Z M51.875,74.504 L51.875,49.25 L46.263,49.25 C46.1003325,47.5419915 45.9783337,45.8340085 45.897,44.126 C45.8156663,42.4179915 45.775,40.7100085 45.775,39.002 C45.775,37.2939915 45.8156663,35.5860085 45.897,33.878 C45.9783337,32.1699915 46.1003325,30.4620085 46.263,28.754 L75.787,28.754 L76.153,33.634 C76.8850037,32.9833301 77.7999945,32.2716705 78.898,31.499 C79.9960055,30.7263295 81.2973258,30.0146699 82.802,29.364 C84.3066742,28.7133301 86.0146571,28.1643356 87.926,27.717 C89.8373429,27.2696644 91.9723215,27.046 94.331,27.046 C97.4216821,27.046 100.288653,27.4933289 102.932,28.388 C105.575347,29.2826711 107.87299,30.6246577 109.825,32.414 C111.77701,34.2033423 113.301995,36.3789872 114.4,38.941 C115.498005,41.5030128 116.047,44.4919829 116.047,47.908 L116.047,74.504 L121.659,74.504 C121.821667,76.2120085 121.943666,77.9199915 122.025,79.628 C122.106334,81.3360085 122.147,83.0439915 122.147,84.752 C122.147,86.4600085 122.106334,88.1679915 122.025,89.876 C121.943666,91.5840085 121.821667,93.2919915 121.659,95 L88.353,95 L88.353,54.618 C88.353,52.9913252 88.0886693,51.6900049 87.56,50.714 C87.0313307,49.7379951 86.1163398,49.25 84.815,49.25 C84.3269976,49.25 83.778003,49.3313325 83.168,49.494 C82.5579969,49.6566675 81.9886693,50.042997 81.46,50.653 C80.9313307,51.263003 80.4840018,52.1373276 80.118,53.276 C79.7519982,54.4146724 79.569,55.9599902 79.569,57.912 L79.569,95 L46.263,95 C46.1003325,93.2919915 45.9783337,91.5840085 45.897,89.876 C45.8156663,88.1679915 45.775,86.4600085 45.775,84.752 C45.775,83.0439915 45.8156663,81.3360085 45.897,79.628 C45.9783337,77.9199915 46.1003325,76.2120085 46.263,74.504 L51.875,74.504 Z M124.417,49.25 L118.805,49.25 C118.642333,47.5419915 118.520334,45.8340085 118.439,44.126 C118.357666,42.4179915 118.317,40.7100085 118.317,39.002 C118.317,37.2939915 118.357666,35.5860085 118.439,33.878 C118.520334,32.1699915 118.642333,30.4620085 118.805,28.754 L155.527,28.754 C155.689667,30.3806748 155.811666,32.0479915 155.893,33.756 C155.974334,35.4640085 156.015,37.1313252 156.015,38.758 C156.015,40.3846748 155.974334,42.0316583 155.893,43.699 C155.811666,45.3663417 155.689667,47.0133252 155.527,48.64 L152.721,48.64 L158.699,67.428 L164.677,48.64 L161.871,48.64 C161.708333,47.0133252 161.586334,45.3663417 161.505,43.699 C161.423666,42.0316583 161.383,40.3846748 161.383,38.758 C161.383,37.1313252 161.423666,35.4640085 161.505,33.756 C161.586334,32.0479915 161.708333,30.3806748 161.871,28.754 L196.763,28.754 C196.925667,30.4620085 197.047666,32.1699915 197.129,33.878 C197.210334,35.5860085 197.251,37.2939915 197.251,39.002 C197.251,40.7100085 197.210334,42.4179915 197.129,44.126 C197.047666,45.8340085 196.925667,47.5419915 196.763,49.25 L191.151,49.25 L172.363,95 L143.327,95 L124.417,49.25 Z M202.693,12.162 C202.693,8.5019817 203.933321,5.69600976 206.414,3.744 C208.894679,1.79199024 212.940972,0.816 218.553,0.816 C224.165028,0.816 228.231654,1.79199024 230.753,3.744 C233.274346,5.69600976 234.535,8.5019817 234.535,12.162 C234.535,15.8220183 233.274346,18.6076571 230.753,20.519 C228.231654,22.4303429 224.165028,23.386 218.553,23.386 C207.979614,23.386 202.693,19.6447041 202.693,12.162 Z M206.231,74.504 L206.231,49.25 L200.619,49.25 C200.456333,47.5419915 200.334334,45.8340085 200.253,44.126 C200.171666,42.4179915 200.131,40.7100085 200.131,39.002 C200.131,37.2939915 200.171666,35.5860085 200.253,33.878 C200.334334,32.1699915 200.456333,30.4620085 200.619,28.754 L233.925,28.754 L233.925,74.504 L239.537,74.504 C239.699667,76.2120085 239.821666,77.9199915 239.903,79.628 C239.984334,81.3360085 240.025,83.0439915 240.025,84.752 C240.025,86.4600085 239.984334,88.1679915 239.903,89.876 C239.821666,91.5840085 239.699667,93.2919915 239.537,95 L200.619,95 C200.456333,93.2919915 200.334334,91.5840085 200.253,89.876 C200.171666,88.1679915 200.131,86.4600085 200.131,84.752 C200.131,83.0439915 200.171666,81.3360085 200.253,79.628 C200.334334,77.9199915 200.456333,76.2120085 200.619,74.504 L206.231,74.504 Z M242.905,72.674 C244.531675,72.5113325 246.178658,72.3893337 247.846,72.308 C249.513342,72.2266663 251.200991,72.186 252.909,72.186 C254.617009,72.186 256.304658,72.2266663 257.972,72.308 C259.639342,72.3893337 261.286325,72.5113325 262.913,72.674 L262.913,74.016 C262.913,75.8053423 263.787325,77.2489945 265.536,78.347 C267.284675,79.4450055 269.704318,79.994 272.795,79.994 C275.479013,79.994 277.268329,79.6686699 278.163,79.018 C279.057671,78.3673301 279.505,77.5946711 279.505,76.7 C279.505,74.9106577 278.163013,73.6906699 275.479,73.04 L263.035,70.478 C260.350987,69.9086638 257.809345,69.1360049 255.41,68.16 C253.010655,67.1839951 250.896009,65.8826748 249.066,64.256 C247.235991,62.6293252 245.792339,60.5960122 244.735,58.156 C243.677661,55.7159878 243.149,52.7066846 243.149,49.128 C243.149,45.1426467 243.941992,41.7673472 245.528,39.002 C247.114008,36.2366528 249.126988,34.0000085 251.567,32.292 C254.007012,30.5839915 256.711318,29.3436705 259.68,28.571 C262.648682,27.7983295 265.474987,27.412 268.159,27.412 C272.06302,27.412 275.275654,27.7779963 277.797,28.51 C280.318346,29.2420037 282.310993,30.0553289 283.775,30.95 L283.897,28.754 C285.523675,28.5913325 287.150325,28.4693337 288.777,28.388 C290.403675,28.3066663 292.030325,28.266 293.657,28.266 C295.283675,28.266 296.910325,28.3066663 298.537,28.388 C300.163675,28.4693337 301.790325,28.5913325 303.417,28.754 L303.417,49.616 C301.708991,49.7786675 300.001009,49.9006663 298.293,49.982 C296.584991,50.0633337 294.836342,50.104 293.047,50.104 C291.257658,50.104 289.488675,50.0633337 287.74,49.982 C285.991325,49.9006663 284.303675,49.7786675 282.677,49.616 L282.677,48.152 C282.677,47.0946614 282.087339,46.0170055 280.908,44.919 C279.728661,43.8209945 277.715681,43.272 274.869,43.272 C272.672989,43.272 271.107338,43.5973301 270.172,44.248 C269.236662,44.8986699 268.769,45.7526614 268.769,46.81 C268.769,47.6233374 269.236662,48.3146638 270.172,48.884 C271.107338,49.4533362 272.266326,49.900665 273.649,50.226 L284.873,52.544 C287.882348,53.1946699 290.728987,54.0283282 293.413,55.045 C296.097013,56.0616717 298.41499,57.4239915 300.367,59.132 C302.31901,60.8400085 303.864328,62.9546541 305.003,65.476 C306.141672,67.9973459 306.711,71.128648 306.711,74.87 C306.711,78.936687 305.958674,82.3323197 304.454,85.057 C302.949326,87.7816803 300.956679,89.9776583 298.476,91.645 C295.995321,93.3123417 293.189349,94.5119963 290.058,95.244 C286.926651,95.9760037 283.775016,96.342 280.603,96.342 C276.454979,96.342 273.039013,95.9963368 270.355,95.305 C267.670987,94.6136632 265.434342,93.7800049 263.645,92.804 L263.523,95 C261.814991,95.1626675 260.086675,95.2846663 258.338,95.366 C256.589325,95.4473337 254.861009,95.488 253.153,95.488 C251.363658,95.488 249.615009,95.4473337 247.907,95.366 C246.198991,95.2846663 244.531675,95.1626675 242.905,95 L242.905,72.674 Z M312.153,12.162 C312.153,8.5019817 313.393321,5.69600976 315.874,3.744 C318.354679,1.79199024 322.400972,0.816 328.013,0.816 C333.625028,0.816 337.691654,1.79199024 340.213,3.744 C342.734346,5.69600976 343.995,8.5019817 343.995,12.162 C343.995,15.8220183 342.734346,18.6076571 340.213,20.519 C337.691654,22.4303429 333.625028,23.386 328.013,23.386 C317.439614,23.386 312.153,19.6447041 312.153,12.162 Z M315.691,74.504 L315.691,49.25 L310.079,49.25 C309.916333,47.5419915 309.794334,45.8340085 309.713,44.126 C309.631666,42.4179915 309.591,40.7100085 309.591,39.002 C309.591,37.2939915 309.631666,35.5860085 309.713,33.878 C309.794334,32.1699915 309.916333,30.4620085 310.079,28.754 L343.385,28.754 L343.385,74.504 L348.997,74.504 C349.159667,76.2120085 349.281666,77.9199915 349.363,79.628 C349.444334,81.3360085 349.485,83.0439915 349.485,84.752 C349.485,86.4600085 349.444334,88.1679915 349.363,89.876 C349.281666,91.5840085 349.159667,93.2919915 348.997,95 L310.079,95 C309.916333,93.2919915 309.794334,91.5840085 309.713,89.876 C309.631666,88.1679915 309.591,86.4600085 309.591,84.752 C309.591,83.0439915 309.631666,81.3360085 309.713,79.628 C309.794334,77.9199915 309.916333,76.2120085 310.079,74.504 L315.691,74.504 Z M358.587,73.04 L358.587,28.022 L352.975,28.022 C352.812333,26.151324 352.690334,24.3213423 352.609,22.532 C352.527666,20.7426577 352.487,18.912676 352.487,17.042 C352.487,15.171324 352.527666,13.3413423 352.609,11.552 C352.690334,9.76265772 352.812333,7.93267602 352.975,6.062 L393.479,6.062 C393.641667,7.93267602 393.763666,9.76265772 393.845,11.552 C393.926334,13.3413423 393.967,15.171324 393.967,17.042 C393.967,18.912676 393.926334,20.7426577 393.845,22.532 C393.763666,24.3213423 393.641667,26.151324 393.479,28.022 L386.525,28.022 L386.525,72.674 L401.409,72.674 L401.409,58.522 C403.442343,58.3593325 405.475656,58.2373337 407.509,58.156 C409.542344,58.0746663 411.616323,58.034 413.731,58.034 C415.845677,58.034 417.899323,58.0746663 419.892,58.156 C421.884677,58.2373337 423.938323,58.3593325 426.053,58.522 L426.053,95 L352.975,95 C352.812333,93.129324 352.690334,91.2993423 352.609,89.51 C352.527666,87.7206577 352.487,85.890676 352.487,84.02 C352.487,82.149324 352.527666,80.3193423 352.609,78.53 C352.690334,76.7406577 352.812333,74.910676 352.975,73.04 L358.587,73.04 Z M491.519,93.414 C487.126978,94.5526724 482.91802,95.3863307 478.892,95.915 C474.86598,96.4436693 470.413024,96.708 465.533,96.708 C459.026301,96.708 453.455023,95.772676 448.819,93.902 C444.182977,92.031324 440.360348,89.5100159 437.351,86.338 C434.341652,83.1659841 432.145674,79.4653545 430.763,75.236 C429.380326,71.0066455 428.689,66.4926907 428.689,61.694 C428.689,57.2206443 429.33966,52.9100207 430.641,48.762 C431.94234,44.6139793 433.934987,40.9336827 436.619,37.721 C439.303013,34.5083173 442.759646,31.9260098 446.989,29.974 C451.218354,28.0219902 456.260971,27.046 462.117,27.046 C468.298364,27.046 473.462979,28.0219902 477.611,29.974 C481.759021,31.9260098 485.052988,34.4473179 487.493,37.538 C489.933012,40.6286821 491.661328,44.0649811 492.678,47.847 C493.694672,51.6290189 494.203,55.390648 494.203,59.132 L494.203,68.526 L456.627,68.526 C457.359004,70.9660122 458.883988,72.8976595 461.202,74.321 C463.520012,75.7443404 466.915644,76.456 471.389,76.456 C475.537021,76.456 479.420649,76.151003 483.04,75.541 C486.659351,74.930997 489.485657,74.3820024 491.519,73.894 L491.519,93.414 Z M469.071,54.13 C469.071,47.3792996 466.915688,44.004 462.605,44.004 C458.294312,44.004 456.017001,47.3792996 455.773,54.13 L469.071,54.13 Z M533.439,66.696 L530.511,67.062 C527.420318,67.4686687 525.326005,68.302327 524.228,69.563 C523.129995,70.823673 522.581,72.2673252 522.581,73.894 C522.581,75.2766736 522.987663,76.4153289 523.801,77.31 C524.614337,78.2046711 525.834325,78.652 527.461,78.652 C531.446353,78.652 533.439,76.7000195 533.439,72.796 L533.439,66.696 Z M535.025,90.242 C534.292996,90.8926699 533.418672,91.5839963 532.402,92.316 C531.385328,93.0480037 530.185674,93.7393301 528.803,94.39 C527.420326,95.0406699 525.814009,95.5693313 523.984,95.976 C522.153991,96.3826687 520.100345,96.586 517.823,96.586 C514.894985,96.586 512.150013,96.1996705 509.588,95.427 C507.025987,94.6543295 504.76901,93.4140085 502.817,91.706 C500.86499,89.9979915 499.319672,87.8223466 498.181,85.179 C497.042328,82.5356534 496.473,79.343352 496.473,75.602 C496.473,71.2913118 497.326991,67.733014 499.035,64.927 C500.743009,62.120986 503.081318,59.8640085 506.05,58.156 C509.018682,56.4479915 512.576979,55.1670043 516.725,54.313 C520.873021,53.4589957 525.386976,52.8286687 530.267,52.422 L533.073,52.178 L533.073,51.324 C533.073,49.453324 532.544339,48.0706711 531.487,47.176 C530.429661,46.2813289 528.59968,45.834 525.997,45.834 C522.580983,45.834 519.063351,46.3423283 515.444,47.359 C511.824649,48.3756718 507.331027,49.981989 501.963,52.178 L501.963,33.39 C505.704352,31.7633252 509.892977,30.2993398 514.529,28.998 C519.165023,27.6966602 524.654968,27.046 530.999,27.046 C533.520346,27.046 536.46865,27.2696644 539.844,27.717 C543.21935,28.1643356 546.411652,29.2013252 549.421,30.828 C552.430348,32.4546748 554.97199,34.8539841 557.046,38.026 C559.12001,41.1980159 560.157,45.5086394 560.157,50.958 L560.157,74.504 L565.769,74.504 C565.931667,76.2120085 566.053666,77.9199915 566.135,79.628 C566.216334,81.3360085 566.257,83.0439915 566.257,84.752 C566.257,86.4600085 566.216334,88.1679915 566.135,89.876 C566.053666,91.5840085 565.931667,93.2919915 565.769,95 L535.513,95 L535.025,90.242 Z M569.137,72.674 C570.763675,72.5113325 572.410658,72.3893337 574.078,72.308 C575.745342,72.2266663 577.432991,72.186 579.141,72.186 C580.849009,72.186 582.536658,72.2266663 584.204,72.308 C585.871342,72.3893337 587.518325,72.5113325 589.145,72.674 L589.145,74.016 C589.145,75.8053423 590.019325,77.2489945 591.768,78.347 C593.516675,79.4450055 595.936318,79.994 599.027,79.994 C601.711013,79.994 603.500329,79.6686699 604.395,79.018 C605.289671,78.3673301 605.737,77.5946711 605.737,76.7 C605.737,74.9106577 604.395013,73.6906699 601.711,73.04 L589.267,70.478 C586.582987,69.9086638 584.041345,69.1360049 581.642,68.16 C579.242655,67.1839951 577.128009,65.8826748 575.298,64.256 C573.467991,62.6293252 572.024339,60.5960122 570.967,58.156 C569.909661,55.7159878 569.381,52.7066846 569.381,49.128 C569.381,45.1426467 570.173992,41.7673472 571.76,39.002 C573.346008,36.2366528 575.358988,34.0000085 577.799,32.292 C580.239012,30.5839915 582.943318,29.3436705 585.912,28.571 C588.880682,27.7983295 591.706987,27.412 594.391,27.412 C598.29502,27.412 601.507654,27.7779963 604.029,28.51 C606.550346,29.2420037 608.542993,30.0553289 610.007,30.95 L610.129,28.754 C611.755675,28.5913325 613.382325,28.4693337 615.009,28.388 C616.635675,28.3066663 618.262325,28.266 619.889,28.266 C621.515675,28.266 623.142325,28.3066663 624.769,28.388 C626.395675,28.4693337 628.022325,28.5913325 629.649,28.754 L629.649,49.616 C627.940991,49.7786675 626.233009,49.9006663 624.525,49.982 C622.816991,50.0633337 621.068342,50.104 619.279,50.104 C617.489658,50.104 615.720675,50.0633337 613.972,49.982 C612.223325,49.9006663 610.535675,49.7786675 608.909,49.616 L608.909,48.152 C608.909,47.0946614 608.319339,46.0170055 607.14,44.919 C605.960661,43.8209945 603.947681,43.272 601.101,43.272 C598.904989,43.272 597.339338,43.5973301 596.404,44.248 C595.468662,44.8986699 595.001,45.7526614 595.001,46.81 C595.001,47.6233374 595.468662,48.3146638 596.404,48.884 C597.339338,49.4533362 598.498326,49.900665 599.881,50.226 L611.105,52.544 C614.114348,53.1946699 616.960987,54.0283282 619.645,55.045 C622.329013,56.0616717 624.64699,57.4239915 626.599,59.132 C628.55101,60.8400085 630.096328,62.9546541 631.235,65.476 C632.373672,67.9973459 632.943,71.128648 632.943,74.87 C632.943,78.936687 632.190674,82.3323197 630.686,85.057 C629.181326,87.7816803 627.188679,89.9776583 624.708,91.645 C622.227321,93.3123417 619.421349,94.5119963 616.29,95.244 C613.158651,95.9760037 610.007016,96.342 606.835,96.342 C602.686979,96.342 599.271013,95.9963368 596.587,95.305 C593.902987,94.6136632 591.666342,93.7800049 589.877,92.804 L589.755,95 C588.046991,95.1626675 586.318675,95.2846663 584.57,95.366 C582.821325,95.4473337 581.093009,95.488 579.385,95.488 C577.595658,95.488 575.847009,95.4473337 574.139,95.366 C572.430991,95.2846663 570.763675,95.1626675 569.137,95 L569.137,72.674 Z M641.923,74.504 L641.923,23.02 L636.311,23.02 C636.148333,21.3119915 636.026334,19.6040085 635.945,17.896 C635.863666,16.1879915 635.823,14.4800085 635.823,12.772 C635.823,11.0639915 635.863666,9.35600854 635.945,7.648 C636.026334,5.93999146 636.148333,4.23200854 636.311,2.524 L669.617,2.524 L669.617,30.95 C671.243675,29.9739951 673.236322,29.0793374 675.595,28.266 C677.953678,27.4526626 680.75965,27.046 684.013,27.046 C687.185016,27.046 690.112987,27.4933289 692.797,28.388 C695.481013,29.2826711 697.819323,30.6246577 699.812,32.414 C701.804677,34.2033423 703.349995,36.3789872 704.448,38.941 C705.546005,41.5030128 706.095,44.4919829 706.095,47.908 L706.095,74.504 L711.707,74.504 C711.869667,76.2120085 711.991666,77.9199915 712.073,79.628 C712.154334,81.3360085 712.195,83.0439915 712.195,84.752 C712.195,86.4600085 712.154334,88.1679915 712.073,89.876 C711.991666,91.5840085 711.869667,93.2919915 711.707,95 L678.401,95 L678.401,54.618 C678.401,52.9913252 678.136669,51.6900049 677.608,50.714 C677.079331,49.7379951 676.16434,49.25 674.863,49.25 C674.374998,49.25 673.826003,49.3313325 673.216,49.494 C672.605997,49.6566675 672.036669,50.042997 671.508,50.653 C670.979331,51.263003 670.532002,52.1373276 670.166,53.276 C669.799998,54.4146724 669.617,55.9599902 669.617,57.912 L669.617,95 L636.311,95 C636.148333,93.2919915 636.026334,91.5840085 635.945,89.876 C635.863666,88.1679915 635.823,86.4600085 635.823,84.752 C635.823,83.0439915 635.863666,81.3360085 635.945,79.628 C636.026334,77.9199915 636.148333,76.2120085 636.311,74.504 L641.923,74.504 Z" id="InvisiLeash" fill="#051120"></path>
    </g>
</svg>