<?xml version="1.0" encoding="UTF-8"?>
<svg width="817px" height="161px" viewBox="0 0 817 161" version="1.1" xmlns="http://www.w3.org/2000/svg" xmlns:xlink="http://www.w3.org/1999/xlink">
    <!-- Generator: Sketch 54.1 (76490) - https://sketchapp.com -->
    <title>mobilitystats</title>
    <desc>Created with Sketch.</desc>
    <g id="Page-1" stroke="none" stroke-width="1" fill="none" fill-rule="evenodd">
        <g id="mobilitystats" transform="translate(0.000000, 2.000000)">
            <path d="M218.429913,53.1464256 C219.98538,56.8135755 221.629115,60.2710948 224.728656,60.2710948 C231.327852,60.2710948 231.327852,44.5981142 237.927047,44.5981142 C244.526367,44.5981142 244.526367,60.2710948 251.125687,60.2710948 C257.725007,60.2710948 257.725007,44.5981142 264.324327,44.5981142 C270.923523,44.5981142 270.923523,60.2710948 277.522843,60.2710948 C284.122038,60.2710948 284.122038,44.5981142 290.721234,44.5981142 C297.320554,44.5981142 297.320554,60.2710948 303.919873,60.2710948 C310.518945,60.2710948 310.518945,44.5981142 317.118016,44.5981142 C323.71746,44.5981142 323.71746,60.2710948 330.31678,60.2710948 C336.9161,60.2710948 336.9161,44.5981142 343.51542,44.5981142 C347.058992,44.5981142 348.699807,49.1170463 350.481274,53.3019369" id="Stroke-1" stroke="#EC7137" stroke-width="2"></path>
            <path d="M510.060355,53.25 L623.500407,53.25" id="Line-Copy-2" stroke="#EC7137" stroke-width="2" stroke-linecap="square"></path>
            <path d="M661.556766,5.79449331 L774.545857,5.79449331 C782.553986,5.79449331 789.045857,12.2863644 789.045857,20.2944933 L789.045857,90.2055067 L647.056766,90.2055067 L647.056766,20.2944933 C647.056766,12.2863644 653.548637,5.79449331 661.556766,5.79449331 Z" id="Rectangle-Copy-30" stroke="#2A333E" stroke-width="5"></path>
            <path d="M663.051312,13.7140346 L773.051312,13.7140346 C777.46959,13.7140346 781.051312,17.2957566 781.051312,21.7140346 L781.051312,82.8351429 L655.051312,82.8351429 L655.051312,21.7140346 C655.051312,17.2957566 658.633034,13.7140346 663.051312,13.7140346 Z" id="Rectangle-Copy-30" fill="#2A333E" fill-rule="nonzero"></path>
            <path d="M643.347703,90.232252 L792.75492,90.232252 C796.897055,90.232252 800.25492,93.5901164 800.25492,97.732252 L800.25492,100.232252 L635.847703,100.232252 L635.847703,97.732252 C635.847703,93.5901164 639.205568,90.232252 643.347703,90.232252 Z" id="Rectangle-Copy-30" stroke="#2A333E" stroke-width="5" transform="translate(718.051312, 95.232252) scale(-1, 1) rotate(-180.000000) translate(-718.051312, -95.232252) "></path>
            <rect id="Rectangle" stroke="#2A333E" stroke-width="5" x="378" y="0.5" width="105" height="105" rx="30.586313"></rect>
            <path d="M430.5,8.2944933 L430.5,8.2944933 C455.19017,8.2944933 475.205507,28.3098304 475.205507,53 L475.205507,53 C475.205507,77.6901696 455.19017,97.7055067 430.5,97.7055067 L430.5,97.7055067 C405.80983,97.7055067 385.794493,77.6901696 385.794493,53 L385.794493,53 C385.794493,28.3098304 405.80983,8.2944933 430.5,8.2944933 Z" id="Rectangle" fill="#2A333E" fill-rule="nonzero"></path>
            <path d="M372.064268,153.165619 L372.064268,131.347437 L374.791541,131.347437 L374.791541,140.07471 L382.973359,140.07471 L382.973359,131.347437 L385.700632,131.347437 L385.700632,153.165619 L382.973359,153.165619 L382.973359,142.529255 L374.791541,142.529255 L374.791541,153.165619 L372.064268,153.165619 Z M396.723359,153.438346 C394.523348,153.438346 392.837002,152.906533 391.664268,151.842892 C390.491535,150.77925 389.905178,149.247447 389.905178,147.247437 L389.905178,142.829255 C389.905178,140.811063 390.496081,139.256533 391.677905,138.165619 C392.859729,137.074704 394.550621,136.529255 396.750632,136.529255 C398.932461,136.529255 400.609717,137.074704 401.78245,138.165619 C402.955183,139.256533 403.541541,140.811063 403.541541,142.829255 L403.541541,147.247437 C403.541541,149.247447 402.955183,150.77925 401.78245,151.842892 C400.609717,152.906533 398.92337,153.438346 396.723359,153.438346 Z M396.723359,150.983801 C398.105184,150.983801 399.132447,150.674713 399.805178,150.056528 C400.477908,149.438343 400.814268,148.501989 400.814268,147.247437 L400.814268,142.829255 C400.814268,141.520158 400.477908,140.551986 399.805178,139.92471 C399.132447,139.297434 398.105184,138.983801 396.723359,138.983801 C395.341534,138.983801 394.314272,139.297434 393.641541,139.92471 C392.968811,140.551986 392.63245,141.520158 392.63245,142.829255 L392.63245,147.247437 C392.63245,148.501989 392.968811,149.438343 393.641541,150.056528 C394.314272,150.674713 395.341534,150.983801 396.723359,150.983801 Z M417.264268,153.411073 C415.464259,153.411073 414.064273,152.965623 413.064268,152.07471 C412.064263,151.183796 411.564268,149.820174 411.564268,147.983801 L411.564268,139.256528 L406.927905,139.256528 L406.927905,136.801983 L411.564268,136.801983 L411.564268,131.347437 L414.291541,131.347437 L414.291541,136.801983 L421.38245,136.801983 L421.38245,139.256528 L414.291541,139.256528 L414.291541,147.738346 C414.291541,148.792897 414.555175,149.574707 415.08245,150.083801 C415.609726,150.592894 416.391536,150.847437 417.427905,150.847437 C418.118817,150.847437 418.764265,150.797438 419.364268,150.697437 C419.964271,150.597437 420.536993,150.46562 421.08245,150.301983 L421.627905,152.783801 C421.00972,152.96562 420.350636,153.115618 419.650632,153.233801 C418.950629,153.351983 418.155182,153.411073 417.264268,153.411073 Z M432.623359,153.438346 C431.241534,153.438346 429.905184,153.233803 428.614268,152.82471 C427.323353,152.415617 426.132456,151.783805 425.041541,150.929255 L426.268814,148.77471 C427.159727,149.501986 428.155172,150.051981 429.255178,150.42471 C430.355183,150.797439 431.477899,150.983801 432.623359,150.983801 C433.568819,150.983801 434.473355,150.838348 435.336996,150.547437 C436.200636,150.256527 436.63245,149.638351 436.63245,148.692892 C436.63245,147.91107 436.277908,147.35653 435.568814,147.029255 C434.859719,146.701981 433.559732,146.420166 431.668814,146.183801 C429.668804,145.947436 428.155183,145.479259 427.127905,144.779255 C426.100627,144.079252 425.586996,142.974717 425.586996,141.465619 C425.586996,139.829247 426.205171,138.597441 427.441541,137.770164 C428.677911,136.942887 430.11426,136.529255 431.750632,136.529255 C433.041541,136.529255 434.282444,136.747435 435.473359,137.183801 C436.664274,137.620167 437.768809,138.238342 438.786996,139.038346 L437.559723,141.192892 C436.723355,140.520161 435.814273,139.983803 434.83245,139.583801 C433.850627,139.183799 432.823365,138.983801 431.750632,138.983801 C430.8779,138.983801 430.082454,139.147435 429.364268,139.47471 C428.646083,139.801984 428.286996,140.401978 428.286996,141.27471 C428.286996,142.020168 428.618811,142.561072 429.28245,142.897437 C429.94609,143.233802 431.22335,143.520163 433.114268,143.756528 C435.187006,143.992893 436.741536,144.497433 437.777905,145.270164 C438.814274,146.042895 439.33245,147.120157 439.33245,148.501983 C439.33245,150.211082 438.641548,151.461069 437.259723,152.251983 C435.877898,153.042896 434.332459,153.438346 432.623359,153.438346 Z M450.000632,151.038346 C451.527912,151.038346 452.632447,150.729258 453.314268,150.111073 C453.99609,149.492889 454.336996,148.501989 454.336996,147.138346 L454.336996,142.720164 C454.336996,141.465613 454.077907,140.551985 453.559723,139.979255 C453.041539,139.406525 452.209729,139.120164 451.064268,139.120164 C450.155178,139.120164 449.309727,139.347435 448.527905,139.801983 C447.746083,140.25653 446.955182,140.983796 446.155178,141.983801 L446.155178,150.001983 C446.718817,150.347439 447.305175,150.606527 447.914268,150.779255 C448.523362,150.951983 449.21881,151.038346 450.000632,151.038346 Z M450.027905,153.438346 C449.40972,153.438346 448.759726,153.370165 448.077905,153.233801 C447.396083,153.097436 446.755181,152.911075 446.155178,152.67471 L446.155178,158.620164 L443.427905,158.620164 L443.427905,136.801983 L446.155178,136.801983 L446.155178,139.529255 L446.973359,139.529255 C447.427907,138.601978 448.086991,137.870167 448.950632,137.333801 C449.814273,136.797434 450.746082,136.529255 451.746087,136.529255 C453.382458,136.529255 454.6779,137.088341 455.63245,138.206528 C456.587001,139.324715 457.064268,140.838337 457.064268,142.747437 L457.064268,147.192892 C457.064268,149.120174 456.432457,150.642886 455.168814,151.761073 C453.905171,152.879261 452.191552,153.438346 450.027905,153.438346 Z M468.086996,153.438346 C465.886985,153.438346 464.200638,152.906533 463.027905,151.842892 C461.855172,150.77925 461.268814,149.247447 461.268814,147.247437 L461.268814,142.829255 C461.268814,140.811063 461.859717,139.256533 463.041541,138.165619 C464.223365,137.074704 465.914257,136.529255 468.114268,136.529255 C470.296098,136.529255 471.973354,137.074704 473.146087,138.165619 C474.31882,139.256533 474.905178,140.811063 474.905178,142.829255 L474.905178,147.247437 C474.905178,149.247447 474.31882,150.77925 473.146087,151.842892 C471.973354,152.906533 470.287007,153.438346 468.086996,153.438346 Z M468.086996,150.983801 C469.468821,150.983801 470.496083,150.674713 471.168814,150.056528 C471.841545,149.438343 472.177905,148.501989 472.177905,147.247437 L472.177905,142.829255 C472.177905,141.520158 471.841545,140.551986 471.168814,139.92471 C470.496083,139.297434 469.468821,138.983801 468.086996,138.983801 C466.705171,138.983801 465.677908,139.297434 465.005178,139.92471 C464.332447,140.551986 463.996087,141.520158 463.996087,142.829255 L463.996087,147.247437 C463.996087,148.501989 464.332447,149.438343 465.005178,150.056528 C465.677908,150.674713 466.705171,150.983801 468.086996,150.983801 Z M488.627905,153.411073 C486.827896,153.411073 485.42791,152.965623 484.427905,152.07471 C483.4279,151.183796 482.927905,149.820174 482.927905,147.983801 L482.927905,139.256528 L478.291541,139.256528 L478.291541,136.801983 L482.927905,136.801983 L482.927905,131.347437 L485.655178,131.347437 L485.655178,136.801983 L492.746087,136.801983 L492.746087,139.256528 L485.655178,139.256528 L485.655178,147.738346 C485.655178,148.792897 485.918811,149.574707 486.446087,150.083801 C486.973362,150.592894 487.755172,150.847437 488.791541,150.847437 C489.482454,150.847437 490.127902,150.797438 490.727905,150.697437 C491.327908,150.597437 491.900629,150.46562 492.446087,150.301983 L492.991541,152.783801 C492.373356,152.96562 491.714272,153.115618 491.014268,153.233801 C490.314265,153.351983 489.518818,153.411073 488.627905,153.411073 Z" id="Hotspot" fill="#EC7137" fill-rule="nonzero"></path>
            <path d="M10.427193,151.620164 L7.46810209,151.620164 L0.197193,129.074709 L3.24082936,129.074709 L8.98992027,148.041073 L14.7390112,129.074709 L17.6981021,129.074709 L10.427193,151.620164 Z M33.7626475,147.900164 C33.2553723,149.309262 32.485077,150.328494 31.4517385,150.957891 C30.4184,151.587288 28.8308401,151.901982 26.6890112,151.901982 C24.4532424,151.901982 22.715381,151.361836 21.4753748,150.281528 C20.2353686,149.201219 19.6153748,147.599569 19.6153748,145.476528 L19.6153748,140.939255 C19.6153748,138.75985 20.2682471,137.130018 21.5740112,136.049709 C22.8797753,134.969401 24.5847582,134.429255 26.6890112,134.429255 C28.8120521,134.429255 30.5123381,134.978795 31.7899203,136.077891 C33.0675024,137.176988 33.7062839,138.863183 33.7062839,141.136528 L33.7062839,143.729255 L22.4335566,143.729255 L22.4335566,145.504709 C22.4335566,146.913807 22.7858258,147.93304 23.4903748,148.562437 C24.1949238,149.191834 25.2517314,149.506528 26.6608294,149.506528 C28.0135634,149.506528 28.9999172,149.318651 29.6199203,148.942891 C30.2399234,148.567132 30.7096156,147.956532 31.0290112,147.111073 L33.7626475,147.900164 Z M22.4335566,140.939255 L22.4335566,141.615619 L30.8881021,141.615619 L30.8881021,141.192891 C30.8881021,139.671065 30.5358329,138.562592 29.8312839,137.867437 C29.1267349,137.172282 28.0699273,136.824709 26.6608294,136.824709 C25.2517314,136.824709 24.1949238,137.158191 23.4903748,137.825164 C22.7858258,138.492137 22.4335566,139.530157 22.4335566,140.939255 Z M37.3426475,151.620164 L37.3426475,129.074709 L40.1608294,129.074709 L40.1608294,137.529255 L41.0062839,137.529255 C41.4196193,136.571068 42.0677946,135.814864 42.9508294,135.260619 C43.8338641,134.706373 44.8390055,134.429255 45.9662839,134.429255 C47.6572015,134.429255 48.9911275,134.945916 49.9681021,135.979255 C50.9450767,137.012593 51.4335566,138.412276 51.4335566,140.178346 L51.4335566,151.620164 L48.6153748,151.620164 L48.6153748,140.770164 C48.6153748,139.586522 48.3288625,138.680016 47.7558294,138.050619 C47.1827962,137.421221 46.3608347,137.106528 45.2899203,137.106528 C44.4444615,137.106528 43.5849246,137.360161 42.7112839,137.867437 C41.8376432,138.374712 40.9875002,139.107432 40.1608294,140.065619 L40.1608294,151.620164 L37.3426475,151.620164 Z M63.5244657,149.0838 L69.7244657,149.0838 L69.7244657,151.620164 L60.7062839,151.620164 L60.7062839,137.247437 L54.5062839,137.247437 L54.5062839,134.711073 L63.5244657,134.711073 L63.5244657,149.0838 Z M62.1153748,131.639255 C61.4014319,131.639255 60.8237104,131.526529 60.382193,131.301073 C59.9406756,131.075617 59.7199203,130.652894 59.7199203,130.032891 L59.7199203,129.835619 C59.7199203,129.196827 59.9406756,128.760014 60.382193,128.525164 C60.8237104,128.290314 61.4014319,128.172891 62.1153748,128.172891 C62.8293178,128.172891 63.4070393,128.290314 63.8485566,128.525164 C64.290074,128.760014 64.5108294,129.196827 64.5108294,129.835619 L64.5108294,130.032891 C64.5108294,130.652894 64.2853771,131.075617 63.8344657,131.301073 C63.3835544,131.526529 62.8105298,131.639255 62.1153748,131.639255 Z M80.237193,151.901982 C77.7759686,151.901982 75.9206841,151.361836 74.6712839,150.281528 C73.4218837,149.201219 72.797193,147.608962 72.797193,145.504709 L72.797193,140.939255 C72.797193,138.797426 73.4218837,137.176988 74.6712839,136.077891 C75.9206841,134.978795 77.7665747,134.429255 80.2090112,134.429255 C82.388416,134.429255 84.0652174,134.922432 85.2394657,135.9088 C86.413714,136.895169 87.0665863,138.337124 87.1981021,140.234709 L84.4362839,140.4038 C84.361132,139.238946 83.9759844,138.374712 83.2808294,137.811073 C82.5856744,137.247434 81.5523514,136.965619 80.1808294,136.965619 C78.6402156,136.965619 77.4941665,137.289706 76.7426475,137.937891 C75.9911286,138.586076 75.6153748,139.586521 75.6153748,140.939255 L75.6153748,145.504709 C75.6153748,146.80108 75.9958256,147.768646 76.7567385,148.407437 C77.5176513,149.046228 78.6777913,149.365619 80.237193,149.365619 C81.589927,149.365619 82.6138562,149.126075 83.3090112,148.646982 C84.0041662,148.167889 84.37992,147.44926 84.4362839,146.491073 L87.1981021,146.660164 C87.0665863,148.388657 86.4184109,149.694402 85.2535566,150.577437 C84.0887023,151.460471 82.4165978,151.901982 80.237193,151.901982 Z M101.684466,151.761073 C99.9559722,151.761073 98.6032585,151.263199 97.6262839,150.267437 C96.6493093,149.271674 96.1608294,147.900173 96.1608294,146.152891 L96.1608294,131.611073 L89.9608294,131.611073 L89.9608294,129.074709 L98.9790112,129.074709 L98.9790112,146.181073 C98.9790112,147.176836 99.2091604,147.928343 99.6694657,148.435619 C100.129771,148.942894 100.829613,149.196528 101.769011,149.196528 C102.182347,149.196528 102.66613,149.144861 103.220375,149.041528 C103.77462,148.938194 104.230222,148.811377 104.587193,148.661073 L105.150829,151.112891 C104.699918,151.300771 104.173863,151.455769 103.572648,151.577891 C102.971432,151.700013 102.342045,151.761073 101.684466,151.761073 Z M122.399011,147.900164 C121.891736,149.309262 121.121441,150.328494 120.088102,150.957891 C119.054764,151.587288 117.467204,151.901982 115.325375,151.901982 C113.089606,151.901982 111.351745,151.361836 110.111738,150.281528 C108.871732,149.201219 108.251738,147.599569 108.251738,145.476528 L108.251738,140.939255 C108.251738,138.75985 108.904611,137.130018 110.210375,136.049709 C111.516139,134.969401 113.221122,134.429255 115.325375,134.429255 C117.448416,134.429255 119.148702,134.978795 120.426284,136.077891 C121.703866,137.176988 122.342648,138.863183 122.342648,141.136528 L122.342648,143.729255 L111.06992,143.729255 L111.06992,145.504709 C111.06992,146.913807 111.422189,147.93304 112.126738,148.562437 C112.831287,149.191834 113.888095,149.506528 115.297193,149.506528 C116.649927,149.506528 117.636281,149.318651 118.256284,148.942891 C118.876287,148.567132 119.345979,147.956532 119.665375,147.111073 L122.399011,147.900164 Z M111.06992,140.939255 L111.06992,141.615619 L119.524466,141.615619 L119.524466,141.192891 C119.524466,139.671065 119.172197,138.562592 118.467648,137.867437 C117.763099,137.172282 116.706291,136.824709 115.297193,136.824709 C113.888095,136.824709 112.831287,137.158191 112.126738,137.825164 C111.422189,138.492137 111.06992,139.530157 111.06992,140.939255 Z M151.118102,151.789255 C149.427185,151.789255 147.849019,151.516833 146.383557,150.971982 C144.918095,150.427131 143.602956,149.431383 142.438102,147.984709 L144.467193,146.068346 C145.256288,147.13926 146.200369,147.937737 147.299466,148.4638 C148.398562,148.989864 149.69961,149.252891 151.202648,149.252891 C152.592958,149.252891 153.715522,148.928804 154.570375,148.280619 C155.425228,147.632433 155.852648,146.754109 155.852648,145.645619 C155.852648,144.574704 155.486288,143.752743 154.753557,143.179709 C154.020826,142.606676 152.574173,142.000773 150.413557,141.361982 C147.670513,140.572887 145.801137,139.718047 144.805375,138.797437 C143.809612,137.876826 143.311738,136.571082 143.311738,134.880164 C143.311738,132.926215 143.964611,131.451381 145.270375,130.455619 C146.576139,129.459856 148.159002,128.961982 150.019011,128.961982 C151.597201,128.961982 153.095519,129.239101 154.514011,129.793346 C155.932503,130.347591 157.186581,131.329248 158.276284,132.738346 L156.331738,134.682891 C155.58022,133.611977 154.640835,132.8135 153.513557,132.287437 C152.386278,131.761373 151.240229,131.498346 150.075375,131.498346 C148.891733,131.498346 147.942954,131.737889 147.229011,132.216982 C146.515068,132.696075 146.158102,133.499249 146.158102,134.626528 C146.158102,135.62229 146.547947,136.406676 147.327648,136.979709 C148.107348,137.552743 149.643242,138.16804 151.935375,138.825619 C154.528115,139.577137 156.298855,140.399099 157.247648,141.291528 C158.19644,142.183956 158.670829,143.47561 158.670829,145.166528 C158.670829,147.327144 157.900534,148.971067 156.35992,150.098346 C154.819307,151.225624 153.072051,151.789255 151.118102,151.789255 Z M175.580829,147.900164 C175.073554,149.309262 174.303259,150.328494 173.26992,150.957891 C172.236582,151.587288 170.649022,151.901982 168.507193,151.901982 C166.271424,151.901982 164.533563,151.361836 163.293557,150.281528 C162.05355,149.201219 161.433557,147.599569 161.433557,145.476528 L161.433557,140.939255 C161.433557,138.75985 162.086429,137.130018 163.392193,136.049709 C164.697957,134.969401 166.40294,134.429255 168.507193,134.429255 C170.630234,134.429255 172.33052,134.978795 173.608102,136.077891 C174.885684,137.176988 175.524466,138.863183 175.524466,141.136528 L175.524466,143.729255 L164.251738,143.729255 L164.251738,145.504709 C164.251738,146.913807 164.604008,147.93304 165.308557,148.562437 C166.013106,149.191834 167.069913,149.506528 168.479011,149.506528 C169.831745,149.506528 170.818099,149.318651 171.438102,148.942891 C172.058105,148.567132 172.527797,147.956532 172.847193,147.111073 L175.580829,147.900164 Z M164.251738,140.939255 L164.251738,141.615619 L172.706284,141.615619 L172.706284,141.192891 C172.706284,139.671065 172.354015,138.562592 171.649466,137.867437 C170.944917,137.172282 169.888109,136.824709 168.479011,136.824709 C167.069913,136.824709 166.013106,137.158191 165.308557,137.825164 C164.604008,138.492137 164.251738,139.530157 164.251738,140.939255 Z M179.160829,151.620164 L179.160829,134.711073 L181.979011,134.711073 L181.979011,137.529255 L182.824466,137.529255 C183.237801,136.571068 183.885976,135.814864 184.769011,135.260619 C185.652046,134.706373 186.657187,134.429255 187.784466,134.429255 C189.475383,134.429255 190.809309,134.945916 191.786284,135.979255 C192.763258,137.012593 193.251738,138.42167 193.251738,140.206528 L193.251738,151.620164 L190.433557,151.620164 L190.433557,140.770164 C190.433557,139.586522 190.147044,138.680016 189.574011,138.050619 C189.000978,137.421221 188.179017,137.106528 187.108102,137.106528 C186.262643,137.106528 185.403106,137.360161 184.529466,137.867437 C183.655825,138.374712 182.805682,139.107432 181.979011,140.065619 L181.979011,151.620164 L179.160829,151.620164 Z M204.159011,151.901982 C202.731125,151.901982 201.35023,151.690621 200.016284,151.267891 C198.682338,150.845162 197.451744,150.19229 196.324466,149.309255 L197.592648,147.082891 C198.513258,147.83441 199.541884,148.402738 200.678557,148.787891 C201.815229,149.173045 202.975369,149.365619 204.159011,149.365619 C205.135986,149.365619 206.070673,149.215317 206.963102,148.914709 C207.855531,148.614102 208.301738,147.97532 208.301738,146.998346 C208.301738,146.190463 207.935378,145.617438 207.202648,145.279255 C206.469917,144.941071 205.126597,144.649862 203.172648,144.405619 C201.105971,144.161375 199.541895,143.677592 198.480375,142.954255 C197.418854,142.230918 196.888102,141.089566 196.888102,139.530164 C196.888102,137.839246 197.526884,136.56638 198.804466,135.711528 C200.082048,134.856675 201.566275,134.429255 203.257193,134.429255 C204.591139,134.429255 205.873399,134.654707 207.104011,135.105619 C208.334623,135.55653 209.475976,136.195311 210.528102,137.021982 L209.25992,139.248346 C208.395674,138.553191 207.456289,137.998954 206.441738,137.585619 C205.427188,137.172283 204.365683,136.965619 203.257193,136.965619 C202.35537,136.965619 201.533409,137.134708 200.791284,137.472891 C200.049159,137.811075 199.678102,138.431069 199.678102,139.332891 C199.678102,140.103198 200.020977,140.662132 200.706738,141.009709 C201.392499,141.357287 202.712335,141.653193 204.666284,141.897437 C206.808113,142.14168 208.41446,142.663039 209.485375,143.461528 C210.556289,144.260016 211.091738,145.373187 211.091738,146.801073 C211.091738,148.567143 210.377806,149.858796 208.94992,150.676073 C207.522034,151.49335 205.925081,151.901982 204.159011,151.901982 Z M221.660829,151.901982 C219.387485,151.901982 217.644926,151.352442 216.433102,150.253346 C215.221278,149.154249 214.615375,147.571386 214.615375,145.504709 L214.615375,140.939255 C214.615375,138.85379 215.225975,137.247442 216.447193,136.120164 C217.668411,134.992886 219.415666,134.429255 221.689011,134.429255 C223.943568,134.429255 225.676732,134.992886 226.888557,136.120164 C228.100381,137.247442 228.706284,138.85379 228.706284,140.939255 L228.706284,145.504709 C228.706284,147.571386 228.100381,149.154249 226.888557,150.253346 C225.676732,151.352442 223.934174,151.901982 221.660829,151.901982 Z M221.660829,149.365619 C223.088715,149.365619 224.15022,149.046228 224.845375,148.407437 C225.54053,147.768646 225.888102,146.80108 225.888102,145.504709 L225.888102,140.939255 C225.888102,139.586521 225.54053,138.586076 224.845375,137.937891 C224.15022,137.289706 223.088715,136.965619 221.660829,136.965619 C220.232943,136.965619 219.171439,137.289706 218.476284,137.937891 C217.781129,138.586076 217.433557,139.586521 217.433557,140.939255 L217.433557,145.504709 C217.433557,146.80108 217.781129,147.768646 218.476284,148.407437 C219.171439,149.046228 220.232943,149.365619 221.660829,149.365619 Z M233.751738,151.620164 L233.751738,134.711073 L236.56992,134.711073 L236.56992,137.529255 L237.415375,137.529255 C237.809922,136.45834 238.411128,135.673954 239.219011,135.176073 C240.026894,134.678192 241.003854,134.429255 242.14992,134.429255 C243.408714,134.429255 244.460825,134.847281 245.306284,135.683346 C246.151743,136.519411 246.574466,137.698338 246.574466,139.220164 L246.574466,141.756528 L243.897193,141.756528 L243.897193,140.234709 C243.897193,139.163795 243.65765,138.374712 243.178557,137.867437 C242.699463,137.360161 241.97144,137.106528 240.994466,137.106528 C240.111431,137.106528 239.308257,137.322586 238.58492,137.754709 C237.861583,138.186833 237.189923,138.86319 236.56992,139.7838 L236.56992,151.620164 L233.751738,151.620164 Z M257.340829,151.901982 C255.912943,151.901982 254.532048,151.690621 253.198102,151.267891 C251.864156,150.845162 250.633562,150.19229 249.506284,149.309255 L250.774466,147.082891 C251.695076,147.83441 252.723702,148.402738 253.860375,148.787891 C254.997047,149.173045 256.157187,149.365619 257.340829,149.365619 C258.317804,149.365619 259.252492,149.215317 260.14492,148.914709 C261.037349,148.614102 261.483557,147.97532 261.483557,146.998346 C261.483557,146.190463 261.117197,145.617438 260.384466,145.279255 C259.651735,144.941071 258.308415,144.649862 256.354466,144.405619 C254.287789,144.161375 252.723713,143.677592 251.662193,142.954255 C250.600673,142.230918 250.06992,141.089566 250.06992,139.530164 C250.06992,137.839246 250.708702,136.56638 251.986284,135.711528 C253.263866,134.856675 254.748094,134.429255 256.439011,134.429255 C257.772957,134.429255 259.055217,134.654707 260.285829,135.105619 C261.516442,135.55653 262.657794,136.195311 263.70992,137.021982 L262.441738,139.248346 C261.577492,138.553191 260.638107,137.998954 259.623557,137.585619 C258.609006,137.172283 257.547502,136.965619 256.439011,136.965619 C255.537188,136.965619 254.715227,137.134708 253.973102,137.472891 C253.230977,137.811075 252.85992,138.431069 252.85992,139.332891 C252.85992,140.103198 253.202796,140.662132 253.888557,141.009709 C254.574318,141.357287 255.894153,141.653193 257.848102,141.897437 C259.989931,142.14168 261.596279,142.663039 262.667193,143.461528 C263.738107,144.260016 264.273557,145.373187 264.273557,146.801073 C264.273557,148.567143 263.559624,149.858796 262.131738,150.676073 C260.703853,151.49335 259.106899,151.901982 257.340829,151.901982 Z" id="VehicleSensors" fill="#EC7137" fill-rule="nonzero"></path>
            <path d="M629.062221,145.9838 L625.060403,133.611982 L625.060403,151.620164 L622.524039,151.620164 L622.524039,129.074709 L626.328584,129.074709 L630.499494,142.630164 L634.642221,129.074709 L638.305857,129.074709 L638.305857,151.620164 L635.769494,151.620164 L635.769494,133.5838 L631.767675,145.9838 L629.062221,145.9838 Z M648.142221,151.901982 C645.868876,151.901982 644.126318,151.352442 642.914494,150.253346 C641.702669,149.154249 641.096766,147.571386 641.096766,145.504709 L641.096766,140.939255 C641.096766,138.85379 641.707366,137.247442 642.928584,136.120164 C644.149803,134.992886 645.897058,134.429255 648.170403,134.429255 C650.424959,134.429255 652.158124,134.992886 653.369948,136.120164 C654.581772,137.247442 655.187675,138.85379 655.187675,140.939255 L655.187675,145.504709 C655.187675,147.571386 654.581772,149.154249 653.369948,150.253346 C652.158124,151.352442 650.415566,151.901982 648.142221,151.901982 Z M648.142221,149.365619 C649.570107,149.365619 650.631611,149.046228 651.326766,148.407437 C652.021921,147.768646 652.369494,146.80108 652.369494,145.504709 L652.369494,140.939255 C652.369494,139.586521 652.021921,138.586076 651.326766,137.937891 C650.631611,137.289706 649.570107,136.965619 648.142221,136.965619 C646.714335,136.965619 645.65283,137.289706 644.957675,137.937891 C644.26252,138.586076 643.914948,139.586521 643.914948,140.939255 L643.914948,145.504709 C643.914948,146.80108 644.26252,147.768646 644.957675,148.407437 C645.65283,149.046228 646.714335,149.365619 648.142221,149.365619 Z M665.644039,151.901982 C664.516761,151.901982 663.351924,151.732893 662.149494,151.394709 C660.947063,151.056526 659.83859,150.568046 658.824039,149.929255 L658.824039,129.074709 L661.642221,129.074709 L661.642221,137.529255 L662.487675,137.529255 C662.976163,136.55228 663.65252,135.791379 664.516766,135.246528 C665.381013,134.701676 666.348579,134.429255 667.419494,134.429255 C669.166775,134.429255 670.519489,134.992886 671.477675,136.120164 C672.435862,137.247442 672.914948,138.825608 672.914948,140.854709 L672.914948,145.448346 C672.914948,147.496235 672.276167,149.083795 670.998584,150.211073 C669.721002,151.338351 667.936172,151.901982 665.644039,151.901982 Z M665.615857,149.421982 C667.137683,149.421982 668.264944,149.088501 668.997675,148.421528 C669.730406,147.754555 670.096766,146.744716 670.096766,145.391982 L670.096766,140.882891 C670.096766,139.605309 669.814951,138.656531 669.251312,138.036528 C668.687673,137.416525 667.842226,137.106528 666.714948,137.106528 C665.794337,137.106528 664.92071,137.350768 664.094039,137.839255 C663.267368,138.327742 662.450104,139.069856 661.642221,140.065619 L661.642221,148.351073 C662.243436,148.708045 662.868127,148.975769 663.516312,149.154255 C664.164497,149.332741 664.864338,149.421982 665.615857,149.421982 Z M685.005857,149.0838 L691.205857,149.0838 L691.205857,151.620164 L682.187675,151.620164 L682.187675,137.247437 L675.987675,137.247437 L675.987675,134.711073 L685.005857,134.711073 L685.005857,149.0838 Z M683.596766,131.639255 C682.882823,131.639255 682.305102,131.526529 681.863584,131.301073 C681.422067,131.075617 681.201312,130.652894 681.201312,130.032891 L681.201312,129.835619 C681.201312,129.196827 681.422067,128.760014 681.863584,128.525164 C682.305102,128.290314 682.882823,128.172891 683.596766,128.172891 C684.310709,128.172891 684.888431,128.290314 685.329948,128.525164 C685.771465,128.760014 685.992221,129.196827 685.992221,129.835619 L685.992221,130.032891 C685.992221,130.652894 685.766769,131.075617 685.315857,131.301073 C684.864946,131.526529 684.291921,131.639255 683.596766,131.639255 Z M705.438584,151.761073 C703.710091,151.761073 702.357377,151.263199 701.380403,150.267437 C700.403428,149.271674 699.914948,147.900173 699.914948,146.152891 L699.914948,131.611073 L693.714948,131.611073 L693.714948,129.074709 L702.73313,129.074709 L702.73313,146.181073 C702.73313,147.176836 702.963279,147.928343 703.423584,148.435619 C703.88389,148.942894 704.583731,149.196528 705.52313,149.196528 C705.936465,149.196528 706.420248,149.144861 706.974494,149.041528 C707.528739,148.938194 707.98434,148.811377 708.341312,148.661073 L708.904948,151.112891 C708.454037,151.300771 707.927981,151.455769 707.326766,151.577891 C706.725551,151.700013 706.096164,151.761073 705.438584,151.761073 Z M720.460403,149.0838 L726.660403,149.0838 L726.660403,151.620164 L717.642221,151.620164 L717.642221,137.247437 L711.442221,137.247437 L711.442221,134.711073 L720.460403,134.711073 L720.460403,149.0838 Z M719.051312,131.639255 C718.337369,131.639255 717.759647,131.526529 717.31813,131.301073 C716.876613,131.075617 716.655857,130.652894 716.655857,130.032891 L716.655857,129.835619 C716.655857,129.196827 716.876613,128.760014 717.31813,128.525164 C717.759647,128.290314 718.337369,128.172891 719.051312,128.172891 C719.765255,128.172891 720.342976,128.290314 720.784494,128.525164 C721.226011,128.760014 721.446766,129.196827 721.446766,129.835619 L721.446766,130.032891 C721.446766,130.652894 721.221314,131.075617 720.770403,131.301073 C720.319491,131.526529 719.746467,131.639255 719.051312,131.639255 Z M739.568584,151.8738 C737.708575,151.8738 736.261923,151.413502 735.228584,150.492891 C734.195246,149.572281 733.678584,148.163204 733.678584,146.265619 L733.678584,137.247437 L728.887675,137.247437 L728.887675,134.711073 L733.678584,134.711073 L733.678584,129.074709 L736.496766,129.074709 L736.496766,134.711073 L743.824039,134.711073 L743.824039,137.247437 L736.496766,137.247437 L736.496766,146.011982 C736.496766,147.101685 736.769188,147.909555 737.314039,148.435619 C737.85889,148.961682 738.666761,149.224709 739.737675,149.224709 C740.451618,149.224709 741.118581,149.173043 741.738584,149.069709 C742.358588,148.966376 742.9504,148.830165 743.514039,148.661073 L744.077675,151.225619 C743.438884,151.413498 742.75783,151.568497 742.034494,151.690619 C741.311157,151.81274 740.489195,151.8738 739.568584,151.8738 Z M749.489494,157.425619 C749.038582,157.425619 748.597071,157.397437 748.164948,157.341073 C747.732825,157.284709 747.291314,157.209558 746.840403,157.115619 L747.319494,154.607437 C747.807981,154.720165 748.263582,154.804709 748.686312,154.861073 C749.109041,154.917437 749.498886,154.945619 749.855857,154.945619 C750.720104,154.945619 751.485702,154.701379 752.152675,154.212891 C752.819648,153.724404 753.331613,152.944715 753.688584,151.8738 L753.77313,151.620164 L752.730403,151.620164 L746.727675,134.711073 L749.799494,134.711073 L754.562221,149.252891 L759.296766,134.711073 L762.255857,134.711073 L756.055857,152.1838 C755.417066,154.006234 754.548135,155.335463 753.449039,156.171528 C752.349943,157.007592 751.030107,157.425619 749.489494,157.425619 Z M782.914948,151.620164 L782.914948,129.074709 L785.73313,129.074709 L785.73313,138.092891 L794.187675,138.092891 L794.187675,129.074709 L797.005857,129.074709 L797.005857,151.620164 L794.187675,151.620164 L794.187675,140.629255 L785.73313,140.629255 L785.73313,151.620164 L782.914948,151.620164 Z M816.142221,157.002891 C813.361601,157.604106 811.224501,157.467896 809.730857,156.594255 C808.237213,155.720614 807.462221,154.156539 807.405857,151.901982 C805.000997,151.845618 803.178591,151.131686 801.938584,149.760164 C800.698578,148.388642 800.078584,146.406541 800.078584,143.8138 L800.078584,136.9938 C800.078584,134.30712 800.722063,132.268656 802.009039,130.878346 C803.296015,129.488036 805.198269,128.792891 807.715857,128.792891 C810.214658,128.792891 812.10282,129.488036 813.380403,130.878346 C814.657985,132.268656 815.296766,134.30712 815.296766,136.9938 L815.296766,143.8138 C815.296766,145.974417 814.869346,147.712279 814.014494,149.027437 C813.159641,150.342595 811.896169,151.206829 810.224039,151.620164 C810.261615,152.95411 810.721913,153.851222 811.604948,154.311528 C812.487983,154.771833 813.859484,154.823499 815.719494,154.466528 L816.142221,157.002891 Z M807.687675,149.0838 C809.416169,149.0838 810.646763,148.679865 811.379494,147.871982 C812.112224,147.064099 812.478584,145.711386 812.478584,143.8138 L812.478584,136.9938 C812.478584,135.058639 812.112224,133.677744 811.379494,132.851073 C810.646763,132.024402 809.416169,131.611073 807.687675,131.611073 C805.959182,131.611073 804.728588,132.024402 803.995857,132.851073 C803.263126,133.677744 802.896766,135.058639 802.896766,136.9938 L802.896766,143.8138 C802.896766,145.711386 803.263126,147.064099 803.995857,147.871982 C804.728588,148.679865 805.959182,149.0838 807.687675,149.0838 Z" id="MobilityHQ" fill="#EC7137" fill-rule="nonzero"></path>
            <path d="M116.8809,58.9067 C116.3939,59.2037 115.8549,59.3447 115.3219,59.3447 C114.3109,59.3447 113.3229,58.8337 112.7579,57.9067 L106.2579,47.2447 C105.3959,45.8297 105.8429,43.9837 107.2579,43.1217 C108.6699,42.2597 110.5179,42.7067 111.3809,44.1217 L117.8809,54.7837 C118.7429,56.1987 118.2959,58.0447 116.8809,58.9067 L116.8809,58.9067 Z M179.5029,99.1167 L168.1419,79.4387 L187.6009,90.6747 C185.5489,94.0437 182.7769,96.9277 179.5029,99.1167 L179.5029,99.1167 Z M141.9999,91.3767 L162.6769,79.4387 L150.8719,99.8857 C147.3019,97.7667 144.2629,94.8467 141.9999,91.3767 L141.9999,91.3767 Z M149.7529,54.2297 L160.3899,72.6537 L142.0009,62.0367 C144.0239,58.9337 146.6649,56.2727 149.7529,54.2297 L149.7529,54.2297 Z M164.4089,49.7727 L164.4089,67.6147 L155.1019,51.4937 C158.0009,50.4007 161.1359,49.7937 164.4089,49.7727 L164.4089,49.7727 Z M187.6009,62.7397 L168.1419,73.9737 L179.5029,54.2967 C182.7769,56.4857 185.5489,59.3697 187.6009,62.7397 L187.6009,62.7397 Z M169.1419,75.7067 L188.5699,64.4897 C190.3039,67.8797 191.3389,71.6797 191.4869,75.7067 L169.1419,75.7067 Z M166.4089,80.4387 L177.7969,100.1627 C174.3899,102.0907 170.5259,103.2967 166.4089,103.5747 L166.4089,80.4387 Z M164.4089,103.6397 C160.1829,103.6137 156.1859,102.6087 152.6299,100.8417 L164.4089,80.4387 L164.4089,103.6397 Z M166.4089,49.8387 C170.5259,50.1167 174.3899,51.3227 177.7969,53.2507 L166.9559,72.0267 L166.4089,71.0787 L166.4089,49.8387 Z M140.9669,63.7497 L161.6769,75.7067 L137.6629,75.7067 C137.8219,71.3857 138.9989,67.3217 140.9669,63.7497 L140.9669,63.7497 Z M137.6629,77.7067 L161.6769,77.7067 L140.9669,89.6637 C138.9989,86.0917 137.8219,82.0267 137.6629,77.7067 L137.6629,77.7067 Z M188.5709,88.9247 L169.1419,77.7067 L191.4869,77.7067 C191.3399,81.7327 190.3039,85.5337 188.5709,88.9247 L188.5709,88.9247 Z M103.7069,73.3867 C102.7009,63.3877 97.2048997,54.6947 89.2718997,49.3587 L94.1538997,40.9017 L112.9089,73.3867 L103.7069,73.3867 Z M94.7418997,89.2957 L77.5798997,79.3867 L97.7398997,79.3867 C97.3878997,82.9367 96.3408997,86.2837 94.7418997,89.2957 L94.7418997,89.2957 Z M85.2558997,99.5077 L73.6688997,79.4387 L93.7368997,91.0247 C91.5808997,94.4467 88.6768997,97.3497 85.2558997,99.5077 L85.2558997,99.5077 Z M48.1368997,91.0247 L68.2038997,79.4387 L56.6178997,99.5077 C53.1958997,97.3497 50.2928997,94.4467 48.1368997,91.0247 L48.1368997,91.0247 Z M56.6178997,53.9067 L68.2038997,73.9737 L48.1368997,62.3877 C50.2938997,58.9667 53.1958997,56.0627 56.6178997,53.9067 L56.6178997,53.9067 Z M71.9368997,67.3837 L71.9368997,49.7947 C75.1228997,49.9117 78.1678997,50.5847 80.9808997,51.7197 L71.9368997,67.3837 Z M75.7548997,72.7697 L86.2618997,54.5717 C89.2478997,56.6457 91.7948997,59.3067 93.7368997,62.3877 L75.7548997,72.7697 Z M78.6858997,73.3867 L94.7408997,64.1177 C96.2438997,66.9477 97.2528997,70.0757 97.6618997,73.3867 L78.6858997,73.3867 Z M71.9368997,80.4387 L83.5258997,100.5107 C80.0428997,102.3607 76.1098997,103.4657 71.9368997,103.6187 L71.9368997,80.4387 Z M69.9368997,103.6187 C65.7628997,103.4657 61.8298997,102.3607 58.3478997,100.5107 L69.9368997,80.4387 L69.9368997,103.6187 Z M69.9368997,70.8467 L69.3228997,71.9107 L58.3478997,52.9017 C61.8298997,51.0527 65.7628997,49.9477 69.9368997,49.7947 L69.9368997,70.8467 Z M47.1318997,64.1187 L67.2038997,75.7067 L44.0258997,75.7067 C44.1788997,71.5337 45.2838997,67.6007 47.1318997,64.1187 L47.1318997,64.1187 Z M44.0258997,77.7067 L67.2038997,77.7067 L47.1318997,89.2957 C45.2828997,85.8127 44.1788997,81.8797 44.0258997,77.7067 L44.0258997,77.7067 Z M136.8609,37.9007 L118.9549,68.9177 C118.6599,69.4277 118.3769,69.9197 118.1059,70.3877 L99.3508997,37.9007 L136.8609,37.9007 Z M164.5749,43.7687 C160.1499,43.7687 155.9279,44.6517 152.0689,46.2417 L145.0579,34.0977 L145.0579,19.8977 C145.0579,16.9857 143.9239,14.2487 141.8659,12.1897 C139.8069,10.1327 137.0699,8.9997 134.1579,8.9997 L128.9889,8.9997 C127.3329,8.9997 125.9889,10.3427 125.9889,11.9997 C125.9889,13.6567 127.3329,14.9997 128.9889,14.9997 L134.1579,14.9997 C135.4679,14.9997 136.6989,15.5097 137.6239,16.4327 C138.5479,17.3577 139.0579,18.5887 139.0579,19.8977 L139.0579,31.9007 L96.5788997,31.9007 C96.3578997,31.9007 96.1388997,31.9227 95.9228997,31.9547 L94.3718997,29.2627 L106.5489,29.2627 C108.2059,29.2627 109.5489,27.9207 109.5489,26.2627 C109.5489,24.6057 108.2059,23.2627 106.5489,23.2627 L85.6608997,23.2627 C83.0578997,23.2627 80.6128997,22.2517 78.7768997,20.4147 C77.6068997,19.2417 75.7078997,19.2427 74.5348997,20.4127 C73.3628997,21.5837 73.3618997,23.4827 74.5328997,24.6547 C77.5028997,27.6267 81.4538997,29.2627 85.6608997,29.2627 L87.5108997,29.2627 C87.5708997,29.4347 87.6428997,29.6047 87.7368997,29.7677 L90.7248997,34.9537 C90.5858997,35.1267 90.4558997,35.3067 90.3428997,35.5017 L84.0058997,46.4797 C79.9958997,44.7397 75.5778997,43.7687 70.9368997,43.7687 C52.7758997,43.7687 37.9998997,58.5457 37.9998997,76.7077 C37.9998997,94.8687 52.7758997,109.6437 70.9368997,109.6437 C88.1948997,109.6437 102.3859,96.2987 103.7559,79.3867 L115.6819,79.3867 C116.1559,79.3867 116.6169,79.3017 117.0549,79.1567 C118.4069,79.6727 119.9699,79.1577 120.7169,77.8647 C120.8009,77.7197 121.2469,76.9477 121.9149,75.7907 C121.9149,75.7907 121.9159,75.7897 121.9169,75.7887 L122.6949,74.4397 C126.1009,68.5417 132.6809,57.1437 132.6809,57.1437 L142.0579,40.9017 L146.7509,49.0307 C137.6679,54.9017 131.6379,65.1107 131.6379,76.7077 C131.6379,94.8687 146.4139,109.6437 164.5749,109.6437 C182.7369,109.6437 197.5129,94.8687 197.5129,76.7077 C197.5129,58.5457 182.7369,43.7687 164.5749,43.7687 L164.5749,43.7687 Z" id="Fill-1" fill="#2A333E" fill-rule="nonzero"></path>
            <path d="M718,65 C708.666666,59.0375821 704,52.0375821 704,44 C704,36.2680135 710.268013,30 718,30 C725.731986,30 732,36.2680135 732,44 C732,52.1271204 727.333333,59.1271204 718,65 Z M718,49 C721.313708,49 724,46.3137085 724,43 C724,39.6862915 721.313708,37 718,37 C714.686291,37 712,39.6862915 712,43 C712,46.3137085 714.686291,49 718,49 Z" id="Combined-Shape" fill="#FFFFFF" fill-rule="nonzero"></path>
        </g>
    </g>
</svg>