<?xml version="1.0" encoding="UTF-8"?>
<svg width="750px" height="168px" viewBox="0 0 750 168" version="1.1" xmlns="http://www.w3.org/2000/svg" xmlns:xlink="http://www.w3.org/1999/xlink">
    <!-- Generator: Sketch 54.1 (76490) - https://sketchapp.com -->
    <title>nestlestats</title>
    <desc>Created with Sketch.</desc>
    <g id="Page-1" stroke="none" stroke-width="1" fill="none" fill-rule="evenodd">
        <g id="nestlestats" transform="translate(0.000000, 3.000000)">
            <path d="M146.429913,61.1464256 C147.98538,64.8135755 149.629115,68.2710948 152.728656,68.2710948 C159.327852,68.2710948 159.327852,52.5981142 165.927047,52.5981142 C172.526367,52.5981142 172.526367,68.2710948 179.125687,68.2710948 C185.725007,68.2710948 185.725007,52.5981142 192.324327,52.5981142 C198.923523,52.5981142 198.923523,68.2710948 205.522843,68.2710948 C212.122038,68.2710948 212.122038,52.5981142 218.721234,52.5981142 C225.320554,52.5981142 225.320554,68.2710948 231.919873,68.2710948 C238.518945,68.2710948 238.518945,52.5981142 245.118016,52.5981142 C251.71746,52.5981142 251.71746,68.2710948 258.31678,68.2710948 C264.9161,68.2710948 264.9161,52.5981142 271.51542,52.5981142 C275.058992,52.5981142 276.699807,57.1170463 278.481274,61.3019369" id="Stroke-1" stroke="#9B9B9B" stroke-width="2"></path>
            <path d="M437.060355,59.25 L550.500407,59.25" id="Line-Copy-2" stroke="#9B9B9B" stroke-width="2" stroke-linecap="square"></path>
            <rect id="Rectangle" stroke="#2A333E" stroke-width="5" x="305" y="6.5" width="105" height="105" rx="30.586313"></rect>
            <path d="M133.78186,43.3440404 L123.173799,43.3440404 L123.173799,39.3278654 C123.173799,29.1105975 114.891066,20.8278654 104.673799,20.8278654 L101.303208,20.8278654 L100.842935,18.9117987 C100.575898,17.8001547 99.5736971,17.0000001 98.4119328,17.0000001 L83.3522045,17.0000001 C82.1904402,17.0000001 81.1882397,17.8001547 80.9212028,18.9117987 L80.4609292,20.8278654 L67.3163443,20.8278654 L66.8560706,18.9117987 C66.5890337,17.8001547 65.5868332,17.0000001 64.4250689,17.0000001 L49.3653406,17.0000001 C48.2035763,17.0000001 47.2013758,17.8001547 46.9343389,18.9117987 L46.4740653,20.8278654 L40.4172221,20.8278654 C30.1999542,20.8278654 21.9172221,29.1105975 21.9172221,39.3278654 L21.9172221,76.6721348 C21.9172221,86.8894027 30.1999542,95.1721348 40.4172221,95.1721348 L46.4740653,95.1721348 L46.9343389,97.0882011 C47.2013758,98.1998451 48.2035763,99.0000001 49.3653406,99.0000001 L64.4250689,99.0000001 C65.5868332,99.0000001 66.5890337,98.1998451 66.8560706,97.0882011 L67.3163443,95.1721348 L69.2869186,95.1721348 L78.4903549,95.1721348 L80.4609292,95.1721348 L80.9212028,97.0882011 C81.1882397,98.1998451 82.1904402,99.0000001 83.3522045,99.0000001 L98.4119328,99.0000001 C99.5736971,99.0000001 100.575898,98.1998451 100.842935,97.0882011 L101.303208,95.1721348 L104.673799,95.1721348 C114.891066,95.1721348 123.173799,86.8894027 123.173799,76.6721348 L123.173799,72.6559598 L133.78186,72.6559598 C135.714857,72.6559598 137.28186,71.0889565 137.28186,69.1559598 L137.28186,46.8440404 C137.28186,44.9110437 135.714857,43.3440404 133.78186,43.3440404 Z" id="Combined-Shape" stroke="#2A333E" stroke-width="5" transform="translate(79.599541, 58.000000) rotate(90.000000) translate(-79.599541, -58.000000) "></path>
            <path d="M48.8336254,75.7196411 L45.5696999,74.0745899 L45.5696999,64.7123166 L48.8336254,63.4130179 L48.8336254,48.4070918 L110.341134,48.4070918 L110.341134,63.2032941 L114.1319,64.7123166 L114.1319,74.0745899 L110.341134,75.9851739 L110.341134,83.306574 C110.341134,89.933991 104.968551,95.306574 98.3411343,95.306574 L60.8336254,95.306574 C54.2062084,95.306574 48.8336254,89.933991 48.8336254,83.306574 L48.8336254,75.7196411 Z" id="Combined-Shape" fill="#2A333E" fill-rule="nonzero"></path>
            <path d="M621.322778,90.5 L669.366668,90.5 L669.366668,25.5 L576.73193,25.5 L576.73193,90.5 L586.677222,90.5 C587.890296,82.0192646 595.18382,75.5 604,75.5 C612.81618,75.5 620.109704,82.0192646 621.322778,90.5 Z" id="Combined-Shape" stroke="#2A333E" stroke-width="5"></path>
            <path d="M711.136497,90.5 L718.182617,90.5 L718.182617,56.9132321 L690.922864,25.5 L669.444821,25.5 L669.444821,90.5 L676.490941,90.5 C677.704015,82.0192646 684.997539,75.5 693.813719,75.5 C702.629899,75.5 709.923423,82.0192646 711.136497,90.5 Z" id="Combined-Shape" stroke="#2A333E" stroke-width="5"></path>
            <path d="M357.5,14.2944933 L357.5,14.2944933 C382.19017,14.2944933 402.205507,34.3098304 402.205507,59 L402.205507,59 C402.205507,83.6901696 382.19017,103.705507 357.5,103.705507 L357.5,103.705507 C332.80983,103.705507 312.794493,83.6901696 312.794493,59 L312.794493,59 C312.794493,34.3098304 332.80983,14.2944933 357.5,14.2944933 Z" id="Rectangle" fill="#2A333E" fill-rule="nonzero"></path>
            <path d="M300.064268,159.165619 L300.064268,137.347437 L302.791541,137.347437 L302.791541,146.07471 L310.973359,146.07471 L310.973359,137.347437 L313.700632,137.347437 L313.700632,159.165619 L310.973359,159.165619 L310.973359,148.529255 L302.791541,148.529255 L302.791541,159.165619 L300.064268,159.165619 Z M324.723359,159.438346 C322.523348,159.438346 320.837002,158.906533 319.664268,157.842892 C318.491535,156.77925 317.905178,155.247447 317.905178,153.247437 L317.905178,148.829255 C317.905178,146.811063 318.496081,145.256533 319.677905,144.165619 C320.859729,143.074704 322.550621,142.529255 324.750632,142.529255 C326.932461,142.529255 328.609717,143.074704 329.78245,144.165619 C330.955183,145.256533 331.541541,146.811063 331.541541,148.829255 L331.541541,153.247437 C331.541541,155.247447 330.955183,156.77925 329.78245,157.842892 C328.609717,158.906533 326.92337,159.438346 324.723359,159.438346 Z M324.723359,156.983801 C326.105184,156.983801 327.132447,156.674713 327.805178,156.056528 C328.477908,155.438343 328.814268,154.501989 328.814268,153.247437 L328.814268,148.829255 C328.814268,147.520158 328.477908,146.551986 327.805178,145.92471 C327.132447,145.297434 326.105184,144.983801 324.723359,144.983801 C323.341534,144.983801 322.314272,145.297434 321.641541,145.92471 C320.968811,146.551986 320.63245,147.520158 320.63245,148.829255 L320.63245,153.247437 C320.63245,154.501989 320.968811,155.438343 321.641541,156.056528 C322.314272,156.674713 323.341534,156.983801 324.723359,156.983801 Z M345.264268,159.411073 C343.464259,159.411073 342.064273,158.965623 341.064268,158.07471 C340.064263,157.183796 339.564268,155.820174 339.564268,153.983801 L339.564268,145.256528 L334.927905,145.256528 L334.927905,142.801983 L339.564268,142.801983 L339.564268,137.347437 L342.291541,137.347437 L342.291541,142.801983 L349.38245,142.801983 L349.38245,145.256528 L342.291541,145.256528 L342.291541,153.738346 C342.291541,154.792897 342.555175,155.574707 343.08245,156.083801 C343.609726,156.592894 344.391536,156.847437 345.427905,156.847437 C346.118817,156.847437 346.764265,156.797438 347.364268,156.697437 C347.964271,156.597437 348.536993,156.46562 349.08245,156.301983 L349.627905,158.783801 C349.00972,158.96562 348.350636,159.115618 347.650632,159.233801 C346.950629,159.351983 346.155182,159.411073 345.264268,159.411073 Z M360.623359,159.438346 C359.241534,159.438346 357.905184,159.233803 356.614268,158.82471 C355.323353,158.415617 354.132456,157.783805 353.041541,156.929255 L354.268814,154.77471 C355.159727,155.501986 356.155172,156.051981 357.255178,156.42471 C358.355183,156.797439 359.477899,156.983801 360.623359,156.983801 C361.568819,156.983801 362.473355,156.838348 363.336996,156.547437 C364.200636,156.256527 364.63245,155.638351 364.63245,154.692892 C364.63245,153.91107 364.277908,153.35653 363.568814,153.029255 C362.859719,152.701981 361.559732,152.420166 359.668814,152.183801 C357.668804,151.947436 356.155183,151.479259 355.127905,150.779255 C354.100627,150.079252 353.586996,148.974717 353.586996,147.465619 C353.586996,145.829247 354.205171,144.597441 355.441541,143.770164 C356.677911,142.942887 358.11426,142.529255 359.750632,142.529255 C361.041541,142.529255 362.282444,142.747435 363.473359,143.183801 C364.664274,143.620167 365.768809,144.238342 366.786996,145.038346 L365.559723,147.192892 C364.723355,146.520161 363.814273,145.983803 362.83245,145.583801 C361.850627,145.183799 360.823365,144.983801 359.750632,144.983801 C358.8779,144.983801 358.082454,145.147435 357.364268,145.47471 C356.646083,145.801984 356.286996,146.401978 356.286996,147.27471 C356.286996,148.020168 356.618811,148.561072 357.28245,148.897437 C357.94609,149.233802 359.22335,149.520163 361.114268,149.756528 C363.187006,149.992893 364.741536,150.497433 365.777905,151.270164 C366.814274,152.042895 367.33245,153.120157 367.33245,154.501983 C367.33245,156.211082 366.641548,157.461069 365.259723,158.251983 C363.877898,159.042896 362.332459,159.438346 360.623359,159.438346 Z M378.000632,157.038346 C379.527912,157.038346 380.632447,156.729258 381.314268,156.111073 C381.99609,155.492889 382.336996,154.501989 382.336996,153.138346 L382.336996,148.720164 C382.336996,147.465613 382.077907,146.551985 381.559723,145.979255 C381.041539,145.406525 380.209729,145.120164 379.064268,145.120164 C378.155178,145.120164 377.309727,145.347435 376.527905,145.801983 C375.746083,146.25653 374.955182,146.983796 374.155178,147.983801 L374.155178,156.001983 C374.718817,156.347439 375.305175,156.606527 375.914268,156.779255 C376.523362,156.951983 377.21881,157.038346 378.000632,157.038346 Z M378.027905,159.438346 C377.40972,159.438346 376.759726,159.370165 376.077905,159.233801 C375.396083,159.097436 374.755181,158.911075 374.155178,158.67471 L374.155178,164.620164 L371.427905,164.620164 L371.427905,142.801983 L374.155178,142.801983 L374.155178,145.529255 L374.973359,145.529255 C375.427907,144.601978 376.086991,143.870167 376.950632,143.333801 C377.814273,142.797434 378.746082,142.529255 379.746087,142.529255 C381.382458,142.529255 382.6779,143.088341 383.63245,144.206528 C384.587001,145.324715 385.064268,146.838337 385.064268,148.747437 L385.064268,153.192892 C385.064268,155.120174 384.432457,156.642886 383.168814,157.761073 C381.905171,158.879261 380.191552,159.438346 378.027905,159.438346 Z M396.086996,159.438346 C393.886985,159.438346 392.200638,158.906533 391.027905,157.842892 C389.855172,156.77925 389.268814,155.247447 389.268814,153.247437 L389.268814,148.829255 C389.268814,146.811063 389.859717,145.256533 391.041541,144.165619 C392.223365,143.074704 393.914257,142.529255 396.114268,142.529255 C398.296098,142.529255 399.973354,143.074704 401.146087,144.165619 C402.31882,145.256533 402.905178,146.811063 402.905178,148.829255 L402.905178,153.247437 C402.905178,155.247447 402.31882,156.77925 401.146087,157.842892 C399.973354,158.906533 398.287007,159.438346 396.086996,159.438346 Z M396.086996,156.983801 C397.468821,156.983801 398.496083,156.674713 399.168814,156.056528 C399.841545,155.438343 400.177905,154.501989 400.177905,153.247437 L400.177905,148.829255 C400.177905,147.520158 399.841545,146.551986 399.168814,145.92471 C398.496083,145.297434 397.468821,144.983801 396.086996,144.983801 C394.705171,144.983801 393.677908,145.297434 393.005178,145.92471 C392.332447,146.551986 391.996087,147.520158 391.996087,148.829255 L391.996087,153.247437 C391.996087,154.501989 392.332447,155.438343 393.005178,156.056528 C393.677908,156.674713 394.705171,156.983801 396.086996,156.983801 Z M416.627905,159.411073 C414.827896,159.411073 413.42791,158.965623 412.427905,158.07471 C411.4279,157.183796 410.927905,155.820174 410.927905,153.983801 L410.927905,145.256528 L406.291541,145.256528 L406.291541,142.801983 L410.927905,142.801983 L410.927905,137.347437 L413.655178,137.347437 L413.655178,142.801983 L420.746087,142.801983 L420.746087,145.256528 L413.655178,145.256528 L413.655178,153.738346 C413.655178,154.792897 413.918811,155.574707 414.446087,156.083801 C414.973362,156.592894 415.755172,156.847437 416.791541,156.847437 C417.482454,156.847437 418.127902,156.797438 418.727905,156.697437 C419.327908,156.597437 419.900629,156.46562 420.446087,156.301983 L420.991541,158.783801 C420.373356,158.96562 419.714272,159.115618 419.014268,159.233801 C418.314265,159.351983 417.518818,159.411073 416.627905,159.411073 Z" id="Hotspot" fill="#96A3B3" fill-rule="nonzero"></path>
            <path d="M0.390489108,159.438346 L0.390489108,137.620164 L6.41776184,137.620164 C8.96322911,137.620164 10.9586637,138.342884 12.4041255,139.788346 C13.8495872,141.233808 14.5723073,143.156516 14.5723073,145.556528 L14.5723073,151.611073 C14.5723073,153.992904 13.8450418,155.892885 12.3904891,157.311073 C10.9359364,158.729262 8.93595638,159.438346 6.39048911,159.438346 L0.390489108,159.438346 Z M3.11776184,156.983801 L6.39048911,156.983801 C8.22686193,156.983801 9.59503006,156.488351 10.4950346,155.497437 C11.3950391,154.506523 11.8450346,153.211081 11.8450346,151.611073 L11.8450346,145.556528 C11.8450346,143.974702 11.3950391,142.665624 10.4950346,141.629255 C9.59503006,140.592886 8.22686193,140.07471 6.39048911,140.07471 L3.11776184,140.07471 L3.11776184,156.983801 Z M26.4132164,156.983801 L32.4132164,156.983801 L32.4132164,159.438346 L23.6859437,159.438346 L23.6859437,145.529255 L17.6859437,145.529255 L17.6859437,143.07471 L26.4132164,143.07471 L26.4132164,156.983801 Z M25.04958,140.101983 C24.3586675,140.101983 23.7995822,139.992893 23.3723073,139.77471 C22.9450324,139.556527 22.7313982,139.14744 22.7313982,138.547437 L22.7313982,138.356528 C22.7313982,137.738343 22.9450324,137.31562 23.3723073,137.088346 C23.7995822,136.861072 24.3586675,136.747437 25.04958,136.747437 C25.7404926,136.747437 26.2995779,136.861072 26.7268527,137.088346 C27.1541276,137.31562 27.3677618,137.738343 27.3677618,138.356528 L27.3677618,138.547437 C27.3677618,139.14744 27.1495822,139.556527 26.7132164,139.77471 C26.2768506,139.992893 25.7223107,140.101983 25.04958,140.101983 Z M43.1086709,159.711073 C41.7268458,159.711073 40.3904956,159.50653 39.09958,159.097437 C37.8086645,158.688344 36.6177673,158.056532 35.5268527,157.201983 L36.7541255,155.047437 C37.645039,155.774713 38.6404836,156.324708 39.7404891,156.697437 C40.8404946,157.070166 41.9632107,157.256528 43.1086709,157.256528 C44.0541302,157.256528 44.9586666,157.111075 45.8223073,156.820164 C46.685948,156.529254 47.1177618,155.911078 47.1177618,154.965619 C47.1177618,154.183797 46.7632199,153.629257 46.0541255,153.301983 C45.345031,152.974708 44.045044,152.692893 42.1541255,152.456528 C40.1541155,152.220163 38.6404942,151.751986 37.6132164,151.051983 C36.5859385,150.351979 36.0723073,149.247445 36.0723073,147.738346 C36.0723073,146.101974 36.6904829,144.870168 37.9268527,144.042892 C39.1632226,143.215615 40.5995718,142.801983 42.2359437,142.801983 C43.5268527,142.801983 44.7677559,143.020162 45.9586709,143.456528 C47.149586,143.892894 48.2541204,144.511069 49.2723073,145.311073 L48.0450346,147.465619 C47.2086667,146.792888 46.2995849,146.25653 45.3177618,145.856528 C44.3359387,145.456526 43.3086763,145.256528 42.2359437,145.256528 C41.363212,145.256528 40.5677654,145.420163 39.84958,145.747437 C39.1313946,146.074711 38.7723073,146.674705 38.7723073,147.547437 C38.7723073,148.292895 39.1041222,148.833799 39.7677618,149.170164 C40.4314015,149.50653 41.7086615,149.79289 43.59958,150.029255 C45.6723177,150.26562 47.2268476,150.77016 48.2632164,151.542892 C49.2995852,152.315623 49.8177618,153.392885 49.8177618,154.77471 C49.8177618,156.483809 49.1268597,157.733797 47.7450346,158.52471 C46.3632095,159.315623 44.8177704,159.711073 43.1086709,159.711073 Z M60.4859437,157.311073 C62.013224,157.311073 63.1177584,157.001986 63.79958,156.383801 C64.4814016,155.765616 64.8223073,154.774717 64.8223073,153.411073 L64.8223073,148.992892 C64.8223073,147.73834 64.563219,146.824713 64.0450346,146.251983 C63.5268502,145.679252 62.6950403,145.392892 61.54958,145.392892 C60.6404891,145.392892 59.7950385,145.620162 59.0132164,146.07471 C58.2313943,146.529258 57.4404931,147.256523 56.6404891,148.256528 L56.6404891,156.27471 C57.2041283,156.620166 57.7904861,156.879254 58.39958,157.051983 C59.008674,157.224711 59.7041216,157.311073 60.4859437,157.311073 Z M60.5132164,159.711073 C59.8950315,159.711073 59.245038,159.642892 58.5632164,159.506528 C57.8813948,159.370164 57.2404921,159.183802 56.6404891,158.947437 L56.6404891,164.892892 L53.9132164,164.892892 L53.9132164,143.07471 L56.6404891,143.07471 L56.6404891,145.801983 L57.4586709,145.801983 C57.9132187,144.874705 58.572303,144.142894 59.4359437,143.606528 C60.2995843,143.070162 61.2313932,142.801983 62.2313982,142.801983 C63.86777,142.801983 65.1632116,143.361068 66.1177618,144.479255 C67.0723121,145.597443 67.54958,147.111064 67.54958,149.020164 L67.54958,153.465619 C67.54958,155.392901 66.9177682,156.915613 65.6541255,158.033801 C64.3904828,159.151988 62.6768636,159.711073 60.5132164,159.711073 Z M85.4450346,155.838346 C84.954123,157.201989 84.2086759,158.188343 83.2086709,158.797437 C82.2086659,159.406531 80.6723177,159.711073 78.59958,159.711073 C76.4359328,159.711073 74.7541315,159.188351 73.5541255,158.142892 C72.3541195,157.097432 71.7541255,155.547447 71.7541255,153.492892 L71.7541255,149.101983 C71.7541255,146.992881 72.3859373,145.415624 73.64958,144.370164 C74.9132227,143.324705 76.5632062,142.801983 78.59958,142.801983 C80.6541357,142.801983 82.2995738,143.333795 83.5359437,144.397437 C84.7723135,145.461079 85.3904891,147.092881 85.3904891,149.292892 L85.3904891,151.801983 L74.4813982,151.801983 L74.4813982,153.520164 C74.4813982,154.883808 74.8223039,155.870161 75.5041255,156.479255 C76.1859471,157.088349 77.2086641,157.392892 78.5723073,157.392892 C79.8814047,157.392892 80.8359407,157.211075 81.4359437,156.847437 C82.0359467,156.483799 82.4904876,155.892896 82.79958,155.07471 L85.4450346,155.838346 Z M74.4813982,149.101983 L74.4813982,149.756528 L82.6632164,149.756528 L82.6632164,149.347437 C82.6632164,147.874702 82.3223107,146.801986 81.6404891,146.129255 C80.9586675,145.456525 79.9359505,145.120164 78.5723073,145.120164 C77.2086641,145.120164 76.1859471,145.442888 75.5041255,146.088346 C74.8223039,146.733804 74.4813982,147.738339 74.4813982,149.101983 Z M89.5950346,159.438346 L89.5950346,143.07471 L92.3223073,143.07471 L92.3223073,145.801983 L93.1404891,145.801983 C93.5404911,144.874705 94.1677576,144.142894 95.0223073,143.606528 C95.876857,143.070162 96.8495746,142.801983 97.9404891,142.801983 C99.5768609,142.801983 100.867757,143.301978 101.813216,144.301983 C102.758676,145.301988 103.231398,146.66561 103.231398,148.392892 L103.231398,159.438346 L100.504125,159.438346 L100.504125,148.938346 C100.504125,147.792886 100.226856,146.915622 99.6723073,146.306528 C99.1177591,145.697434 98.3223125,145.392892 97.2859437,145.392892 C96.4677577,145.392892 95.6359479,145.638344 94.7904891,146.129255 C93.9450303,146.620167 93.1223113,147.329251 92.3223073,148.256528 L92.3223073,159.438346 L89.5950346,159.438346 Z M114.472307,159.711073 C113.090482,159.711073 111.754132,159.50653 110.463216,159.097437 C109.172301,158.688344 107.981404,158.056532 106.890489,157.201983 L108.117762,155.047437 C109.008675,155.774713 110.00412,156.324708 111.104125,156.697437 C112.204131,157.070166 113.326847,157.256528 114.472307,157.256528 C115.417767,157.256528 116.322303,157.111075 117.185944,156.820164 C118.049584,156.529254 118.481398,155.911078 118.481398,154.965619 C118.481398,154.183797 118.126856,153.629257 117.417762,153.301983 C116.708667,152.974708 115.40868,152.692893 113.517762,152.456528 C111.517752,152.220163 110.004131,151.751986 108.976853,151.051983 C107.949575,150.351979 107.435944,149.247445 107.435944,147.738346 C107.435944,146.101974 108.054119,144.870168 109.290489,144.042892 C110.526859,143.215615 111.963208,142.801983 113.59958,142.801983 C114.890489,142.801983 116.131392,143.020162 117.322307,143.456528 C118.513222,143.892894 119.617757,144.511069 120.635944,145.311073 L119.408671,147.465619 C118.572303,146.792888 117.663221,146.25653 116.681398,145.856528 C115.699575,145.456526 114.672313,145.256528 113.59958,145.256528 C112.726848,145.256528 111.931402,145.420163 111.213216,145.747437 C110.495031,146.074711 110.135944,146.674705 110.135944,147.547437 C110.135944,148.292895 110.467759,148.833799 111.131398,149.170164 C111.795038,149.50653 113.072298,149.79289 114.963216,150.029255 C117.035954,150.26562 118.590484,150.77016 119.626853,151.542892 C120.663222,152.315623 121.181398,153.392885 121.181398,154.77471 C121.181398,156.483809 120.490496,157.733797 119.108671,158.52471 C117.726846,159.315623 116.181407,159.711073 114.472307,159.711073 Z M138.967762,155.838346 C138.47685,157.201989 137.731403,158.188343 136.731398,158.797437 C135.731393,159.406531 134.195045,159.711073 132.122307,159.711073 C129.95866,159.711073 128.276859,159.188351 127.076853,158.142892 C125.876847,157.097432 125.276853,155.547447 125.276853,153.492892 L125.276853,149.101983 C125.276853,146.992881 125.908665,145.415624 127.172307,144.370164 C128.43595,143.324705 130.085933,142.801983 132.122307,142.801983 C134.176863,142.801983 135.822301,143.333795 137.058671,144.397437 C138.295041,145.461079 138.913216,147.092881 138.913216,149.292892 L138.913216,151.801983 L128.004125,151.801983 L128.004125,153.520164 C128.004125,154.883808 128.345031,155.870161 129.026853,156.479255 C129.708674,157.088349 130.731391,157.392892 132.095035,157.392892 C133.404132,157.392892 134.358668,157.211075 134.958671,156.847437 C135.558674,156.483799 136.013215,155.892896 136.322307,155.07471 L138.967762,155.838346 Z M128.004125,149.101983 L128.004125,149.756528 L136.185944,149.756528 L136.185944,149.347437 C136.185944,147.874702 135.845038,146.801986 135.163216,146.129255 C134.481395,145.456525 133.458678,145.120164 132.095035,145.120164 C130.731391,145.120164 129.708674,145.442888 129.026853,146.088346 C128.345031,146.733804 128.004125,147.738339 128.004125,149.101983 Z M144.481398,159.438346 L144.481398,143.07471 L147.208671,143.07471 L147.208671,145.801983 L148.026853,145.801983 C148.408673,144.765614 148.990485,144.00653 149.772307,143.52471 C150.554129,143.042889 151.499574,142.801983 152.608671,142.801983 C153.826859,142.801983 154.84503,143.206524 155.663216,144.015619 C156.481402,144.824714 156.890489,145.965612 156.890489,147.438346 L156.890489,149.892892 L154.29958,149.892892 L154.29958,148.420164 C154.29958,147.383796 154.067764,146.620167 153.604125,146.129255 C153.140487,145.638344 152.435948,145.392892 151.490489,145.392892 C150.635939,145.392892 149.858674,145.60198 149.158671,146.020164 C148.458667,146.438348 147.808674,147.092887 147.208671,147.983801 L147.208671,159.438346 L144.481398,159.438346 Z M167.995035,159.711073 C166.613209,159.711073 165.276859,159.50653 163.985944,159.097437 C162.695028,158.688344 161.504131,158.056532 160.413216,157.201983 L161.640489,155.047437 C162.531403,155.774713 163.526847,156.324708 164.626853,156.697437 C165.726858,157.070166 166.849574,157.256528 167.995035,157.256528 C168.940494,157.256528 169.84503,157.111075 170.708671,156.820164 C171.572312,156.529254 172.004125,155.911078 172.004125,154.965619 C172.004125,154.183797 171.649584,153.629257 170.940489,153.301983 C170.231395,152.974708 168.931408,152.692893 167.040489,152.456528 C165.040479,152.220163 163.526858,151.751986 162.49958,151.051983 C161.472302,150.351979 160.958671,149.247445 160.958671,147.738346 C160.958671,146.101974 161.576847,144.870168 162.813216,144.042892 C164.049586,143.215615 165.485935,142.801983 167.122307,142.801983 C168.413216,142.801983 169.65412,143.020162 170.845035,143.456528 C172.03595,143.892894 173.140484,144.511069 174.158671,145.311073 L172.931398,147.465619 C172.09503,146.792888 171.185949,146.25653 170.204125,145.856528 C169.222302,145.456526 168.19504,145.256528 167.122307,145.256528 C166.249576,145.256528 165.454129,145.420163 164.735944,145.747437 C164.017758,146.074711 163.658671,146.674705 163.658671,147.547437 C163.658671,148.292895 163.990486,148.833799 164.654125,149.170164 C165.317765,149.50653 166.595025,149.79289 168.485944,150.029255 C170.558681,150.26562 172.113211,150.77016 173.14958,151.542892 C174.185949,152.315623 174.704125,153.392885 174.704125,154.77471 C174.704125,156.483809 174.013223,157.733797 172.631398,158.52471 C171.249573,159.315623 169.704134,159.711073 167.995035,159.711073 Z" id="Dispensers" fill="#96A3B3" fill-rule="nonzero"></path>
            <path d="M546.086476,158.329255 C544.450104,158.329255 542.922847,158.065622 541.504658,157.538346 C540.086469,157.011071 538.813754,156.047444 537.686476,154.647437 L539.650112,152.792892 C540.413752,153.82926 541.32738,154.60198 542.391021,155.111073 C543.454663,155.620167 544.713741,155.87471 546.168294,155.87471 C547.513755,155.87471 548.600108,155.561077 549.427385,154.933801 C550.254662,154.306525 550.668294,153.456533 550.668294,152.383801 C550.668294,151.347432 550.313752,150.551985 549.604658,149.997437 C548.895563,149.442889 547.495577,148.856531 545.404658,148.238346 C542.750099,147.474706 540.941026,146.647442 539.977385,145.756528 C539.013744,144.865614 538.53193,143.601991 538.53193,141.965619 C538.53193,140.0747 539.163742,138.647442 540.427385,137.683801 C541.691028,136.72016 543.222831,136.238346 545.02284,136.238346 C546.55012,136.238346 548.000105,136.506525 549.37284,137.042892 C550.745574,137.579258 551.959198,138.529248 553.013749,139.892892 L551.13193,141.77471 C550.404654,140.738341 549.495572,139.965621 548.404658,139.456528 C547.313743,138.947435 546.204663,138.692892 545.077385,138.692892 C543.931925,138.692892 543.013752,138.924707 542.32284,139.388346 C541.631927,139.851985 541.286476,140.62925 541.286476,141.720164 C541.286476,142.683806 541.663745,143.442889 542.418294,143.997437 C543.172843,144.551985 544.659192,145.147434 546.877385,145.783801 C549.386488,146.511077 551.100108,147.306524 552.018294,148.170164 C552.93648,149.033805 553.395567,150.283793 553.395567,151.920164 C553.395567,154.011084 552.65012,155.601977 551.159203,156.692892 C549.668287,157.783806 547.977394,158.329255 546.086476,158.329255 Z M566.27284,158.411073 C564.472831,158.411073 563.072845,157.965623 562.07284,157.07471 C561.072835,156.183796 560.57284,154.820174 560.57284,152.983801 L560.57284,144.256528 L555.936476,144.256528 L555.936476,141.801983 L560.57284,141.801983 L560.57284,136.347437 L563.300112,136.347437 L563.300112,141.801983 L570.391021,141.801983 L570.391021,144.256528 L563.300112,144.256528 L563.300112,152.738346 C563.300112,153.792897 563.563746,154.574707 564.091021,155.083801 C564.618297,155.592894 565.400107,155.847437 566.436476,155.847437 C567.127388,155.847437 567.772837,155.797438 568.37284,155.697437 C568.972843,155.597437 569.545564,155.46562 570.091021,155.301983 L570.636476,157.783801 C570.018291,157.96562 569.359207,158.115618 568.659203,158.233801 C567.9592,158.351983 567.163753,158.411073 566.27284,158.411073 Z M581.413749,158.438346 C579.213738,158.438346 577.527391,157.906533 576.354658,156.842892 C575.181925,155.77925 574.595567,154.247447 574.595567,152.247437 L574.595567,147.829255 C574.595567,145.811063 575.18647,144.256533 576.368294,143.165619 C577.550118,142.074704 579.24101,141.529255 581.441021,141.529255 C583.62285,141.529255 585.300106,142.074704 586.47284,143.165619 C587.645573,144.256533 588.23193,145.811063 588.23193,147.829255 L588.23193,152.247437 C588.23193,154.247447 587.645573,155.77925 586.47284,156.842892 C585.300106,157.906533 583.61376,158.438346 581.413749,158.438346 Z M581.413749,155.983801 C582.795574,155.983801 583.822836,155.674713 584.495567,155.056528 C585.168297,154.438343 585.504658,153.501989 585.504658,152.247437 L585.504658,147.829255 C585.504658,146.520158 585.168297,145.551986 584.495567,144.92471 C583.822836,144.297434 582.795574,143.983801 581.413749,143.983801 C580.031924,143.983801 579.004661,144.297434 578.33193,144.92471 C577.6592,145.551986 577.32284,146.520158 577.32284,147.829255 L577.32284,152.247437 C577.32284,153.501989 577.6592,154.438343 578.33193,155.056528 C579.004661,155.674713 580.031924,155.983801 581.413749,155.983801 Z M599.636476,158.438346 C597.254646,158.438346 595.459209,157.915624 594.250112,156.870164 C593.041015,155.824705 592.436476,154.283811 592.436476,152.247437 L592.436476,147.829255 C592.436476,145.756518 593.041015,144.188351 594.250112,143.12471 C595.459209,142.061068 597.245555,141.529255 599.609203,141.529255 C601.718305,141.529255 603.341016,142.006523 604.477385,142.961073 C605.613754,143.915624 606.245566,145.311064 606.37284,147.147437 L603.700112,147.311073 C603.627385,146.183795 603.254661,145.34744 602.58193,144.801983 C601.9092,144.256525 600.90921,143.983801 599.58193,143.983801 C598.091014,143.983801 596.981934,144.297434 596.254658,144.92471 C595.527381,145.551986 595.163749,146.520158 595.163749,147.829255 L595.163749,152.247437 C595.163749,153.501989 595.531927,154.438343 596.268294,155.056528 C597.004661,155.674713 598.127377,155.983801 599.636476,155.983801 C600.945573,155.983801 601.936473,155.751985 602.609203,155.288346 C603.281934,154.824707 603.645567,154.12926 603.700112,153.201983 L606.37284,153.365619 C606.245566,155.038355 605.6183,156.301978 604.491021,157.156528 C603.363743,158.011078 601.745577,158.438346 599.636476,158.438346 Z M614.368294,150.720164 L614.368294,158.165619 L611.641021,158.165619 L611.641021,136.347437 L614.368294,136.347437 L614.368294,148.429255 L615.759203,148.429255 L620.995567,141.801983 L624.32284,141.801983 L617.913749,149.411073 L624.241021,158.165619 L621.13193,158.165619 L615.759203,150.720164 L614.368294,150.720164 Z M648.686476,147.311073 L654.141021,147.311073 C655.613756,147.311073 656.663745,147.042894 657.291021,146.506528 C657.918297,145.970162 658.23193,145.065625 658.23193,143.792892 L658.23193,142.101983 C658.23193,140.901977 657.918297,140.051985 657.291021,139.551983 C656.663745,139.05198 655.613756,138.801983 654.141021,138.801983 L648.686476,138.801983 L648.686476,147.311073 Z M648.686476,158.165619 L645.959203,158.165619 L645.959203,136.347437 L654.168294,136.347437 C656.441033,136.347437 658.141016,136.824705 659.268294,137.779255 C660.395572,138.733805 660.959203,140.1747 660.959203,142.101983 L660.959203,143.792892 C660.959203,145.538355 660.518298,146.901978 659.636476,147.883801 C658.754653,148.865624 657.413758,149.447436 655.613749,149.629255 L661.204658,158.165619 L658.095567,158.165619 L652.559203,149.711073 L648.686476,149.711073 L648.686476,158.165619 Z M677.491021,154.565619 C677.00011,155.929262 676.254663,156.915616 675.254658,157.52471 C674.254653,158.133804 672.718304,158.438346 670.645567,158.438346 C668.48192,158.438346 666.800118,157.915624 665.600112,156.870164 C664.400106,155.824705 663.800112,154.27472 663.800112,152.220164 L663.800112,147.829255 C663.800112,145.720154 664.431924,144.142897 665.695567,143.097437 C666.959209,142.051977 668.609193,141.529255 670.645567,141.529255 C672.700123,141.529255 674.345561,142.061068 675.58193,143.12471 C676.8183,144.188351 677.436476,145.820153 677.436476,148.020164 L677.436476,150.529255 L666.527385,150.529255 L666.527385,152.247437 C666.527385,153.61108 666.868291,154.597434 667.550112,155.206528 C668.231934,155.815622 669.254651,156.120164 670.618294,156.120164 C671.927392,156.120164 672.881927,155.938348 673.48193,155.57471 C674.081933,155.211072 674.536474,154.620168 674.845567,153.801983 L677.491021,154.565619 Z M666.527385,147.829255 L666.527385,148.483801 L674.709203,148.483801 L674.709203,148.07471 C674.709203,146.601975 674.368297,145.529259 673.686476,144.856528 C673.004654,144.183797 671.981937,143.847437 670.618294,143.847437 C669.254651,143.847437 668.231934,144.170161 667.550112,144.815619 C666.868291,145.461077 666.527385,146.465612 666.527385,147.829255 Z M685.73193,158.165619 L685.73193,144.256528 L681.095567,144.256528 L681.095567,141.801983 L685.73193,141.801983 L685.73193,140.711073 C685.73193,139.238339 686.309197,138.097441 687.463749,137.288346 C688.6183,136.479251 690.050104,136.07471 691.759203,136.07471 C692.595567,136.07471 693.345563,136.147436 694.009203,136.292892 C694.672843,136.438347 695.268291,136.601982 695.795567,136.783801 L695.250112,139.07471 C694.85011,138.947436 694.363751,138.82471 693.791021,138.706528 C693.218291,138.588346 692.541025,138.529255 691.759203,138.529255 C690.759198,138.529255 689.959206,138.697435 689.359203,139.033801 C688.7592,139.370166 688.459203,139.920161 688.459203,140.683801 L688.459203,141.801983 L695.277385,141.801983 L695.277385,144.256528 L688.459203,144.256528 L688.459203,158.165619 L685.73193,158.165619 Z M707.663749,155.711073 L713.663749,155.711073 L713.663749,158.165619 L704.936476,158.165619 L704.936476,144.256528 L698.936476,144.256528 L698.936476,141.801983 L707.663749,141.801983 L707.663749,155.711073 Z M706.300112,138.829255 C705.6092,138.829255 705.050114,138.720165 704.62284,138.501983 C704.195565,138.2838 703.98193,137.874713 703.98193,137.27471 L703.98193,137.083801 C703.98193,136.465616 704.195565,136.042893 704.62284,135.815619 C705.050114,135.588345 705.6092,135.47471 706.300112,135.47471 C706.991025,135.47471 707.55011,135.588345 707.977385,135.815619 C708.40466,136.042893 708.618294,136.465616 708.618294,137.083801 L708.618294,137.27471 C708.618294,137.874713 708.400114,138.2838 707.963749,138.501983 C707.527383,138.720165 706.972843,138.829255 706.300112,138.829255 Z M728.12284,158.301983 C726.450104,158.301983 725.141026,157.820169 724.195567,156.856528 C723.250108,155.892887 722.777385,154.565627 722.777385,152.87471 L722.777385,138.801983 L716.777385,138.801983 L716.777385,136.347437 L725.504658,136.347437 L725.504658,152.901983 C725.504658,153.865624 725.727383,154.592889 726.17284,155.083801 C726.618296,155.574712 727.295562,155.820164 728.204658,155.820164 C728.60466,155.820164 729.072837,155.770165 729.609203,155.670164 C730.145569,155.570164 730.586474,155.447438 730.93193,155.301983 L731.477385,157.67471 C731.041019,157.856529 730.531933,158.006527 729.950112,158.12471 C729.368291,158.242892 728.759206,158.301983 728.12284,158.301983 Z M745.963749,158.301983 C744.291013,158.301983 742.981935,157.820169 742.036476,156.856528 C741.091017,155.892887 740.618294,154.565627 740.618294,152.87471 L740.618294,138.801983 L734.618294,138.801983 L734.618294,136.347437 L743.345567,136.347437 L743.345567,152.901983 C743.345567,153.865624 743.568292,154.592889 744.013749,155.083801 C744.459205,155.574712 745.136471,155.820164 746.045567,155.820164 C746.445569,155.820164 746.913746,155.770165 747.450112,155.670164 C747.986479,155.570164 748.427383,155.447438 748.77284,155.301983 L749.318294,157.67471 C748.881928,157.856529 748.372842,158.006527 747.791021,158.12471 C747.2092,158.242892 746.600115,158.301983 745.963749,158.301983 Z" id="Stock-Refill" fill="#96A3B3" fill-rule="nonzero"></path>
            <circle id="Oval" stroke="#2A333E" stroke-width="5" cx="604" cy="93" r="13.8632812"></circle>
            <circle id="Oval-Copy-2" stroke="#2A333E" stroke-width="5" cx="693.813719" cy="93" r="13.8632812"></circle>
            <circle id="Oval-Copy-2" stroke="#2A333E" stroke-width="5" cx="693.813719" cy="93" r="5.2479256"></circle>
            <circle id="Oval-Copy-3" stroke="#2A333E" stroke-width="5" cx="604" cy="93" r="5.2479256"></circle>
            <polygon id="Path" fill="#2A333E" fill-rule="nonzero" points="676.170129 32 686.883834 32 711.074501 58.8913486 676.170129 58.8913486"></polygon>
            <path d="M617.863281,82 L669.279091,82" id="Line-2" stroke="#2A333E" stroke-width="3" stroke-linecap="square"></path>
            <path d="M578.292095,82 L590.136719,82" id="Line-2-Copy" stroke="#2A333E" stroke-width="3" stroke-linecap="square"></path>
        </g>
    </g>
</svg>