<?xml version="1.0" encoding="utf-8"?>
<!-- Generator: Adobe Illustrator 18.0.0, SVG Export Plug-In . SVG Version: 6.00 Build 0)  -->
<!DOCTYPE svg PUBLIC "-//W3C//DTD SVG 1.1//EN" "http://www.w3.org/Graphics/SVG/1.1/DTD/svg11.dtd">
<svg version="1.1" id="Layer_1" xmlns="http://www.w3.org/2000/svg" xmlns:xlink="http://www.w3.org/1999/xlink" x="0px" y="0px"
	 viewBox="0 0 300 96.7" enable-background="new 0 0 300 96.7" xml:space="preserve">
<g>
	<g>
		<linearGradient id="SVGID_1_" gradientUnits="userSpaceOnUse" x1="31.3358" y1="-37.5172" x2="96.4498" y2="162.8831">
			<stop  offset="0.3552" style="stop-color:#58BE8A"/>
			<stop  offset="0.7253" style="stop-color:#498DCB"/>
		</linearGradient>
		<polygon fill="url(#SVGID_1_)" points="48.7,11.6 66.5,21.8 66.5,21.8 76.5,16 48.7,0 21,16 31,21.8 		"/>
		<linearGradient id="SVGID_2_" gradientUnits="userSpaceOnUse" x1="-10.0798" y1="-39.4562" x2="51.1831" y2="149.0915">
			<stop  offset="0.3552" style="stop-color:#58BE8A"/>
			<stop  offset="0.7253" style="stop-color:#498DCB"/>
		</linearGradient>
		<polygon fill="url(#SVGID_2_)" points="20.9,39.1 10.9,33.4 10.9,65.6 38.7,81.7 38.7,70.1 20.9,59.8 		"/>
		<linearGradient id="SVGID_3_" gradientUnits="userSpaceOnUse" x1="50.5671" y1="-10.5517" x2="92.9384" y2="119.854">
			<stop  offset="0.3552" style="stop-color:#58BE8A"/>
			<stop  offset="0.7253" style="stop-color:#498DCB"/>
		</linearGradient>
		<polygon fill="url(#SVGID_3_)" points="76.6,59.8 58.8,70.1 58.8,81.7 86.6,65.6 86.6,33.4 76.6,39.1 		"/>
		<linearGradient id="SVGID_4_" gradientUnits="userSpaceOnUse" x1="26.4849" y1="-46.7352" x2="86.284" y2="137.3074">
			<stop  offset="0.3552" style="stop-color:#58BE8A"/>
			<stop  offset="0.7253" style="stop-color:#498DCB"/>
		</linearGradient>
		<path fill="url(#SVGID_4_)" d="M95.2,18.3C95.2,18.3,95.2,18.2,95.2,18.3c-0.2-0.4-0.3-0.8-0.6-1.1c-0.2-0.4-0.4-0.7-0.7-1
			c0,0,0,0,0,0c-0.8-1.1-1.9-2-3.1-2.5c-2.7-1.4-6-1.4-8.8,0.2c-1.5,0.9-2.7,2.1-3.5,3.5c-0.7,1.2-1.1,2.6-1.2,4l-5.9,3.4v0
			l-12.8,7.4l-5,2.9h0l-5,2.9l-5-2.9v0v0c0,0,0,0,0,0l-5-2.9L26,24.7v0L20,21.3c-0.1-1.4-0.5-2.8-1.2-4c-0.8-1.4-1.9-2.6-3.5-3.5
			c-2.8-1.6-6.1-1.6-8.8-0.2c-1.2,0.6-2.3,1.5-3.1,2.6c-0.2,0.3-0.5,0.7-0.7,1c-0.2,0.4-0.4,0.7-0.6,1.1c0,0,0,0,0,0
			c-0.5,1.3-0.7,2.6-0.7,3.9c0,0,0,0,0,0c0.1,3,1.8,5.9,4.6,7.6c1.5,0.9,3.1,1.3,4.7,1.2c1.4,0,2.9-0.4,4.2-1h0l5.9,3.4l12.8,7.4
			l5,2.9l5,2.9v5.8v0v5.8V73v6.7c-1.2,0.8-2.3,1.9-3,3.2c-0.8,1.4-1.2,2.9-1.2,4.6c0,3.3,1.7,6.1,4.2,7.8c1.1,0.7,2.4,1.2,3.8,1.4
			c0.4,0.1,0.8,0.1,1.2,0.1c0.4,0,0.8,0,1.2-0.1c1.4-0.2,2.7-0.7,3.8-1.4c2.6-1.6,4.2-4.5,4.2-7.8c0-1.7-0.4-3.3-1.2-4.6
			c-0.7-1.3-1.8-2.4-3-3.2V73V58.1v-5.8v-5.8l5-2.9l5-2.9l12.8-7.4l5.9-3.4h0c1.3,0.7,2.7,1,4.2,1c1.6,0,3.2-0.4,4.7-1.2
			c2.8-1.6,4.5-4.5,4.6-7.6c0,0,0,0,0,0C96,20.9,95.8,19.5,95.2,18.3z"/>
	</g>
	<g>
		<path fill="#FFFFFF" d="M147.1,56.7l-0.1,5.2h-29.2V23.4H146l0.1,5.2h-22.4v11h19.2v4.6h-19.2v12.5H147.1z"/>
		<path fill="#FFFFFF" d="M162.9,23.4l13.3,27.5l1.7,3.7h0.2l1.7-3.7l13.4-27.5h6.7v38.5h-5.4V36.3l0.1-4.2l-0.2-0.1l-1.7,3.8
			L180,61.9h-4.2L163.2,36l-1.7-3.8l-0.1,0.1l0.1,4.2v25.4h-5.3V23.4H162.9z"/>
		<path fill="#FFFFFF" d="M233,45.1l11.8,16.8h-7.2l-10.1-15.7h-9.7v15.7h-6V23.4h15.9c9.5,0,14.1,3.9,14.1,11.2
			C241.8,40.4,238.7,44.2,233,45.1z M227.7,28.3h-9.8v13.4h9.5c5.8,0,8.3-2.1,8.3-6.9C235.7,30.3,233.3,28.3,227.7,28.3z"/>
		<path fill="#FFFFFF" d="M252.9,23.4h6.1v38.5h-6.1V23.4z"/>
		<path fill="#FFFFFF" d="M286.4,28.8v33.1h-6V28.8h-13.6l0.2-5.4h32.9l0.1,5.4H286.4z"/>
	</g>
</g>
</svg>
