<?xml version="1.0" encoding="utf-8"?>
<!-- Generator: Adobe Illustrator 23.0.3, SVG Export Plug-In . SVG Version: 6.00 Build 0)  -->
<svg version="1.1" id="Layer_1" xmlns="http://www.w3.org/2000/svg" xmlns:xlink="http://www.w3.org/1999/xlink" x="0px" y="0px"
	 viewBox="0 0 300 96.7" style="enable-background:new 0 0 300 96.7;" xml:space="preserve">
<style type="text/css">
	.st0{fill:#FFFFFF;}
</style>
<g>
	<polygon class="st0" points="150.1,11.6 167.9,21.8 167.9,21.8 177.9,16 150.1,0 122.4,16 132.4,21.8 	"/>
	<polygon class="st0" points="122.3,39.1 112.3,33.4 112.3,65.6 140.1,81.7 140.1,70.1 122.3,59.8 	"/>
	<polygon class="st0" points="178,59.8 160.2,70.1 160.2,81.7 188,65.6 188,33.4 178,39.1 	"/>
	<path class="st0" d="M196.6,18.3C196.6,18.3,196.6,18.2,196.6,18.3c-0.2-0.4-0.3-0.8-0.6-1.1c-0.2-0.4-0.4-0.7-0.7-1l0,0
		c-0.8-1.1-1.9-2-3.1-2.5c-2.7-1.4-6-1.4-8.8,0.2c-1.5,0.9-2.7,2.1-3.5,3.5c-0.7,1.2-1.1,2.6-1.2,4l-5.9,3.4l0,0L160,32.2l-5,2.9
		l0,0l-5,2.9l-5-2.9l0,0l0,0l0,0l-5-2.9l-12.6-7.5l0,0l-6-3.4c-0.1-1.4-0.5-2.8-1.2-4c-0.8-1.4-1.9-2.6-3.5-3.5
		c-2.8-1.6-6.1-1.6-8.8-0.2c-1.2,0.6-2.3,1.5-3.1,2.6c-0.2,0.3-0.5,0.7-0.7,1c-0.2,0.4-0.4,0.7-0.6,1.1l0,0
		c-0.5,1.3-0.7,2.6-0.7,3.9l0,0c0.1,3,1.8,5.9,4.6,7.6c1.5,0.9,3.1,1.3,4.7,1.2c1.4,0,2.9-0.4,4.2-1l0,0l5.9,3.4l12.8,7.4l5,2.9
		l5,2.9v5.8l0,0v5.8V73v6.7c-1.2,0.8-2.3,1.9-3,3.2c-0.8,1.4-1.2,2.9-1.2,4.6c0,3.3,1.7,6.1,4.2,7.8c1.1,0.7,2.4,1.2,3.8,1.4
		c0.4,0.1,0.8,0.1,1.2,0.1c0.4,0,0.8,0,1.2-0.1c1.4-0.2,2.7-0.7,3.8-1.4c2.6-1.6,4.2-4.5,4.2-7.8c0-1.7-0.4-3.3-1.2-4.6
		c-0.7-1.3-1.8-2.4-3-3.2V73V58.1v-5.8v-5.8l5-2.9l5-2.9l12.8-7.4l5.9-3.4l0,0c1.3,0.7,2.7,1,4.2,1c1.6,0,3.2-0.4,4.7-1.2
		c2.8-1.6,4.5-4.5,4.6-7.6l0,0C197.4,20.9,197.2,19.5,196.6,18.3z"/>
</g>
</svg>
