<?xml version="1.0" encoding="utf-8"?>
<!-- Generator: Adobe Illustrator 23.0.3, SVG Export Plug-In . SVG Version: 6.00 Build 0)  -->
<svg version="1.1" id="Layer_1" xmlns="http://www.w3.org/2000/svg" xmlns:xlink="http://www.w3.org/1999/xlink" x="0px" y="0px"
	 viewBox="0 0 165.3 118.3" style="enable-background:new 0 0 165.3 118.3;" xml:space="preserve">
<style type="text/css">
	.st0{fill:#1A1A1A;}
</style>
<g>
	<g>
		<path class="st0" d="M-142.7,115.1h-49.1l-0.3-2c-1-6.8-6.9-12-13.8-12c-6.9,0-12.9,5.1-13.8,12l-0.3,2h-13.7V49.9h91V115.1z
			 M-187.9,110.4h40.5V54.5H-229v55.9h5c2.1-8.1,9.5-14,18-14S-190,102.3-187.9,110.4z"/>
	</g>
	<g>
		<path class="st0" d="M-97.2,115.1h-10.9l-0.3-2c-1-6.8-6.9-12-13.8-12c-6.9,0-12.9,5.1-13.8,12l-0.3,2h-10.9V49.9h23.3l26.7,30.7
			V115.1z M-104.2,110.4h2.3V82.3L-126,54.5h-16.6v55.9h2.3c2.1-8.1,9.5-14,18-14S-106.3,102.3-104.2,110.4z"/>
	</g>
	<g id="Oval">
		<path class="st0" d="M-205.9,130.3c-8.4,0-15.2-6.8-15.2-15.2s6.8-15.2,15.2-15.2c8.4,0,15.2,6.8,15.2,15.2
			S-197.5,130.3-205.9,130.3z M-205.9,104.5c-5.8,0-10.6,4.7-10.6,10.6s4.7,10.6,10.6,10.6c5.9,0,10.6-4.7,10.6-10.6
			S-200.1,104.5-205.9,104.5z"/>
	</g>
	<g id="Oval-Copy-2">
		<path class="st0" d="M-122.3,130.3c-8.4,0-15.2-6.8-15.2-15.2s6.8-15.2,15.2-15.2s15.2,6.8,15.2,15.2S-113.8,130.3-122.3,130.3z
			 M-122.3,104.5c-5.8,0-10.6,4.7-10.6,10.6s4.7,10.6,10.6,10.6c5.9,0,10.6-4.7,10.6-10.6S-116.4,104.5-122.3,104.5z"/>
	</g>
	<g>
		<path class="st0" d="M-122.3,122.3c-4,0-7.2-3.2-7.2-7.2s3.2-7.2,7.2-7.2c4,0,7.2,3.2,7.2,7.2S-118.3,122.3-122.3,122.3z
			 M-122.3,112.5c-1.4,0-2.6,1.1-2.6,2.6s1.1,2.6,2.6,2.6c1.5,0,2.6-1.1,2.6-2.6S-120.8,112.5-122.3,112.5z"/>
	</g>
	<g id="Oval-Copy-3">
		<path class="st0" d="M-205.9,122.3c-4,0-7.2-3.2-7.2-7.2s3.2-7.2,7.2-7.2s7.2,3.2,7.2,7.2S-202,122.3-205.9,122.3z M-205.9,112.5
			c-1.4,0-2.6,1.1-2.6,2.6s1.1,2.6,2.6,2.6c1.4,0,2.6-1.1,2.6-2.6S-204.5,112.5-205.9,112.5z"/>
	</g>
	<g id="Path">
		<polygon class="st0" points="-138.7,58.3 -128.7,58.3 -106.2,83.3 -138.7,83.3 		"/>
	</g>
	<g id="Line-2">
		<rect x="-194.4" y="103.5" class="st0" width="50.7" height="2.8"/>
	</g>
	<g id="Line-2-Copy">
		<rect x="-231.3" y="103.5" class="st0" width="13.8" height="2.8"/>
	</g>
</g>
<g>
	<path d="M-14.3,21.2c0.1-5.6-2.6-10.5-6.7-13.7c-0.6-0.5-1.5,0-1.5,0.7v11.8l-8.8,5.4l-8.8-5.4V8.3c0-0.8-0.9-1.2-1.5-0.7
		c-4,3.1-6.6,7.8-6.7,13.2c-0.1,7,4.1,13.1,10.2,15.8v47.9C-44,87-48.1,92.9-48.2,99.7c-0.1,5.6,2.6,10.5,6.7,13.7
		c0.6,0.5,1.5,0,1.5-0.7v-11.8l8.8-5.4l8.8,5.4v11.8c0,0.8,0.9,1.2,1.5,0.7c4-3.1,6.6-7.8,6.7-13.2c0.1-7-4.1-13.1-10.2-15.8V36.5
		C-18.6,34-14.4,28.1-14.3,21.2z"/>
	<path d="M-58.5,56.5h-5.3V25l2.3-3.7l-2.8-14h-5.6l-2.8,14l2.3,3.7v31.5h-5.3c-0.7,0-1.3,0.7-1.3,1.5v2.5c0,0.8,0.6,1.5,1.3,1.5
		h0.3c-1,1.7-1.6,3.8-1.6,6v35.4c0,6,4.3,10.9,9.5,10.9h0.7c5.3,0,9.5-4.9,9.5-10.9V68c0-2.2-0.6-4.3-1.6-6h0.3
		c0.7,0,1.3-0.7,1.3-1.5V58C-57.2,57.2-57.8,56.5-58.5,56.5z M-72.3,107h-2.1V68h2.1V107z M-66.1,107h-2.1V68h2.1V107z M-59.9,107
		h-2.1V68h2.1V107z"/>
</g>
<g>
	<path d="M346.1,82.8c-1.9,2.6-5,4.9-8.9,6.6c-4.6,5.3-14.6,9-26.1,9c-1.8,0-3.6-0.1-5.3-0.3c4,1.1,8.6,1.8,13.4,1.8
		c14.7,0,26.7-5.9,28.6-13.6c0.2-0.7,0.3-1.3,0.3-2c0-1.2-0.3-2.4-0.8-3.6C347,81.4,346.6,82.1,346.1,82.8z"/>
	<path d="M290.8,70.3c0.1,0.4,0.3,0.8,0.4,1.1c0.2,0.3,0.3,0.6,0.5,0.9c0.8,1.3,1.8,2.5,3.1,3.6c0.9,0.7,1.8,1.4,2.9,2
		c5.3,3.2,12.9,5.2,21.4,5.2c7.7,0,14.6-1.6,19.8-4.3c0.3-0.2,0.6-0.3,0.9-0.5c0.3-0.1,0.5-0.3,0.8-0.4c1.1-0.6,2-1.3,2.9-2
		c1.3-1.1,2.4-2.3,3.1-3.6c0.4-0.7,0.7-1.3,0.9-2c0.1-0.3,0.2-0.5,0.2-0.8c0.2-0.7,0.3-1.3,0.3-2c0-8.6-12.9-15.6-28.8-15.6
		c-15.9,0-28.8,7-28.8,15.6c0,0.1,0,0.2,0,0.3c-5,2.8-8.2,6.6-8.2,10.9c0,0.7,0.1,1.4,0.3,2c0.8,3.4,3.7,6.5,8,8.9
		c0.8,0.5,1.7,0.9,2.6,1.3c4.9,2.1,11.2,3.4,18,3.4c4.8,0,9.4-0.6,13.4-1.8c-1.7,0.2-3.5,0.3-5.3,0.3c-12.3,0-22.8-4.2-26.9-10
		c-0.5-0.7-0.9-1.3-1.2-2c-0.5-1.1-0.8-2.3-0.8-3.6c0-0.7,0.1-1.4,0.3-2c0.3,1.2,0.9,2.4,1.7,3.6c0.5,0.7,1.1,1.4,1.8,2
		c4.9,4.8,14.4,8,25.2,8c6.8,0,13.1-1.3,18-3.4c0.9-0.4,1.8-0.8,2.6-1.3c1.8-1,3.3-2.1,4.6-3.3c0.7-0.7,1.3-1.3,1.8-2
		c0.8-1.1,1.4-2.3,1.7-3.6c0.2-0.7,0.3-1.3,0.3-2c0-0.3,0-0.5,0-0.8c-0.1,0.7-0.2,1.4-0.4,2c-0.4,1.2-1.1,2.4-2,3.6
		c-0.6,0.7-1.3,1.4-2,2c-1.1,0.9-2.3,1.7-3.6,2.5c-0.4,0.2-0.7,0.4-1.1,0.6c-5.1,2.6-12,4.1-19.6,4.1c-10.2,0-19.2-2.9-24.3-7.2
		c-0.8-0.6-1.4-1.3-2-2c-0.9-1.1-1.6-2.3-2-3.6c-0.2-0.7-0.4-1.3-0.4-2c0-0.2,0-0.3,0.1-0.5c0,0-0.1,0-0.1,0c0-0.1,0-0.2,0-0.3
		c0-0.7,0.1-1.4,0.3-2C290.7,69.8,290.8,70,290.8,70.3z M302,65.4h2.2c0.1-0.6,0.3-1.2,0.6-1.7c0-0.1,0.1-0.1,0.1-0.2
		c1.1-2,3.2-3.4,6.2-3.8l0.7,2.4l0.3,1l0.3,1.2c0,0-1.7,0.2-2.6,1.2l5.6,0c0.3-0.7,0.7-1.4,1.1-2.1c0.4-0.6,0.9-1.2,1.5-1.8
		c0.4-0.4,0.9-0.8,1.4-1.1c3.7-2.3,10.1-1.3,12.7,1.1c0.5,0.5,1,1.2,1.3,2c0.2,0.6,0.4,1.2,0.5,1.8h2.4v2.3h-2.3
		c-0.1,0.5-0.2,0.9-0.3,1.4c-0.2,0.5-0.4,1-0.8,1.5c-0.3,0.5-0.8,0.9-1.3,1.3c-0.9,0.7-2.2,1.3-3.8,1.6c-0.7,0.2-1.5,0.3-2.4,0.3
		l-0.1-0.7l-0.8-4c0,0,0.2,0,0.4,0c0.1,0,0.2,0,0.4,0c0.9-0.1,2.5-0.4,3.2-1.4h-6.9c-0.1,0.2-0.2,0.4-0.2,0.5
		c-0.1,0.2-0.2,0.3-0.3,0.5c-0.9,1.8-2.3,3.4-5.2,4.1c-1,0.2-2.2,0.4-3.6,0.3h0c-3.5-0.1-5.7-1.1-6.9-2.6c-0.7-0.9-1.2-1.9-1.3-2.9
		h-0.5H302V65.4z"/>
	<path d="M325.4,63.7c-0.8,0.1-1.4,0.4-1.9,0.9c-0.2,0.2-0.4,0.5-0.6,0.8h3.4h2.6C328.3,64,326.7,63.5,325.4,63.7z"/>
	<path d="M314,67.9c0.1-0.1,0.2-0.2,0.2-0.3h-4.5C310.5,69,312.8,69.2,314,67.9z"/>
	<path d="M292.6,46.5c-1.9,2.6-5,4.9-8.9,6.6c-4.6,5.3-14.6,9-26.1,9c-1.8,0-3.6-0.1-5.3-0.3c4,1.1,8.6,1.8,13.4,1.8
		c14.7,0,26.7-5.9,28.6-13.6c0.2-0.7,0.3-1.3,0.3-2c0-1.2-0.3-2.4-0.8-3.6C293.5,45.2,293.1,45.9,292.6,46.5z"/>
	<path d="M237.3,34.1c0.1,0.4,0.3,0.8,0.4,1.1c0.1,0.3,0.3,0.6,0.5,0.9c0.8,1.3,1.8,2.5,3.1,3.6c0.8,0.7,1.8,1.4,2.9,2
		c5.3,3.2,12.9,5.2,21.4,5.2c7.7,0,14.6-1.6,19.8-4.3c0.3-0.2,0.6-0.3,0.9-0.5c0.3-0.1,0.5-0.3,0.8-0.4c1-0.6,2-1.3,2.9-2
		c1.3-1.1,2.4-2.3,3.1-3.6c0.4-0.7,0.7-1.3,0.9-2c0.1-0.3,0.2-0.5,0.2-0.8c0.2-0.7,0.3-1.3,0.3-2c0-8.6-12.9-15.6-28.8-15.6
		c-15.9,0-28.8,7-28.8,15.6c0,0.1,0,0.2,0,0.3c-5,2.8-8.2,6.6-8.2,10.9c0,0.7,0.1,1.4,0.3,2c0.8,3.4,3.7,6.5,8,8.9
		c0.8,0.5,1.7,0.9,2.6,1.3c4.9,2.1,11.2,3.4,18,3.4c4.8,0,9.4-0.6,13.4-1.8c-1.7,0.2-3.5,0.3-5.3,0.3c-12.3,0-22.8-4.2-26.9-10
		c-0.5-0.7-0.9-1.3-1.2-2c-0.5-1.1-0.8-2.3-0.8-3.6c0-0.7,0.1-1.4,0.3-2c0.3,1.2,0.9,2.4,1.7,3.6c0.5,0.7,1.1,1.4,1.8,2
		c4.9,4.8,14.4,8,25.2,8c6.8,0,13.1-1.3,18-3.4c0.9-0.4,1.8-0.8,2.6-1.3c1.8-1,3.3-2.1,4.6-3.3c0.7-0.7,1.3-1.3,1.8-2
		c0.8-1.1,1.4-2.3,1.7-3.6c0.2-0.7,0.3-1.3,0.3-2c0-0.3,0-0.5,0-0.8c-0.1,0.7-0.2,1.4-0.4,2c-0.4,1.2-1.1,2.4-2,3.6
		c-0.6,0.7-1.3,1.4-2,2c-1.1,0.9-2.3,1.7-3.6,2.5c-0.4,0.2-0.7,0.4-1.1,0.6c-5.1,2.6-12,4.1-19.6,4.1c-10.2,0-19.2-2.9-24.3-7.2
		c-0.8-0.6-1.4-1.3-2-2c-0.9-1.1-1.6-2.3-2-3.6c-0.2-0.7-0.4-1.3-0.4-2c0-0.2,0-0.3,0.1-0.5c0,0-0.1,0-0.1,0c0-0.1,0-0.2,0-0.3
		c0-0.7,0.1-1.4,0.3-2C237.2,33.6,237.2,33.8,237.3,34.1z M248.5,29.2h2.2c0.1-0.6,0.3-1.2,0.6-1.7c0-0.1,0.1-0.1,0.1-0.2
		c1.1-2,3.2-3.4,6.2-3.8l0.7,2.4l0.3,1l0.3,1.2c0,0-1.7,0.2-2.6,1.2l5.6,0c0.3-0.7,0.7-1.4,1.1-2.1c0.4-0.6,0.9-1.2,1.5-1.8
		c0.4-0.4,0.9-0.8,1.4-1.1c3.7-2.3,10.1-1.3,12.8,1.1c0.5,0.5,1,1.2,1.3,2c0.2,0.6,0.4,1.2,0.5,1.8h2.4v2.3h-2.3
		c-0.1,0.5-0.2,0.9-0.3,1.4c-0.2,0.5-0.4,1-0.8,1.5c-0.3,0.5-0.8,0.9-1.3,1.3c-0.9,0.7-2.2,1.3-3.8,1.6c-0.7,0.2-1.5,0.3-2.4,0.3
		l-0.1-0.7l-0.8-4c0,0,0.2,0,0.4,0c0.1,0,0.2,0,0.4,0c0.9-0.1,2.5-0.4,3.2-1.4h-6.9c-0.1,0.2-0.2,0.4-0.2,0.5
		c-0.1,0.2-0.2,0.4-0.3,0.5c-0.9,1.8-2.3,3.4-5.2,4.1c-1,0.2-2.2,0.4-3.6,0.3h0c-3.5-0.1-5.7-1.1-6.9-2.6c-0.7-0.9-1.2-1.9-1.3-2.9
		h-0.5h-1.7V29.2z"/>
	<path d="M271.8,27.5c-0.8,0.1-1.4,0.4-1.9,0.9c-0.2,0.2-0.4,0.5-0.6,0.8h3.4h2.6C274.8,27.8,273.2,27.3,271.8,27.5z"/>
	<path d="M260.5,31.7c0.1-0.1,0.2-0.2,0.2-0.3h-4.5C257,32.8,259.3,32.9,260.5,31.7z"/>
</g>
<g>
	<path d="M-287.3,32.9C-287.4,32.9-287.4,32.9-287.3,32.9L-287.3,32.9c-2.4,0.2-8.7,1.9-16.4,4.9c-7.8,3-15.4,4.1-21.8,5.7
		c-6.3,1.6-5.2,9.2-5.2,9.2s2.4,30.7,3.3,35.7c4.6,24.2,39.5,43.6,39.5,43.6h0c0,0,35.5-18.8,40.3-43.4c1-5.2,3.5-36.6,3.5-36.6
		s1.2-7.8-5.4-9.3c-6.6-1.5-14.5-2.5-22.4-5.3C-279.7,34.6-284.9,33-287.3,32.9L-287.3,32.9C-287.3,32.9-287.3,32.9-287.3,32.9z
		 M-274.8,44.1c6.1,2.2,12,3.3,17.2,4.4c0,0,4.7,1.1,5.5,1.3c0,0,0.2,0,0.1,1.3c0,0.2,0,0.2-0.1,0.5c-0.9,12-2.7,32.3-3.4,35.8
		c-2.1,10.6-11.6,20.4-19.3,26.7c-5.1,4.2-10,7.5-13.3,9.5c-3.2-2-8-5.3-12.9-9.5c-7.6-6.4-17-16.2-19-26.7
		c-0.7-3.4-2.3-23.3-3.3-35.1c0-0.2,0-0.3,0-0.5c0-0.4,0-1,0.1-1.4c1.7-0.4,3.5-0.8,5.4-1.2c5.1-1.1,10.8-2.3,16.8-4.6
		c6.7-2.6,11.5-3.9,13.5-4.3C-286.1,40.4-282.8,41.2-274.8,44.1z"/>
	<path d="M-287.5,42.8C-287.5,42.8-287.5,42.8-287.5,42.8L-287.5,42.8c-1.8,0.2-6.4,1.5-12.1,3.8c-5.8,2.3-11.4,3.2-16.2,4.5
		c-4.7,1.3-3.8,7.2-3.8,7.2s1.8,24.1,2.5,28.1c3.4,19,29.3,34.1,29.3,34.1h0c0,0,26.2-14.8,29.7-34.1c0.7-4,2.6-28.6,2.6-28.6
		s0.9-6.1-4-7.3c-4.9-1.2-10.7-2-16.5-4.2C-281.8,44.2-285.7,43-287.5,42.8L-287.5,42.8C-287.4,42.8-287.5,42.8-287.5,42.8z"/>
</g>
<g>
	<path d="M-346.8,29.6c-5.3,3-9.2,4.9-12.2,4.4c3.3-1.4,9-4.4,12-11.4c0.2-0.5-1.4-1.3-1.9-1.5c-0.5-0.2-1.2,0-1.4,0.6
		c-2.3,5.4-5.5,8.3-8.1,9.8c3.1-5.7,4.9-13.5,4.9-19.4H-377h-24.5c0,7.6,3.1,18.5,7.9,23.6h32.2c0,0,0,0,0,0
		c1.3,0.4,2.9,0.7,4.8,0.7c3.1,0,6.9-0.8,11.3-3.3c0.5-0.3,0.1-2.5-0.2-3C-345.7,29.5-346.3,29.3-346.8,29.6z"/>
	<path d="M-361.1,38h-0.2h-32.5h-0.2c-16.5,6.6-28.2,22.7-28.2,41.5c0,24.7,20,26.8,44.7,26.8c24.7,0,44.7-2.1,44.7-26.8
		C-332.9,60.7-344.5,44.6-361.1,38z M-365.3,78.5c-0.5,5.4-5.1,8.7-9.2,9l0,5.7h-5.5V88c0,0-6.3-0.3-9.8-2.5l2.1-6.4
		c0,0,2.5,1.3,5.4,1.9c2.9,0.6,7.9,0.4,8.5-2.3c0.6-2.6-1.1-3.7-4.7-4.7c-3.6-1-9.8-3.9-10.3-8.7c-0.6-5.2,1.8-9.3,8.8-10.8V49h5.5
		v4.8c0,0,5.7,0.4,7.8,1.8l-1.3,5.9c0,0-5.3-1.8-9-1.5c-3.6,0.3-3.9,4-1.3,5.6c3.1,2,7.6,3.4,9,4.1
		C-367.9,70.5-364.8,73.1-365.3,78.5z"/>
</g>
<path d="M-471.6,83.7c26.4-1.2,47.3-16.5,47.3-35.3c0-19.5-22.6-35.3-50.6-35.3c-27.9,0-50.6,15.8-50.6,35.3
	c0,14.8,13.1,27.5,31.6,32.8l-8.3,22.3L-471.6,83.7z M-505.9,37h62.5v2.9h-62.5V37z M-505.9,47.9h62.5v2.9h-62.5V47.9z M-505.9,61.8
	v-2.9h33.5v2.9H-505.9z"/>
<g>
	<g>
		<g>
			<path d="M209.6-126.3c-0.2,0-0.4,0-0.6-0.2c-3.8-2.2-8.2-3.4-12.6-3.4s-8.8,1.2-12.6,3.4c-0.5,0.3-1.2,0.1-1.5-0.4
				c-0.3-0.5-0.1-1.2,0.4-1.5c4.2-2.4,8.9-3.7,13.7-3.7s9.6,1.3,13.7,3.7c0.5,0.3,0.7,1,0.4,1.5C210.4-126.5,210-126.3,209.6-126.3z
				"/>
		</g>
	</g>
	<g>
		<g>
			<path d="M206.1-120.4c-0.2,0-0.4-0.1-0.6-0.2c-2.7-1.6-5.9-2.4-9.1-2.4c-3.2,0-6.3,0.8-9.1,2.4c-0.2,0.1-0.4,0.2-0.6,0.2
				c-0.6,0-1.1-0.5-1.1-1.1c0-0.4,0.2-0.8,0.6-1c3.1-1.8,6.6-2.7,10.2-2.7c3.6,0,7.1,0.9,10.2,2.7c0.4,0.2,0.6,0.6,0.6,1
				C207.2-120.9,206.7-120.4,206.1-120.4z"/>
		</g>
	</g>
	<g>
		<g>
			<path d="M202.5-114.4c-0.2,0-0.4,0-0.6-0.1c-1.7-0.9-3.6-1.4-5.5-1.4s-3.8,0.5-5.5,1.4c-0.5,0.3-1.2,0.1-1.5-0.4
				c-0.3-0.5-0.1-1.2,0.4-1.5c2-1.1,4.3-1.7,6.6-1.7c2.3,0,4.6,0.6,6.6,1.7c0.5,0.3,0.7,1,0.4,1.5
				C203.3-114.6,202.9-114.4,202.5-114.4z"/>
		</g>
	</g>
	<g>
		<circle cx="196.4" cy="-106.5" r="4.5"/>
	</g>
</g>
<g>
	<g>
		<g>
			<circle cx="128" cy="58.3" r="14"/>
		</g>
		<g>
			<circle cx="82.7" cy="58.3" r="14"/>
		</g>
		<g>
			<circle cx="37.3" cy="58.3" r="14"/>
		</g>
	</g>
</g>
</svg>
