<?xml version="1.0" encoding="utf-8"?>
<!-- Generator: Adobe Illustrator 23.0.3, SVG Export Plug-In . SVG Version: 6.00 Build 0)  -->
<svg version="1.1" id="Layer_1" xmlns="http://www.w3.org/2000/svg" xmlns:xlink="http://www.w3.org/1999/xlink" x="0px" y="0px"
	 viewBox="0 0 165.3 118.3" style="enable-background:new 0 0 165.3 118.3;" xml:space="preserve">
<style type="text/css">
	.st0{fill:#1A1A1A;}
</style>
<g>
	<g>
		<path class="st0" d="M106.2,87.5H57.1l-0.3-2c-1-6.8-6.9-12-13.8-12s-12.9,5.1-13.8,12l-0.3,2H15.2V22.3h91V87.5z M61,82.8h40.5
			V26.9H19.9v55.9h5c2.1-8.1,9.5-14,18-14S58.9,74.7,61,82.8z"/>
	</g>
	<g>
		<path class="st0" d="M151.7,87.5h-10.9l-0.3-2c-1-6.8-6.9-12-13.8-12c-6.9,0-12.9,5.1-13.8,12l-0.3,2h-10.9V22.3H125L151.7,53
			V87.5z M144.7,82.8h2.3V54.7l-24.1-27.8h-16.6v55.9h2.3c2.1-8.1,9.5-14,18-14S142.6,74.7,144.7,82.8z"/>
	</g>
	<g id="Oval">
		<path class="st0" d="M43,102.7c-8.4,0-15.2-6.8-15.2-15.2S34.6,72.3,43,72.3s15.2,6.8,15.2,15.2S51.4,102.7,43,102.7z M43,76.9
			c-5.8,0-10.6,4.7-10.6,10.6S37.1,98.1,43,98.1s10.6-4.7,10.6-10.6S48.8,76.9,43,76.9z"/>
	</g>
	<g id="Oval-Copy-2">
		<path class="st0" d="M126.6,102.7c-8.4,0-15.2-6.8-15.2-15.2s6.8-15.2,15.2-15.2s15.2,6.8,15.2,15.2S135.1,102.7,126.6,102.7z
			 M126.6,76.9c-5.8,0-10.6,4.7-10.6,10.6s4.7,10.6,10.6,10.6s10.6-4.7,10.6-10.6S132.5,76.9,126.6,76.9z"/>
	</g>
	<g>
		<path class="st0" d="M126.6,94.7c-4,0-7.2-3.2-7.2-7.2s3.2-7.2,7.2-7.2c4,0,7.2,3.2,7.2,7.2S130.6,94.7,126.6,94.7z M126.6,84.9
			c-1.4,0-2.6,1.1-2.6,2.6s1.1,2.6,2.6,2.6s2.6-1.1,2.6-2.6S128.1,84.9,126.6,84.9z"/>
	</g>
	<g id="Oval-Copy-3">
		<path class="st0" d="M43,94.7c-4,0-7.2-3.2-7.2-7.2s3.2-7.2,7.2-7.2s7.2,3.2,7.2,7.2S46.9,94.7,43,94.7z M43,84.9
			c-1.4,0-2.6,1.1-2.6,2.6s1.1,2.6,2.6,2.6c1.4,0,2.6-1.1,2.6-2.6S44.4,84.9,43,84.9z"/>
	</g>
	<g id="Path">
		<polygon class="st0" points="110.2,30.7 120.2,30.7 142.7,55.7 110.2,55.7 		"/>
	</g>
	<g id="Line-2">
		<rect x="54.5" y="75.9" class="st0" width="50.7" height="2.8"/>
	</g>
	<g id="Line-2-Copy">
		<rect x="17.6" y="75.9" class="st0" width="13.8" height="2.8"/>
	</g>
</g>
</svg>
