<?xml version="1.0" encoding="utf-8"?>
<!-- Generator: Adobe Illustrator 23.0.3, SVG Export Plug-In . SVG Version: 6.00 Build 0)  -->
<svg version="1.1" id="Layer_1" xmlns="http://www.w3.org/2000/svg" xmlns:xlink="http://www.w3.org/1999/xlink" x="0px" y="0px"
	 viewBox="0 0 165.3 118.3" style="enable-background:new 0 0 165.3 118.3;" xml:space="preserve">
<style type="text/css">
	.st0{fill:#1A1A1A;}
</style>
<g>
	<g>
		<path class="st0" d="M-142.7,115.1h-49.1l-0.3-2c-1-6.8-6.9-12-13.8-12c-6.9,0-12.9,5.1-13.8,12l-0.3,2h-13.7V49.9h91V115.1z
			 M-187.9,110.4h40.5V54.5H-229v55.9h5c2.1-8.1,9.5-14,18-14S-190,102.3-187.9,110.4z"/>
	</g>
	<g>
		<path class="st0" d="M-97.2,115.1h-10.9l-0.3-2c-1-6.8-6.9-12-13.8-12c-6.9,0-12.9,5.1-13.8,12l-0.3,2h-10.9V49.9h23.3l26.7,30.7
			V115.1z M-104.2,110.4h2.3V82.3L-126,54.5h-16.6v55.9h2.3c2.1-8.1,9.5-14,18-14S-106.3,102.3-104.2,110.4z"/>
	</g>
	<g id="Oval">
		<path class="st0" d="M-205.9,130.3c-8.4,0-15.2-6.8-15.2-15.2s6.8-15.2,15.2-15.2c8.4,0,15.2,6.8,15.2,15.2
			S-197.5,130.3-205.9,130.3z M-205.9,104.5c-5.8,0-10.6,4.7-10.6,10.6s4.7,10.6,10.6,10.6c5.9,0,10.6-4.7,10.6-10.6
			S-200.1,104.5-205.9,104.5z"/>
	</g>
	<g id="Oval-Copy-2">
		<path class="st0" d="M-122.3,130.3c-8.4,0-15.2-6.8-15.2-15.2s6.8-15.2,15.2-15.2s15.2,6.8,15.2,15.2S-113.8,130.3-122.3,130.3z
			 M-122.3,104.5c-5.8,0-10.6,4.7-10.6,10.6s4.7,10.6,10.6,10.6c5.9,0,10.6-4.7,10.6-10.6S-116.4,104.5-122.3,104.5z"/>
	</g>
	<g>
		<path class="st0" d="M-122.3,122.3c-4,0-7.2-3.2-7.2-7.2s3.2-7.2,7.2-7.2c4,0,7.2,3.2,7.2,7.2S-118.3,122.3-122.3,122.3z
			 M-122.3,112.5c-1.4,0-2.6,1.1-2.6,2.6s1.1,2.6,2.6,2.6c1.5,0,2.6-1.1,2.6-2.6S-120.8,112.5-122.3,112.5z"/>
	</g>
	<g id="Oval-Copy-3">
		<path class="st0" d="M-205.9,122.3c-4,0-7.2-3.2-7.2-7.2s3.2-7.2,7.2-7.2s7.2,3.2,7.2,7.2S-202,122.3-205.9,122.3z M-205.9,112.5
			c-1.4,0-2.6,1.1-2.6,2.6s1.1,2.6,2.6,2.6c1.4,0,2.6-1.1,2.6-2.6S-204.5,112.5-205.9,112.5z"/>
	</g>
	<g id="Path">
		<polygon class="st0" points="-138.7,58.3 -128.7,58.3 -106.2,83.3 -138.7,83.3 		"/>
	</g>
	<g id="Line-2">
		<rect x="-194.4" y="103.5" class="st0" width="50.7" height="2.8"/>
	</g>
	<g id="Line-2-Copy">
		<rect x="-231.3" y="103.5" class="st0" width="13.8" height="2.8"/>
	</g>
</g>
<g>
	<path d="M-211.9-130.4c0-1.6-0.7-3-1.9-3.8c-0.2-0.1-0.4,0-0.4,0.2v3.3l-2.5,1.5l-2.5-1.5v-3.3c0-0.2-0.2-0.3-0.4-0.2
		c-1.1,0.9-1.9,2.2-1.9,3.7c0,2,1.2,3.7,2.9,4.4v13.5c-1.7,0.7-2.9,2.4-2.9,4.3c0,1.6,0.7,3,1.9,3.8c0.2,0.1,0.4,0,0.4-0.2v-3.3
		l2.5-1.5l2.5,1.5v3.3c0,0.2,0.2,0.3,0.4,0.2c1.1-0.9,1.9-2.2,1.9-3.7c0-2-1.2-3.7-2.9-4.4V-126
		C-213.1-126.8-211.9-128.4-211.9-130.4z"/>
	<path d="M-224.3-120.4h-1.5v-8.9l0.7-1l-0.8-3.9h-1.6l-0.8,3.9l0.7,1v8.9h-1.5c-0.2,0-0.4,0.2-0.4,0.4v0.7c0,0.2,0.2,0.4,0.4,0.4
		h0.1c-0.3,0.5-0.4,1.1-0.4,1.7v10c0,1.7,1.2,3.1,2.7,3.1h0.2c1.5,0,2.7-1.4,2.7-3.1v-10c0-0.6-0.2-1.2-0.4-1.7h0.1
		c0.2,0,0.4-0.2,0.4-0.4v-0.7C-223.9-120.2-224.1-120.4-224.3-120.4z M-228.2-106.2h-0.6v-11h0.6V-106.2z M-226.4-106.2h-0.6v-11
		h0.6V-106.2z M-224.7-106.2h-0.6v-11h0.6V-106.2z"/>
</g>
<g>
	<path d="M-415.4-107.8c-0.5,0.7-1.3,1.2-2.3,1.7c-1.2,1.3-3.7,2.3-6.6,2.3c-0.5,0-0.9,0-1.3-0.1c1,0.3,2.2,0.5,3.4,0.5
		c3.7,0,6.7-1.5,7.2-3.4c0-0.2,0.1-0.3,0.1-0.5c0-0.3-0.1-0.6-0.2-0.9C-415.2-108.1-415.3-107.9-415.4-107.8z"/>
	<path d="M-429.3-110.9c0,0.1,0.1,0.2,0.1,0.3c0,0.1,0.1,0.2,0.1,0.2c0.2,0.3,0.5,0.6,0.8,0.9c0.2,0.2,0.5,0.4,0.7,0.5
		c1.3,0.8,3.3,1.3,5.4,1.3c1.9,0,3.7-0.4,5-1.1c0.1,0,0.2-0.1,0.2-0.1c0.1,0,0.1-0.1,0.2-0.1c0.3-0.2,0.5-0.3,0.7-0.5
		c0.3-0.3,0.6-0.6,0.8-0.9c0.1-0.2,0.2-0.3,0.2-0.5c0-0.1,0-0.1,0.1-0.2c0-0.2,0.1-0.3,0.1-0.5c0-2.2-3.3-3.9-7.3-3.9
		c-4,0-7.3,1.8-7.3,3.9c0,0,0,0.1,0,0.1c-1.3,0.7-2.1,1.7-2.1,2.7c0,0.2,0,0.3,0.1,0.5c0.2,0.9,0.9,1.6,2,2.2
		c0.2,0.1,0.4,0.2,0.7,0.3c1.2,0.5,2.8,0.9,4.5,0.9c1.2,0,2.4-0.2,3.4-0.5c-0.4,0-0.9,0.1-1.3,0.1c-3.1,0-5.7-1-6.8-2.5
		c-0.1-0.2-0.2-0.3-0.3-0.5c-0.1-0.3-0.2-0.6-0.2-0.9c0-0.2,0-0.3,0.1-0.5c0.1,0.3,0.2,0.6,0.4,0.9c0.1,0.2,0.3,0.3,0.4,0.5
		c1.2,1.2,3.6,2,6.3,2c1.7,0,3.3-0.3,4.5-0.9c0.2-0.1,0.4-0.2,0.7-0.3c0.4-0.2,0.8-0.5,1.1-0.8c0.2-0.2,0.3-0.3,0.4-0.5
		c0.2-0.3,0.3-0.6,0.4-0.9c0-0.2,0.1-0.3,0.1-0.5c0-0.1,0-0.1,0-0.2c0,0.2-0.1,0.3-0.1,0.5c-0.1,0.3-0.3,0.6-0.5,0.9
		c-0.1,0.2-0.3,0.4-0.5,0.5c-0.3,0.2-0.6,0.4-0.9,0.6c-0.1,0.1-0.2,0.1-0.3,0.2c-1.3,0.6-3,1-4.9,1c-2.6,0-4.8-0.7-6.1-1.8
		c-0.2-0.2-0.4-0.3-0.5-0.5c-0.2-0.3-0.4-0.6-0.5-0.9c-0.1-0.2-0.1-0.3-0.1-0.5c0,0,0-0.1,0-0.1c0,0,0,0,0,0c0,0,0-0.1,0-0.1
		c0-0.2,0-0.3,0.1-0.5C-429.4-111-429.3-111-429.3-110.9z M-426.5-112.1h0.5c0-0.2,0.1-0.3,0.1-0.4c0,0,0,0,0-0.1
		c0.3-0.5,0.8-0.9,1.6-1l0.2,0.6l0.1,0.3l0.1,0.3c0,0-0.4,0-0.6,0.3l1.4,0c0.1-0.2,0.2-0.3,0.3-0.5c0.1-0.2,0.2-0.3,0.4-0.5
		c0.1-0.1,0.2-0.2,0.4-0.3c0.9-0.6,2.5-0.3,3.2,0.3c0.1,0.1,0.2,0.3,0.3,0.5c0.1,0.1,0.1,0.3,0.1,0.5h0.6v0.6h-0.6
		c0,0.1,0,0.2-0.1,0.4c0,0.1-0.1,0.3-0.2,0.4c-0.1,0.1-0.2,0.2-0.3,0.3c-0.2,0.2-0.5,0.3-0.9,0.4c-0.2,0-0.4,0.1-0.6,0.1l0-0.2
		l-0.2-1c0,0,0,0,0.1,0c0,0,0.1,0,0.1,0c0.2,0,0.6-0.1,0.8-0.3h-1.7c0,0,0,0.1-0.1,0.1c0,0,0,0.1-0.1,0.1c-0.2,0.5-0.6,0.9-1.3,1
		c-0.3,0.1-0.5,0.1-0.9,0.1h0c-0.9,0-1.4-0.3-1.8-0.7c-0.2-0.2-0.3-0.5-0.3-0.7h-0.1h-0.4V-112.1z"/>
	<path d="M-420.6-112.6c-0.2,0-0.3,0.1-0.5,0.2c-0.1,0.1-0.1,0.1-0.2,0.2h0.9h0.6C-419.9-112.5-420.3-112.6-420.6-112.6z"/>
	<path d="M-423.5-111.5C-423.5-111.5-423.5-111.5-423.5-111.5l-1.1-0.1C-424.4-111.2-423.8-111.2-423.5-111.5z"/>
	<path d="M-428.9-116.9c-0.5,0.7-1.3,1.2-2.2,1.7c-1.2,1.3-3.7,2.3-6.6,2.3c-0.5,0-0.9,0-1.3-0.1c1,0.3,2.2,0.5,3.4,0.5
		c3.7,0,6.7-1.5,7.2-3.4c0-0.2,0.1-0.3,0.1-0.5c0-0.3-0.1-0.6-0.2-0.9C-428.7-117.2-428.8-117.1-428.9-116.9z"/>
	<path d="M-442.8-120c0,0.1,0.1,0.2,0.1,0.3c0,0.1,0.1,0.2,0.1,0.2c0.2,0.3,0.5,0.6,0.8,0.9c0.2,0.2,0.5,0.4,0.7,0.5
		c1.3,0.8,3.3,1.3,5.4,1.3c1.9,0,3.7-0.4,5-1.1c0.1,0,0.2-0.1,0.2-0.1c0.1,0,0.1-0.1,0.2-0.1c0.3-0.2,0.5-0.3,0.7-0.5
		c0.3-0.3,0.6-0.6,0.8-0.9c0.1-0.2,0.2-0.3,0.2-0.5c0-0.1,0-0.1,0.1-0.2c0-0.2,0.1-0.3,0.1-0.5c0-2.2-3.3-3.9-7.3-3.9
		c-4,0-7.3,1.8-7.3,3.9c0,0,0,0.1,0,0.1c-1.3,0.7-2.1,1.7-2.1,2.7c0,0.2,0,0.3,0.1,0.5c0.2,0.9,0.9,1.6,2,2.2
		c0.2,0.1,0.4,0.2,0.7,0.3c1.2,0.5,2.8,0.9,4.5,0.9c1.2,0,2.4-0.2,3.4-0.5c-0.4,0-0.9,0.1-1.3,0.1c-3.1,0-5.7-1-6.8-2.5
		c-0.1-0.2-0.2-0.3-0.3-0.5c-0.1-0.3-0.2-0.6-0.2-0.9c0-0.2,0-0.3,0.1-0.5c0.1,0.3,0.2,0.6,0.4,0.9c0.1,0.2,0.3,0.3,0.4,0.5
		c1.2,1.2,3.6,2,6.3,2c1.7,0,3.3-0.3,4.5-0.9c0.2-0.1,0.4-0.2,0.7-0.3c0.4-0.2,0.8-0.5,1.1-0.8c0.2-0.2,0.3-0.3,0.4-0.5
		c0.2-0.3,0.3-0.6,0.4-0.9c0-0.2,0.1-0.3,0.1-0.5c0-0.1,0-0.1,0-0.2c0,0.2-0.1,0.3-0.1,0.5c-0.1,0.3-0.3,0.6-0.5,0.9
		c-0.1,0.2-0.3,0.4-0.5,0.5c-0.3,0.2-0.6,0.4-0.9,0.6c-0.1,0.1-0.2,0.1-0.3,0.2c-1.3,0.6-3,1-4.9,1c-2.6,0-4.8-0.7-6.1-1.8
		c-0.2-0.2-0.4-0.3-0.5-0.5c-0.2-0.3-0.4-0.6-0.5-0.9c-0.1-0.2-0.1-0.3-0.1-0.5c0,0,0-0.1,0-0.1c0,0,0,0,0,0c0,0,0-0.1,0-0.1
		c0-0.2,0-0.3,0.1-0.5C-442.9-120.2-442.8-120.1-442.8-120z M-440-121.3h0.5c0-0.2,0.1-0.3,0.1-0.4c0,0,0,0,0-0.1
		c0.3-0.5,0.8-0.9,1.6-1l0.2,0.6l0.1,0.3l0.1,0.3c0,0-0.4,0-0.6,0.3l1.4,0c0.1-0.2,0.2-0.3,0.3-0.5c0.1-0.2,0.2-0.3,0.4-0.5
		c0.1-0.1,0.2-0.2,0.4-0.3c0.9-0.6,2.5-0.3,3.2,0.3c0.1,0.1,0.2,0.3,0.3,0.5c0.1,0.1,0.1,0.3,0.1,0.5h0.6v0.6h-0.6
		c0,0.1,0,0.2-0.1,0.4c0,0.1-0.1,0.3-0.2,0.4c-0.1,0.1-0.2,0.2-0.3,0.3c-0.2,0.2-0.5,0.3-0.9,0.4c-0.2,0-0.4,0.1-0.6,0.1l0-0.2
		l-0.2-1c0,0,0,0,0.1,0c0,0,0.1,0,0.1,0c0.2,0,0.6-0.1,0.8-0.3h-1.7c0,0,0,0.1-0.1,0.1c0,0,0,0.1-0.1,0.1c-0.2,0.5-0.6,0.9-1.3,1
		c-0.3,0.1-0.5,0.1-0.9,0.1h0c-0.9,0-1.4-0.3-1.8-0.7c-0.2-0.2-0.3-0.5-0.3-0.7h-0.1h-0.4V-121.3z"/>
	<path d="M-434.1-121.7c-0.2,0-0.3,0.1-0.5,0.2c-0.1,0.1-0.1,0.1-0.2,0.2h0.9h0.6C-433.4-121.6-433.8-121.8-434.1-121.7z"/>
	<path d="M-437-120.6C-437-120.7-437-120.7-437-120.6l-1.1-0.1C-437.9-120.4-437.3-120.3-437-120.6z"/>
</g>
<g>
	<path d="M82.7,8.7C82.6,8.7,82.6,8.7,82.7,8.7L82.7,8.7c-2.4,0.2-8.7,1.9-16.4,4.9c-7.8,3-15.4,4.1-21.8,5.7
		c-6.3,1.6-5.2,9.2-5.2,9.2s2.4,30.7,3.3,35.7c4.6,24.2,39.5,43.6,39.5,43.6h0c0,0,35.5-18.8,40.3-43.4c1-5.2,3.5-36.6,3.5-36.6
		s1.2-7.8-5.4-9.3c-6.6-1.5-14.5-2.5-22.4-5.3C90.3,10.4,85.1,8.9,82.7,8.7L82.7,8.7C82.7,8.7,82.7,8.7,82.7,8.7z M95.2,20
		c6.1,2.2,12,3.3,17.2,4.4c0,0,4.7,1.1,5.5,1.3c0,0,0.2,0,0.1,1.3c0,0.2,0,0.2-0.1,0.5c-0.9,12-2.7,32.3-3.4,35.8
		c-2.1,10.6-11.6,20.4-19.3,26.7c-5.1,4.2-10,7.5-13.3,9.5c-3.2-2-8-5.3-12.9-9.5c-7.6-6.4-17-16.2-19-26.7
		c-0.7-3.4-2.3-23.3-3.3-35.1c0-0.2,0-0.3,0-0.5c0-0.4,0-1,0.1-1.4c1.7-0.4,3.5-0.8,5.4-1.2c5.1-1.1,10.8-2.3,16.8-4.6
		c6.7-2.6,11.5-3.9,13.5-4.3C83.9,16.2,87.2,17.1,95.2,20z"/>
	<path d="M82.5,18.7C82.5,18.7,82.5,18.7,82.5,18.7L82.5,18.7c-1.8,0.2-6.4,1.5-12.1,3.8C64.6,24.8,59,25.7,54.2,27
		c-4.7,1.3-3.8,7.2-3.8,7.2s1.8,24.1,2.5,28.1c3.4,19,29.3,34.1,29.3,34.1h0c0,0,26.2-14.8,29.7-34.1c0.7-4,2.6-28.6,2.6-28.6
		s0.9-6.1-4-7.3c-4.9-1.2-10.7-2-16.5-4.2C88.2,20.1,84.3,18.8,82.5,18.7L82.5,18.7C82.6,18.7,82.5,18.7,82.5,18.7z"/>
</g>
<g>
	<path d="M-421.5,31c-1.7,1-2.9,1.6-3.9,1.4c1-0.4,2.9-1.4,3.8-3.7c0.1-0.2-0.4-0.4-0.6-0.5c-0.2-0.1-0.4,0-0.4,0.2
		c-0.7,1.7-1.7,2.6-2.6,3.1c1-1.8,1.6-4.3,1.6-6.2h-7.5h-7.8c0,2.4,1,5.9,2.5,7.5h10.3c0,0,0,0,0,0c0.4,0.1,0.9,0.2,1.5,0.2
		c1,0,2.2-0.3,3.6-1.1c0.2-0.1,0-0.8-0.1-1C-421.1,30.9-421.3,30.9-421.5,31z"/>
	<path d="M-426,33.6L-426,33.6h-10.4h-0.1c-5.3,2.1-9,7.2-9,13.2c0,7.9,6.4,8.6,14.3,8.6c7.9,0,14.3-0.7,14.3-8.6
		C-417,40.9-420.8,35.7-426,33.6z M-427.4,46.6c-0.2,1.7-1.6,2.8-2.9,2.9l0,1.8h-1.8v-1.7c0,0-2-0.1-3.1-0.8l0.7-2.1
		c0,0,0.8,0.4,1.7,0.6c0.9,0.2,2.5,0.1,2.7-0.7c0.2-0.8-0.4-1.2-1.5-1.5c-1.1-0.3-3.1-1.3-3.3-2.8c-0.2-1.7,0.6-3,2.8-3.4v-1.8h1.8
		v1.5c0,0,1.8,0.1,2.5,0.6l-0.4,1.9c0,0-1.7-0.6-2.9-0.5c-1.2,0.1-1.2,1.3-0.4,1.8c1,0.6,2.4,1.1,2.9,1.3
		C-428.2,44-427.2,44.8-427.4,46.6z"/>
</g>
<path d="M-9.1-102.1C-1.2-102.4,5-107,5-112.6c0-5.8-6.7-10.5-15-10.5c-8.3,0-15,4.7-15,10.5c0,4.4,3.9,8.2,9.4,9.8l-2.5,6.6
	L-9.1-102.1z M-19.3-116h18.6v0.9h-18.6V-116z M-19.3-112.7h18.6v0.9h-18.6V-112.7z M-19.3-108.6v-0.9h10v0.9H-19.3z"/>
<g>
	<g>
		<g>
			<path d="M209.6-126.3c-0.2,0-0.4,0-0.6-0.2c-3.8-2.2-8.2-3.4-12.6-3.4s-8.8,1.2-12.6,3.4c-0.5,0.3-1.2,0.1-1.5-0.4
				c-0.3-0.5-0.1-1.2,0.4-1.5c4.2-2.4,8.9-3.7,13.7-3.7s9.6,1.3,13.7,3.7c0.5,0.3,0.7,1,0.4,1.5C210.4-126.5,210-126.3,209.6-126.3z
				"/>
		</g>
	</g>
	<g>
		<g>
			<path d="M206.1-120.4c-0.2,0-0.4-0.1-0.6-0.2c-2.7-1.6-5.9-2.4-9.1-2.4c-3.2,0-6.3,0.8-9.1,2.4c-0.2,0.1-0.4,0.2-0.6,0.2
				c-0.6,0-1.1-0.5-1.1-1.1c0-0.4,0.2-0.8,0.6-1c3.1-1.8,6.6-2.7,10.2-2.7c3.6,0,7.1,0.9,10.2,2.7c0.4,0.2,0.6,0.6,0.6,1
				C207.2-120.9,206.7-120.4,206.1-120.4z"/>
		</g>
	</g>
	<g>
		<g>
			<path d="M202.5-114.4c-0.2,0-0.4,0-0.6-0.1c-1.7-0.9-3.6-1.4-5.5-1.4s-3.8,0.5-5.5,1.4c-0.5,0.3-1.2,0.1-1.5-0.4
				c-0.3-0.5-0.1-1.2,0.4-1.5c2-1.1,4.3-1.7,6.6-1.7c2.3,0,4.6,0.6,6.6,1.7c0.5,0.3,0.7,1,0.4,1.5
				C203.3-114.6,202.9-114.4,202.5-114.4z"/>
		</g>
	</g>
	<g>
		<circle cx="196.4" cy="-106.5" r="4.5"/>
	</g>
</g>
<g>
	<g>
		<g>
			<circle cx="212.5" cy="46.4" r="3.5"/>
		</g>
		<g>
			<circle cx="201" cy="46.4" r="3.5"/>
		</g>
		<g>
			<circle cx="189.4" cy="46.4" r="3.5"/>
		</g>
	</g>
</g>
</svg>
