<?xml version="1.0" encoding="UTF-8"?>
<svg width="79px" height="79px" viewBox="0 0 79 79" version="1.1" xmlns="http://www.w3.org/2000/svg" xmlns:xlink="http://www.w3.org/1999/xlink">
    <!-- Generator: Sketch 54.1 (76490) - https://sketchapp.com -->
    <title>Combined Shape Copy 5</title>
    <desc>Created with Sketch.</desc>
    <defs>
        <path d="M30.7666224,-1.24300837e-15 L47.5276437,1.24300837e-15 C58.2258685,-7.22223659e-16 62.1053034,1.11390733 66.0164145,3.20559245 C69.9275256,5.29727756 72.9969885,8.36674045 75.0886736,12.2778516 C77.1803587,16.1889627 78.2942661,20.0683975 78.2942661,30.7666224 L78.2942661,47.5276437 C78.2942661,58.2258685 77.1803587,62.1053034 75.0886736,66.0164145 C72.9969885,69.9275256 69.9275256,72.9969885 66.0164145,75.0886736 C62.1053034,77.1803587 58.2258685,78.2942661 47.5276437,78.2942661 L30.7666224,78.2942661 C20.0683975,78.2942661 16.1889627,77.1803587 12.2778516,75.0886736 C8.36674045,72.9969885 5.29727756,69.9275256 3.20559245,66.0164145 C1.11390733,62.1053034 4.81482439e-16,58.2258685 -8.28672246e-16,47.5276437 L8.28672246e-16,30.7666224 C-4.81482439e-16,20.0683975 1.11390733,16.1889627 3.20559245,12.2778516 C5.29727756,8.36674045 8.36674045,5.29727756 12.2778516,3.20559245 C16.1889627,1.11390733 20.0683975,7.22223659e-16 30.7666224,-1.24300837e-15 Z M47.7523675,49.7341764 C52.5049073,44.9816366 52.5049073,37.2762473 47.7523675,32.5237075 C42.9998277,27.7711677 35.2944383,27.7711677 30.5418986,32.5237075 C25.7893588,37.2762473 25.7893588,44.9816366 30.5418986,49.7341764 C31.9087336,51.1010114 34.124811,51.1010114 35.491646,49.7341764 C36.8584811,48.3673414 36.8584811,46.151264 35.491646,44.7844289 C33.4727763,42.7655592 33.4727763,39.4923247 35.491646,37.473455 C37.5105158,35.4545852 40.7837503,35.4545852 42.80262,37.473455 C44.8214897,39.4923247 44.8214897,42.7655592 42.80262,44.7844289 C41.435785,46.151264 41.435785,48.3673414 42.80262,49.7341764 C44.169455,51.1010114 46.3855325,51.1010114 47.7523675,49.7341764 Z M57.4720068,59.7546493 C67.5925551,49.6341009 67.5925551,33.2254501 57.4720068,23.1049018 C47.3514585,12.9843535 30.9428076,12.9843535 20.8222593,23.1049018 C10.701711,33.2254501 10.701711,49.6341009 20.8222593,59.7546493 C22.1890943,61.1214843 24.4051717,61.1214843 25.7720068,59.7546493 C27.1388418,58.3878142 27.1388418,56.1717368 25.7720068,54.8049018 C18.3851285,47.4180235 18.3851285,35.4415275 25.7720068,28.0546493 C33.158885,20.667771 45.135381,20.667771 52.5222593,28.0546493 C59.9091376,35.4415275 59.9091376,47.4180235 52.5222593,54.8049018 C51.1554243,56.1717368 51.1554243,58.3878142 52.5222593,59.7546493 C53.8890943,61.1214843 56.1051717,61.1214843 57.4720068,59.7546493 Z" id="path-1"></path>
    </defs>
    <g id="Page-2" stroke="none" stroke-width="1" fill="none" fill-rule="evenodd">
        <g id="Desktop-HD-Copy-3" transform="translate(-1968.000000, -2587.000000)">
            <g id="Combined-Shape-Copy-5" transform="translate(1968.000000, 2587.000000)">
                <mask id="mask-2" fill="white">
                    <use xlink:href="#path-1"></use>
                </mask>
                <use id="Combined-Shape" fill="#29D391" xlink:href="#path-1"></use>
            </g>
        </g>
    </g>
</svg>