<?xml version="1.0" encoding="UTF-8"?>
<svg width="79px" height="79px" viewBox="0 0 79 79" version="1.1" xmlns="http://www.w3.org/2000/svg" xmlns:xlink="http://www.w3.org/1999/xlink">
    <!-- Generator: Sketch 54.1 (76490) - https://sketchapp.com -->
    <title>Combined Shape</title>
    <desc>Created with Sketch.</desc>
    <g id="Page-2" stroke="none" stroke-width="1" fill="none" fill-rule="evenodd">
        <g id="Desktop-HD-Copy-3" transform="translate(-2170.000000, -2587.000000)" fill="#38A2FF">
            <path d="M2200.76662,2587 L2217.52764,2587 C2228.22587,2587 2232.1053,2588.11391 2236.01641,2590.20559 C2239.92753,2592.29728 2242.99699,2595.36674 2245.08867,2599.27785 C2247.18036,2603.18896 2248.29427,2607.0684 2248.29427,2617.76662 L2248.29427,2634.52764 C2248.29427,2645.22587 2247.18036,2649.1053 2245.08867,2653.01641 C2242.99699,2656.92753 2239.92753,2659.99699 2236.01641,2662.08867 C2232.1053,2664.18036 2228.22587,2665.29427 2217.52764,2665.29427 L2200.76662,2665.29427 C2190.0684,2665.29427 2186.18896,2664.18036 2182.27785,2662.08867 C2178.36674,2659.99699 2175.29728,2656.92753 2173.20559,2653.01641 C2171.11391,2649.1053 2170,2645.22587 2170,2634.52764 L2170,2617.76662 C2170,2607.0684 2171.11391,2603.18896 2173.20559,2599.27785 C2175.29728,2595.36674 2178.36674,2592.29728 2182.27785,2590.20559 C2186.18896,2588.11391 2190.0684,2587 2200.76662,2587 Z M2195.46563,2638.54097 C2199.25712,2642.22516 2203.33471,2644.2103 2207.6985,2644.49645 L2207.6985,2649.64713 L2212.09805,2649.64713 L2212.09805,2644.28184 C2215.20993,2643.78107 2217.77631,2642.58284 2219.79725,2640.68709 C2221.81819,2638.79134 2222.82864,2636.28756 2222.82864,2633.17567 C2222.82864,2631.67338 2222.56932,2630.33207 2222.05067,2629.1517 C2221.53202,2627.97133 2220.78089,2626.96982 2219.79725,2626.14713 C2218.8136,2625.32445 2217.84786,2624.66274 2216.89999,2624.16197 C2215.95211,2623.66121 2214.81647,2623.16045 2213.49302,2622.65969 C2213.0638,2622.48085 2212.48256,2622.26624 2211.7493,2622.01585 C2211.01604,2621.76547 2210.43481,2621.56875 2210.00558,2621.42567 C2209.57635,2621.2826 2209.0756,2621.09481 2208.5033,2620.86232 C2207.931,2620.62982 2207.48389,2620.40627 2207.16197,2620.19165 C2206.84005,2619.97704 2206.51814,2619.74455 2206.19622,2619.49416 C2205.8743,2619.24378 2205.64181,2618.96658 2205.49873,2618.66254 C2205.35566,2618.35851 2205.28412,2618.02765 2205.28412,2617.66996 C2205.28412,2616.48959 2205.74017,2615.56856 2206.65227,2614.90684 C2207.56438,2614.24511 2208.6106,2613.91426 2209.79097,2613.91426 C2212.33056,2613.91426 2214.90587,2614.96942 2217.517,2617.07978 L2221.75558,2611.87544 C2218.67946,2609.69355 2215.5855,2608.37012 2212.47362,2607.90512 L2212.47362,2602.64713 L2208.02042,2602.64713 L2208.02042,2607.79782 C2205.01584,2608.0482 2202.5836,2609.05865 2200.72362,2610.82921 C2198.86364,2612.59977 2197.93366,2614.9873 2197.93366,2617.99188 C2197.93366,2619.42263 2198.1751,2620.68347 2198.65798,2621.77442 C2199.14086,2622.86537 2199.83834,2623.7864 2200.75044,2624.53754 C2201.66255,2625.28869 2202.5657,2625.89675 2203.45992,2626.36174 C2204.35414,2626.82674 2205.44507,2627.29173 2206.73275,2627.75672 C2207.05467,2627.86403 2207.6359,2628.0697 2208.47647,2628.37373 C2209.31704,2628.67777 2209.90722,2628.90132 2210.24702,2629.04439 C2210.58682,2629.18747 2211.07864,2629.40208 2211.72248,2629.68823 C2212.36631,2629.97438 2212.8313,2630.22476 2213.11745,2630.43937 C2213.4036,2630.65398 2213.72552,2630.93119 2214.08321,2631.27099 C2214.44089,2631.6108 2214.69127,2631.97742 2214.83435,2632.37088 C2214.97742,2632.76433 2215.04896,2633.19355 2215.04896,2633.65855 C2215.04896,2635.16084 2214.50349,2636.30542 2213.41254,2637.09234 C2212.32159,2637.87925 2210.77462,2638.2727 2208.77156,2638.2727 C2206.19621,2638.2727 2203.37051,2636.8062 2200.29439,2633.87316 L2195.46563,2638.54097 Z" id="Combined-Shape"></path>
        </g>
    </g>
</svg>