<svg xmlns="http://www.w3.org/2000/svg" width="50" height="38.944" viewBox="0 0 50 38.944">
  <g id="Group_661" data-name="Group 661" transform="translate(-5568.706 -7122.786)">
    <path id="Path_2466" data-name="Path 2466" d="M5608.695,7132.072a.244.244,0,0,0,.155-.064A.1.1,0,0,0,5608.695,7132.072Z" fill="#000" fill-rule="evenodd"/>
    <path id="Path_2467" data-name="Path 2467" d="M5606.955,7125.276c.062-.008.236-.06.158-.141C5607.025,7125.181,5607.008,7125.229,5606.955,7125.276Z" fill="#000" fill-rule="evenodd"/>
    <path id="Path_2468" data-name="Path 2468" d="M5607.116,7124.987c.042.035.126-.078.185-.1C5607.261,7124.829,5607.13,7124.938,5607.116,7124.987Z" fill="#000" fill-rule="evenodd"/>
    <path id="Path_2469" data-name="Path 2469" d="M5608.368,7125.342c.055.006.165-.033.184-.1C5608.512,7125.208,5608.427,7125.319,5608.368,7125.342Z" fill="#000" fill-rule="evenodd"/>
    <path id="Path_2470" data-name="Path 2470" d="M5608.118,7124.259a.512.512,0,0,0,.342-.145C5608.371,7124.084,5608.234,7124.2,5608.118,7124.259Z" fill="#000" fill-rule="evenodd"/>
    <path id="Path_2471" data-name="Path 2471" d="M5611.7,7128.053c.142-.085.478-.175.522-.331C5612.089,7127.885,5611.832,7127.9,5611.7,7128.053Z" fill="#000" fill-rule="evenodd"/>
    <path id="Path_2472" data-name="Path 2472" d="M5610.927,7125.9c.257.007.512-.328.8-.383-.023-.118-.363.186-.477.151a.734.734,0,0,0-.119.131C5611.062,7125.833,5610.962,7125.8,5610.927,7125.9Z" fill="#000" fill-rule="evenodd"/>
    <path id="Path_2473" data-name="Path 2473" d="M5613.112,7124.312c.022.058.057.083.121.042a.115.115,0,0,0-.019-.1Z" fill="#000" fill-rule="evenodd"/>
    <path id="Path_2474" data-name="Path 2474" d="M5614.451,7124.561a1.158,1.158,0,0,0,.73-.28c.032,0,.049.038.095.01.123-.042.379-.177.118-.077A8.716,8.716,0,0,0,5614.451,7124.561Z" fill="#000" fill-rule="evenodd"/>
    <path id="Path_2475" data-name="Path 2475" d="M5614.1,7123.429a.337.337,0,0,0,.207-.043C5614.259,7123.343,5614.115,7123.39,5614.1,7123.429Z" fill="#000" fill-rule="evenodd"/>
    <path id="Path_2476" data-name="Path 2476" d="M5615.556,7126.146c.047.037.15-.058.22-.072C5615.717,7126.064,5615.59,7126.079,5615.556,7126.146Z" fill="#000" fill-rule="evenodd"/>
    <path id="Path_2477" data-name="Path 2477" d="M5614.452,7123.705c.089.028.23-.049.328-.042C5614.818,7123.547,5614.558,7123.673,5614.452,7123.705Z" fill="#000" fill-rule="evenodd"/>
    <path id="Path_2478" data-name="Path 2478" d="M5614.445,7123.349c.081.044.228-.042.35-.078C5614.7,7123.247,5614.56,7123.326,5614.445,7123.349Z" fill="#000" fill-rule="evenodd"/>
    <path id="Path_2479" data-name="Path 2479" d="M5616,7126.567c.039.07.125.024.2.014C5616.151,7126.519,5616.063,7126.568,5616,7126.567Z" fill="#000" fill-rule="evenodd"/>
    <path id="Path_2480" data-name="Path 2480" d="M5615.883,7126a1.193,1.193,0,0,0,.485-.152A1.088,1.088,0,0,0,5615.883,7126Z" fill="#000" fill-rule="evenodd"/>
    <path id="Path_2481" data-name="Path 2481" d="M5614.848,7123.248c.177.039.354-.111.469-.167C5615.165,7123.073,5615.016,7123.244,5614.848,7123.248Z" fill="#000" fill-rule="evenodd"/>
    <path id="Path_2482" data-name="Path 2482" d="M5615.6,7124.131a.7.7,0,0,0,.233-.017C5615.812,7124.013,5615.69,7124.1,5615.6,7124.131Z" fill="#000" fill-rule="evenodd"/>
    <path id="Path_2483" data-name="Path 2483" d="M5615.744,7123.821c.082.031.128-.015.217-.062C5615.922,7123.717,5615.811,7123.809,5615.744,7123.821Z" fill="#000" fill-rule="evenodd"/>
    <path id="Path_2484" data-name="Path 2484" d="M5615.875,7123.464c.05.046.256-.007.171-.112-.061.011-.039.05-.029.085C5615.956,7123.47,5615.943,7123.417,5615.875,7123.464Z" fill="#000" fill-rule="evenodd"/>
    <path id="Path_2485" data-name="Path 2485" d="M5616.99,7124.986" fill="#000" fill-rule="evenodd"/>
    <path id="Path_2486" data-name="Path 2486" d="M5617.506,7125.728a.49.49,0,0,0,.3-.07A.644.644,0,0,0,5617.506,7125.728Z" fill="#000" fill-rule="evenodd"/>
    <path id="Path_2487" data-name="Path 2487" d="M5617.618,7125.841c-.012.079.168.023.112-.035Z" fill="#000" fill-rule="evenodd"/>
    <path id="Path_2488" data-name="Path 2488" d="M5618.163,7126.974a.132.132,0,0,0,.156,0C5618.289,7126.923,5618.179,7126.943,5618.163,7126.974Z" fill="#000" fill-rule="evenodd"/>
    <path id="Path_2489" data-name="Path 2489" d="M5618.706,7126.723" fill="#000" fill-rule="evenodd"/>
    <path id="Path_2490" data-name="Path 2490" d="M5613.87,7128.755c.052.007.11-.009.156.016.022-.123.187-.114.258-.2C5614.122,7128.537,5614.064,7128.717,5613.87,7128.755Z" fill="#000" fill-rule="evenodd"/>
    <path id="Path_2491" data-name="Path 2491" d="M5615.546,7125.688c.061-.017.034-.063.109-.075-.009-.038-.039-.027-.053-.054a1.588,1.588,0,0,1,.3-.1.107.107,0,0,1-.052-.055c.183.067.271-.18.578-.233a1.6,1.6,0,0,0-.6.149c-.214.093-.419.2-.545.233.072.071.249-.1.313-.01C5615.627,7125.6,5615.464,7125.606,5615.546,7125.688Z" fill="#000" fill-rule="evenodd"/>
    <path id="Path_2492" data-name="Path 2492" d="M5614.972,7123.527c.031-.009.024.015.009.022.029.047.12-.04.132-.058C5615.055,7123.441,5614.719,7123.624,5614.972,7123.527Z" fill="#000" fill-rule="evenodd"/>
    <path id="Path_2493" data-name="Path 2493" d="M5617.067,7123.085l-.028-.09c.089-.022.205-.049.311-.082a.559.559,0,0,0,.254-.126c-.23-.022-.629.265-.82.164-.028.034-.094.053-.122.086a2.313,2.313,0,0,0-.765.185,4.046,4.046,0,0,1-.757.258c.309.153.69-.364,1.032-.2.037-.027-.007-.024-.035-.013.11-.034.26-.1.423-.147A1.158,1.158,0,0,1,5617.067,7123.085Z" fill="#000" fill-rule="evenodd"/>
    <path id="Path_2494" data-name="Path 2494" d="M5617.72,7126.006c.047.03.112.022.161.048C5617.9,7126.044,5617.748,7125.931,5617.72,7126.006Z" fill="#000" fill-rule="evenodd"/>
    <path id="Path_2495" data-name="Path 2495" d="M5571.773,7154.127c-.092-.088-.134-.248-.231-.341a6.267,6.267,0,0,1-.689-.6c-.173-.224-.276-.5-.468-.72a2.818,2.818,0,0,1-.252-.36c-.246-.356-.526-.565-.489-.867-.1-.32-.306-.647-.39-.934-.013-.045-.084-.1-.089-.114a10.868,10.868,0,0,0-.459-2.181,2.479,2.479,0,0,0,.178-.539c.011-.1-.051-.225-.027-.312.089-.321.448-.492.388-.856.039-.064.092-.041.136-.066a12.571,12.571,0,0,0,1.087-1.076c.331-.051.514-.305.8-.377a5.081,5.081,0,0,1,.614-.041c.223-.024.423-.015.631-.058.121-.128.276-.024.4-.106.236.076.462.084.7.165.056-.028.119-.016.173-.064a4.425,4.425,0,0,1,1.7.547,1.808,1.808,0,0,1,.205.157,2.713,2.713,0,0,0,1.267.816c.075.047.034.087.11.134a.712.712,0,0,1,.6.142c.054.054.046.256.148.391.152.2.463.22.6.4.065.082.049.256.1.352a3.06,3.06,0,0,0,.8.737c.16.1.288.07.373.184a.279.279,0,0,1-.073.38.528.528,0,0,0,.035.2.933.933,0,0,0,.044.1l.026.046,0,.013a.058.058,0,0,0,.024.067c.037.029.084.028.071.136.053-.048.058-.01.064.048s.011.137.037.143l.041-.033c.013.015.016.123.032.179.028.094.062.111.09.225.031-.133.045-.106.066-.035a.751.751,0,0,0,.066.2l.007,0,.005-.029a.66.66,0,0,1,.02-.122c.012-.015.035.065.048.038s.011-.144.024-.158l.035.023c.008-.023,0-.1.012-.1l.07.089c.062-.021.064-.18.194-.064.013-.253.2-.109.245-.418a.3.3,0,0,0,.095-.034l.022-.021c.014-.017.028-.034.042-.053a.863.863,0,0,0,.075-.127c.043-.026.087.01.128-.05.208-.368.637-.584.842-.97a.165.165,0,0,0,.092,0,4.307,4.307,0,0,1,1.155-1.388c.14-.353.513-.588.8-.925a5.257,5.257,0,0,1,.366-.49c.286-.259.564-.681.828-.941.079-.077.2-.114.277-.189.142-.134.227-.337.389-.47a16.327,16.327,0,0,0,1.627-1.793,5.822,5.822,0,0,1,.506-.412c.3-.27.486-.664.78-.943.074-.07.175-.112.245-.175.182-.162.3-.362.48-.548a10.221,10.221,0,0,0,1.273-1.329,20.729,20.729,0,0,0,1.969-1.883c.229-.052.281-.262.433-.4a10.322,10.322,0,0,0,1.533-1.411c2.111-1.781,4.149-3.826,6.41-5.42a1.119,1.119,0,0,1,.583-.454c-.008-.073.092-.152.154-.228.365-.1.618-.476.983-.72.182.049.314-.206.515-.219,0-.109-.12,0-.054-.108.394.041,1.065-.651,1.456-.849-.023.019,0,.055.03.037.041-.118.163-.039.253-.113a4.615,4.615,0,0,1,.944-.479,9.271,9.271,0,0,0,.912-.371c.044-.081.163-.3.284-.264-.09.082-.22.162-.146.25a.909.909,0,0,1,.551-.251c.209-.13.279-.253.511-.3.044-.031.022.128.117.062.257-.24.454-.254.685-.467a.686.686,0,0,0,.523-.232c.111-.014-.046.136.041.113a2.164,2.164,0,0,0,.688-.409.418.418,0,0,0,.251.009c.065-.03-.071-.082.038-.106.116,0-.012.132.05.19.139-.038.144.024.237.046.138-.151.319-.1.492-.155s.333-.189.5-.239c.147-.045.242,0,.392-.084.122-.065.183-.2.325-.259.082-.019-.009.1.1.055.248-.106.494-.216.733-.3a2.957,2.957,0,0,1,.682-.15,2.422,2.422,0,0,0-.78.266,2.27,2.27,0,0,1-.716.276c-.024.13-.242.054-.247.217-.06-.037.029-.132-.072-.068-.031.026-.032.057-.09.078.125.076.026.129.029.226-.4.2-.734.33-1.077.518-.078.01.008-.087-.074-.065-.14.056-.227.131-.4.191,0,.107-.075.206.041.279a4.737,4.737,0,0,1,.814-.373l.455-.179c.153-.059.3-.121.441-.189.169-.082.3-.261.463-.175-.269.086-.39.339-.595.464-.266.159-.625.2-.876.377-.07.05-.08.1-.147.143s-.176.024-.232.062-.039.088-.1.116c-.117.058-.243.042-.366.119a5.751,5.751,0,0,1-.6.447.1.1,0,0,0,.116.121c.262-.171.309-.2.586-.356a.063.063,0,0,0-.009.089c.081-.056.095-.1.182-.086-.206.118-.093.261.02.292.484-.331,1.146-.616,1.535-.9a.393.393,0,0,0,.219.04c.5-.2,1.011-.529,1.556-.715a10.133,10.133,0,0,1-1.874.95c-.015.034.036.079-.037.1a6.5,6.5,0,0,0-.866.414c-.046.145-.086.29-.121.436-.729.34-1,1.008-1.625,1.428.043.057.006.108.015.163a1.786,1.786,0,0,0,.245.056c.106-.064.233-.1.295-.2.642-.18,1.326-.775,2.061-1.065.141.055.121.169.115.287-.285.251-.665.279-.925.615.027.312.254.394.519.25.222-.115.511-.295.782-.457s.517-.324.649-.414c.675-.271,1.32-.566,1.969-.833a12.083,12.083,0,0,1,1.97-.643,11.683,11.683,0,0,0-2.039.793c-.019-.048-.052-.059-.1-.03-.63.308-1.334.675-1.935.9-.15.279-.7.356-.843.649a.684.684,0,0,0,.718.109,4.573,4.573,0,0,0-.627.472c-.16.108-.489.221-.542.324-.013.025.055.046.017.073.066-.046-.129.063-.145.068-.107.03-.1,0-.2.077a.372.372,0,0,0-.178.207c-.448.341-.948.582-1.38.952-.045.039-.145.1-.151.112-.034.045.031.057-.022.1-.03.027-.048-.029-.092.011-.167.146-.36.31-.542.44-.458.315-.944.769-1.313,1.038-.069.076.086.057-.023.141l-1.841,1.654c-.043.047.062.093-.02.142-.078.088-.13-.018-.206.055a.357.357,0,0,0-.043.2c-.686.693-1.5,1.287-2.28,1.936-.724.6-1.415,1.256-2.08,1.862a15.269,15.269,0,0,0-1.487,1.378c-.662.546-1.181,1.075-1.751,1.64-.411.407-.813.906-1.189,1.22a2.2,2.2,0,0,0-.241.16c-.1.107-.146.27-.247.378-.273.29-.621.524-.891.817-.3.332-.58.657-.87.988-.164.185-.381.31-.551.488-.112.118-.179.287-.294.412-.321.348-.719.64-1,.989a8.116,8.116,0,0,1-1.193,1.382,15.85,15.85,0,0,1-1.375,1.633c-.2.518-.7.809-1.042,1.29-.037.051-.035.106-.068.16-.467.775-1.292,1.382-1.656,2.023-.267.133-.309.4-.446.613a1.647,1.647,0,0,1-.261.3l-.071.068-.036.034-.017.017-.027.029c-.074.08-.146.161-.215.247-.09.111-.136.245-.223.363a6.412,6.412,0,0,1-.451.528c-.163.175-.331.35-.5.549a11.614,11.614,0,0,0-.708,1.021,6.534,6.534,0,0,1-.8,1.037,11.967,11.967,0,0,1-1.515,2.154,14.967,14.967,0,0,1-1.224,1.744,1.4,1.4,0,0,1-.188-.174l-.189-.193-.378-.382c-.253-.251-.5-.492-.761-.71a4.3,4.3,0,0,1-1-.909,7.7,7.7,0,0,1-1.241-1.1c-.437-.4-.92-.764-1.393-1.181-.338-.3-.7-.665-1.052-.989a4.118,4.118,0,0,0-1.043-.756c-.493.268-.184-.526-.542-.723-.226-.068-.31.06-.509.137a.828.828,0,0,1-.384-.386C5572.257,7154.254,5571.978,7154.321,5571.773,7154.127Zm38.11-28.869a.035.035,0,0,1,0-.055C5609.769,7125.141,5609.74,7125.354,5609.883,7125.258Zm.076.007c.21-.122.56-.2.668-.367.04-.025.032.137.113.123a.741.741,0,0,1,.3-.293c-.089-.177-.338.1-.438-.035-.11.084-.163.126-.262.081-.208.2-.327.129-.472.3C5609.972,7125.138,5609.878,7125.166,5609.959,7125.265Z" fill="#000" fill-rule="evenodd"/>
  </g>
</svg>
