<?xml version="1.0" encoding="utf-8"?>
<!-- Generator: Adobe Illustrator 23.0.3, SVG Export Plug-In . SVG Version: 6.00 Build 0)  -->
<svg version="1.1" id="Layer_1" xmlns="http://www.w3.org/2000/svg" xmlns:xlink="http://www.w3.org/1999/xlink" x="0px" y="0px"
	 viewBox="0 0 99 38.9" style="enable-background:new 0 0 99 38.9;" xml:space="preserve">
<style type="text/css">
	.st0{fill-rule:evenodd;clip-rule:evenodd;fill:#FFFFFF;}
	.st1{fill-rule:evenodd;clip-rule:evenodd;}
</style>
<g id="Group_661" transform="translate(-5568.706 -7122.786)">
	<path id="Path_2466" class="st0" d="M5609.5,7132.9c0.1,0,0.1,0,0.1-0.1C5609.6,7132.8,5609.5,7132.8,5609.5,7132.9
		C5609.5,7132.8,5609.5,7132.9,5609.5,7132.9z"/>
	<path id="Path_2467" class="st0" d="M5607.9,7126.6c0.1,0,0.2-0.1,0.1-0.1C5607.9,7126.5,5607.9,7126.6,5607.9,7126.6z"/>
	<path id="Path_2468" class="st0" d="M5608,7126.3c0,0,0.1-0.1,0.2-0.1C5608.2,7126.2,5608,7126.3,5608,7126.3z"/>
	<path id="Path_2469" class="st0" d="M5609.2,7126.7c0.1,0,0.2,0,0.2-0.1C5609.3,7126.5,5609.2,7126.6,5609.2,7126.7z"/>
	<path id="Path_2470" class="st0" d="M5608.9,7125.7c0.1,0,0.2-0.1,0.3-0.1C5609.2,7125.5,5609.1,7125.6,5608.9,7125.7z"/>
	<path id="Path_2471" class="st0" d="M5612.2,7129.2c0.1-0.1,0.4-0.2,0.5-0.3C5612.6,7129,5612.4,7129,5612.2,7129.2z"/>
	<path id="Path_2472" class="st0" d="M5611.5,7127.2c0.2,0,0.5-0.3,0.7-0.4c0-0.1-0.3,0.2-0.4,0.1c0,0-0.1,0.1-0.1,0.1
		C5611.7,7127.1,5611.6,7127.1,5611.5,7127.2z"/>
	<path id="Path_2473" class="st0" d="M5613.6,7125.7c0,0.1,0.1,0.1,0.1,0C5613.7,7125.7,5613.7,7125.7,5613.6,7125.7L5613.6,7125.7z
		"/>
	<path id="Path_2474" class="st0" d="M5614.8,7126c0.2,0,0.5-0.1,0.7-0.3c0,0,0,0,0.1,0c0.1,0,0.3-0.2,0.1-0.1
		C5615.4,7125.7,5615.1,7125.8,5614.8,7126z"/>
	<path id="Path_2475" class="st0" d="M5614.5,7124.9c0.1,0,0.1,0,0.2,0C5614.6,7124.8,5614.5,7124.9,5614.5,7124.9z"/>
	<path id="Path_2476" class="st0" d="M5615.8,7127.4c0,0,0.1-0.1,0.2-0.1C5616,7127.3,5615.8,7127.3,5615.8,7127.4z"/>
	<path id="Path_2477" class="st0" d="M5614.8,7125.2c0.1,0,0.2,0,0.3,0C5615.1,7125,5614.9,7125.1,5614.8,7125.2z"/>
	<path id="Path_2478" class="st0" d="M5614.8,7124.8c0.1,0,0.2,0,0.3-0.1C5615,7124.7,5614.9,7124.8,5614.8,7124.8z"/>
	<path id="Path_2479" class="st0" d="M5616.2,7127.8c0,0.1,0.1,0,0.2,0C5616.4,7127.8,5616.3,7127.8,5616.2,7127.8z"/>
	<path id="Path_2480" class="st0" d="M5616.1,7127.3c0.2,0,0.3-0.1,0.4-0.1C5616.4,7127.1,5616.2,7127.2,5616.1,7127.3z"/>
	<path id="Path_2481" class="st0" d="M5615.2,7124.7c0.2,0,0.3-0.1,0.4-0.2C5615.4,7124.6,5615.3,7124.7,5615.2,7124.7z"/>
	<path id="Path_2482" class="st0" d="M5615.8,7125.6c0.1,0,0.1,0,0.2,0C5616,7125.4,5615.9,7125.5,5615.8,7125.6z"/>
	<path id="Path_2483" class="st0" d="M5616,7125.3c0.1,0,0.1,0,0.2-0.1C5616.1,7125.2,5616,7125.3,5616,7125.3z"/>
	<path id="Path_2484" class="st0" d="M5616.1,7124.9c0,0,0.2,0,0.2-0.1c-0.1,0,0,0,0,0.1C5616.2,7124.9,5616.2,7124.9,5616.1,7124.9
		z"/>
	<path id="Path_2485" class="st0" d="M5617.1,7126.3"/>
	<path id="Path_2486" class="st0" d="M5617.6,7127c0.1,0,0.2,0,0.3-0.1C5617.8,7127,5617.7,7127,5617.6,7127z"/>
	<path id="Path_2487" class="st0" d="M5617.7,7127.1c0,0.1,0.2,0,0.1,0L5617.7,7127.1z"/>
	<path id="Path_2488" class="st0" d="M5618.2,7128.2c0,0,0.1,0,0.1,0C5618.3,7128.1,5618.2,7128.1,5618.2,7128.2z"/>
	<path id="Path_2489" class="st0" d="M5618.7,7127.9"/>
	<path id="Path_2490" class="st0" d="M5614.2,7129.8c0,0,0.1,0,0.1,0c0-0.1,0.2-0.1,0.2-0.2
		C5614.5,7129.6,5614.4,7129.8,5614.2,7129.8z"/>
	<path id="Path_2491" class="st0" d="M5615.8,7127c0.1,0,0-0.1,0.1-0.1c0,0,0,0,0-0.1c0.1,0,0.2-0.1,0.3-0.1c0,0,0,0,0-0.1
		c0.2,0.1,0.2-0.2,0.5-0.2c-0.2,0-0.4,0.1-0.6,0.1c-0.2,0.1-0.4,0.2-0.5,0.2c0.1,0.1,0.2-0.1,0.3,0
		C5615.9,7126.9,5615.7,7126.9,5615.8,7127z"/>
	<path id="Path_2492" class="st0" d="M5615.3,7125C5615.3,7125,5615.3,7125,5615.3,7125c0,0.1,0.1,0,0.1,0
		C5615.3,7124.9,5615,7125.1,5615.3,7125z"/>
	<path id="Path_2493" class="st0" d="M5617.2,7124.6L5617.2,7124.6c0.1-0.1,0.2-0.1,0.3-0.2c0.1,0,0.2-0.1,0.2-0.1
		c-0.2,0-0.6,0.2-0.8,0.2c0,0-0.1,0-0.1,0.1c-0.2,0-0.5,0.1-0.7,0.2c-0.2,0.1-0.5,0.2-0.7,0.2c0.3,0.1,0.6-0.3,1-0.2c0,0,0,0,0,0
		c0.1,0,0.2-0.1,0.4-0.1C5616.9,7124.6,5617,7124.6,5617.2,7124.6z"/>
	<path id="Path_2494" class="st0" d="M5617.8,7127.3c0,0,0.1,0,0.1,0C5618,7127.3,5617.8,7127.2,5617.8,7127.3z"/>
	<path id="Path_2495" class="st0" d="M5575.5,7153.2c-0.1-0.1-0.1-0.2-0.2-0.3c-0.2-0.2-0.4-0.4-0.6-0.6c-0.2-0.2-0.3-0.5-0.4-0.7
		c-0.1-0.1-0.2-0.2-0.2-0.3c-0.2-0.3-0.5-0.5-0.5-0.8c-0.1-0.3-0.3-0.6-0.4-0.9c0,0-0.1-0.1-0.1-0.1c-0.1-0.7-0.2-1.4-0.4-2
		c0.1-0.2,0.1-0.3,0.2-0.5c0-0.1,0-0.2,0-0.3c0.1-0.3,0.4-0.5,0.4-0.8c0-0.1,0.1,0,0.1-0.1c0.4-0.3,0.7-0.6,1-1
		c0.3,0,0.5-0.3,0.7-0.3c0.2,0,0.4,0,0.6,0c0.2,0,0.4,0,0.6-0.1c0.1-0.1,0.3,0,0.4-0.1c0.2,0.1,0.4,0.1,0.6,0.2c0.1,0,0.1,0,0.2-0.1
		c0.6,0.1,1.1,0.2,1.6,0.5c0.1,0,0.1,0.1,0.2,0.1c0.3,0.4,0.7,0.6,1.2,0.8c0.1,0,0,0.1,0.1,0.1c0.2,0,0.4,0,0.6,0.1
		c0,0,0,0.2,0.1,0.4c0.1,0.2,0.4,0.2,0.6,0.4c0.1,0.1,0,0.2,0.1,0.3c0.2,0.3,0.5,0.5,0.7,0.7c0.1,0.1,0.3,0.1,0.3,0.2
		c0.1,0.1,0,0.3-0.1,0.4c0,0.1,0,0.1,0,0.2c0,0,0,0.1,0,0.1l0,0v0c0,0,0,0,0,0.1c0,0,0.1,0,0.1,0.1c0,0,0.1,0,0.1,0
		c0,0.1,0,0.1,0,0.1l0,0c0,0,0,0.1,0,0.2c0,0.1,0.1,0.1,0.1,0.2c0-0.1,0-0.1,0.1,0c0,0.1,0,0.1,0.1,0.2h0l0,0c0,0,0-0.1,0-0.1
		c0,0,0,0.1,0,0c0,0,0-0.1,0-0.1l0,0c0,0,0-0.1,0-0.1l0.1,0.1c0.1,0,0.1-0.2,0.2-0.1c0-0.2,0.2-0.1,0.2-0.4c0,0,0.1,0,0.1,0l0,0
		c0,0,0,0,0,0c0,0,0-0.1,0.1-0.1c0,0,0.1,0,0.1,0c0.2-0.3,0.6-0.5,0.8-0.9c0,0,0.1,0,0.1,0c0.3-0.5,0.6-0.9,1.1-1.3
		c0.1-0.3,0.5-0.5,0.7-0.9c0.1-0.2,0.2-0.3,0.3-0.5c0.3-0.2,0.5-0.6,0.8-0.9c0.1-0.1,0.2-0.1,0.3-0.2c0.1-0.1,0.2-0.3,0.4-0.4
		c0.5-0.5,1-1.1,1.5-1.7c0.1-0.1,0.3-0.3,0.5-0.4c0.3-0.2,0.4-0.6,0.7-0.9c0.1-0.1,0.2-0.1,0.2-0.2c0.2-0.1,0.3-0.3,0.4-0.5
		c0.4-0.4,0.8-0.8,1.2-1.2c0.6-0.5,1.2-1.1,1.8-1.7c0.2,0,0.3-0.2,0.4-0.4c0.5-0.4,1-0.8,1.4-1.3c1.9-1.6,3.8-3.5,5.9-5
		c0.1-0.2,0.3-0.3,0.5-0.4c0-0.1,0.1-0.1,0.1-0.2c0.3-0.1,0.6-0.4,0.9-0.7c0.2,0,0.3-0.2,0.5-0.2c0-0.1-0.1,0,0-0.1
		c0.4,0,1-0.6,1.3-0.8c0,0,0,0.1,0,0c0-0.1,0.2,0,0.2-0.1c0.3-0.2,0.6-0.3,0.9-0.4c0.3-0.1,0.6-0.2,0.8-0.3c0-0.1,0.2-0.3,0.3-0.2
		c-0.1,0.1-0.2,0.1-0.1,0.2c0.1-0.1,0.3-0.2,0.5-0.2c0.2-0.1,0.3-0.2,0.5-0.3c0,0,0,0.1,0.1,0.1c0.2-0.2,0.4-0.2,0.6-0.4
		c0.2,0,0.4-0.1,0.5-0.2c0.1,0,0,0.1,0,0.1c0.2-0.1,0.4-0.2,0.6-0.4c0.1,0,0.2,0,0.2,0c0.1,0-0.1-0.1,0-0.1c0.1,0,0,0.1,0,0.2
		c0.1,0,0.1,0,0.2,0c0.1-0.1,0.3-0.1,0.5-0.1s0.3-0.2,0.5-0.2c0.1,0,0.2,0,0.4-0.1c0.1-0.1,0.2-0.2,0.3-0.2c0.1,0,0,0.1,0.1,0.1
		c0.2-0.1,0.5-0.2,0.7-0.3c0.2-0.1,0.4-0.1,0.6-0.1c-0.3,0-0.5,0.1-0.7,0.2c-0.2,0.1-0.4,0.2-0.7,0.3c0,0.1-0.2,0-0.2,0.2
		c-0.1,0,0-0.1-0.1-0.1c0,0,0,0.1-0.1,0.1c0.1,0.1,0,0.1,0,0.2c-0.4,0.2-0.7,0.3-1,0.5c-0.1,0,0-0.1-0.1-0.1
		c-0.1,0.1-0.2,0.1-0.4,0.2c0,0.1-0.1,0.2,0,0.3c0.2-0.1,0.5-0.3,0.8-0.3l0.4-0.2c0.1-0.1,0.3-0.1,0.4-0.2c0.2-0.1,0.3-0.2,0.4-0.2
		c-0.2,0.1-0.4,0.3-0.5,0.4c-0.2,0.1-0.6,0.2-0.8,0.3c-0.1,0-0.1,0.1-0.1,0.1c-0.1,0-0.2,0-0.2,0.1s0,0.1-0.1,0.1
		c-0.1,0.1-0.2,0-0.3,0.1c-0.2,0.1-0.4,0.3-0.6,0.4c0,0,0,0.1,0.1,0.1c0,0,0,0,0,0c0.2-0.2,0.3-0.2,0.5-0.3c0,0,0,0.1,0,0.1l0,0
		c0.1-0.1,0.1-0.1,0.2-0.1c-0.2,0.1-0.1,0.2,0,0.3c0.4-0.3,1.1-0.6,1.4-0.8c0.1,0,0.1,0,0.2,0c0.5-0.2,0.9-0.5,1.4-0.7
		c-0.5,0.4-1.1,0.6-1.7,0.9c0,0,0,0.1,0,0.1c-0.3,0.1-0.5,0.2-0.8,0.4c0,0.1-0.1,0.3-0.1,0.4c-0.7,0.3-0.9,0.9-1.5,1.3
		c0,0.1,0,0.1,0,0.2c0.1,0,0.1,0,0.2,0.1c0.1-0.1,0.2-0.1,0.3-0.2c0.6-0.2,1.2-0.7,1.9-1c0.1,0.1,0.1,0.2,0.1,0.3
		c-0.3,0.2-0.6,0.3-0.9,0.6c0,0.3,0.2,0.4,0.5,0.2c0.2-0.1,0.5-0.3,0.7-0.4s0.5-0.3,0.6-0.4c0.6-0.3,1.2-0.5,1.8-0.8
		c0.6-0.2,1.2-0.4,1.8-0.6c-0.6,0.2-1.3,0.4-1.9,0.7c0,0,0-0.1-0.1,0c-0.6,0.3-1.2,0.6-1.8,0.8c-0.1,0.3-0.6,0.3-0.8,0.6
		c0.2,0.2,0.4,0.2,0.7,0.1c-0.2,0.1-0.4,0.3-0.6,0.4c-0.1,0.1-0.5,0.2-0.5,0.3c0,0,0.1,0,0,0.1c0.1,0-0.1,0.1-0.1,0.1
		c-0.1,0-0.1,0-0.2,0.1c-0.1,0-0.1,0.1-0.2,0.2c-0.4,0.3-0.9,0.5-1.3,0.9c0,0-0.1,0.1-0.1,0.1c0,0,0,0.1,0,0.1c0,0,0,0-0.1,0
		c-0.2,0.1-0.3,0.3-0.5,0.4c-0.4,0.3-0.9,0.7-1.2,1c-0.1,0.1,0.1,0.1,0,0.1l-1.7,1.5c0,0,0.1,0.1,0,0.1c-0.1,0.1-0.1,0-0.2,0.1
		c0,0.1,0,0.1,0,0.2c-0.6,0.6-1.4,1.2-2.1,1.8c-0.7,0.6-1.3,1.2-1.9,1.7c-0.5,0.4-0.9,0.8-1.4,1.3c-0.6,0.5-1.1,1-1.6,1.5
		c-0.4,0.4-0.7,0.8-1.1,1.1c-0.1,0-0.2,0.1-0.2,0.1c-0.1,0.1-0.1,0.2-0.2,0.3c-0.3,0.3-0.6,0.5-0.8,0.8c-0.3,0.3-0.5,0.6-0.8,0.9
		c-0.2,0.2-0.4,0.3-0.5,0.4c-0.1,0.1-0.2,0.3-0.3,0.4c-0.3,0.3-0.7,0.6-0.9,0.9c-0.3,0.5-0.7,0.9-1.1,1.3c-0.4,0.5-0.8,1-1.3,1.5
		c-0.2,0.5-0.6,0.7-1,1.2c0,0,0,0.1-0.1,0.1c-0.4,0.7-1.2,1.3-1.5,1.9c-0.2,0.1-0.3,0.4-0.4,0.6c-0.1,0.1-0.1,0.2-0.2,0.3l-0.1,0.1
		l0,0l0,0l0,0c-0.1,0.1-0.1,0.1-0.2,0.2c-0.1,0.1-0.1,0.2-0.2,0.3c-0.1,0.2-0.3,0.3-0.4,0.5c-0.2,0.2-0.3,0.3-0.5,0.5
		c-0.2,0.3-0.5,0.6-0.7,0.9c-0.2,0.3-0.5,0.7-0.7,1c-0.4,0.7-0.9,1.4-1.4,2c-0.3,0.6-0.7,1.1-1.1,1.6c-0.1,0-0.1-0.1-0.2-0.2
		l-0.2-0.2l-0.3-0.4c-0.2-0.2-0.5-0.5-0.7-0.7c-0.3-0.2-0.7-0.5-0.9-0.8c-0.4-0.3-0.8-0.6-1.1-1c-0.4-0.4-0.8-0.7-1.3-1.1
		c-0.3-0.3-0.6-0.6-1-0.9c-0.3-0.3-0.6-0.5-1-0.7c-0.5,0.2-0.2-0.5-0.5-0.7c-0.2-0.1-0.3,0.1-0.5,0.1c-0.2-0.1-0.3-0.2-0.4-0.4
		C5575.9,7153.3,5575.6,7153.4,5575.5,7153.2z M5610.6,7126.6C5610.6,7126.6,5610.6,7126.6,5610.6,7126.6
		C5610.6,7126.5,5610.6,7126.5,5610.6,7126.6C5610.5,7126.5,5610.4,7126.7,5610.6,7126.6z M5610.6,7126.6c0.2-0.1,0.5-0.2,0.6-0.3
		c0,0,0,0.1,0.1,0.1c0.1-0.1,0.2-0.2,0.3-0.3c-0.1-0.2-0.3,0.1-0.4,0c-0.1,0.1-0.2,0.1-0.2,0.1c-0.2,0.2-0.3,0.1-0.4,0.3
		C5610.7,7126.5,5610.6,7126.5,5610.6,7126.6L5610.6,7126.6z"/>
</g>
<g id="Group_661_1_" transform="translate(-5568.706 -7122.786)">
	<path id="Path_2466_1_" class="st1" d="M5655.6,7132.9c0.1,0,0.1,0,0.1-0.1C5655.7,7132.8,5655.6,7132.8,5655.6,7132.9
		C5655.6,7132.8,5655.6,7132.9,5655.6,7132.9z"/>
	<path id="Path_2467_1_" class="st1" d="M5654,7126.6c0.1,0,0.2-0.1,0.1-0.1C5654,7126.5,5654,7126.6,5654,7126.6z"/>
	<path id="Path_2468_1_" class="st1" d="M5654.1,7126.3c0,0,0.1-0.1,0.2-0.1C5654.2,7126.2,5654.1,7126.3,5654.1,7126.3z"/>
	<path id="Path_2469_1_" class="st1" d="M5655.3,7126.7c0.1,0,0.2,0,0.2-0.1C5655.4,7126.5,5655.3,7126.6,5655.3,7126.7z"/>
	<path id="Path_2470_1_" class="st1" d="M5655,7125.7c0.1,0,0.2-0.1,0.3-0.1C5655.3,7125.5,5655.1,7125.6,5655,7125.7z"/>
	<path id="Path_2471_1_" class="st1" d="M5658.3,7129.2c0.1-0.1,0.4-0.2,0.5-0.3C5658.7,7129,5658.4,7129,5658.3,7129.2z"/>
	<path id="Path_2472_1_" class="st1" d="M5657.6,7127.2c0.2,0,0.5-0.3,0.7-0.4c0-0.1-0.3,0.2-0.4,0.1c0,0-0.1,0.1-0.1,0.1
		C5657.7,7127.1,5657.6,7127.1,5657.6,7127.2z"/>
	<path id="Path_2473_1_" class="st1" d="M5659.6,7125.7c0,0.1,0.1,0.1,0.1,0C5659.7,7125.7,5659.7,7125.7,5659.6,7125.7
		L5659.6,7125.7z"/>
	<path id="Path_2474_1_" class="st1" d="M5660.9,7126c0.2,0,0.5-0.1,0.7-0.3c0,0,0,0,0.1,0c0.1,0,0.3-0.2,0.1-0.1
		C5661.4,7125.7,5661.1,7125.8,5660.9,7126z"/>
	<path id="Path_2475_1_" class="st1" d="M5660.5,7124.9c0.1,0,0.1,0,0.2,0C5660.7,7124.8,5660.6,7124.9,5660.5,7124.9z"/>
	<path id="Path_2476_1_" class="st1" d="M5661.9,7127.4c0,0,0.1-0.1,0.2-0.1C5662,7127.3,5661.9,7127.3,5661.9,7127.4z"/>
	<path id="Path_2477_1_" class="st1" d="M5660.9,7125.2c0.1,0,0.2,0,0.3,0C5661.2,7125,5661,7125.1,5660.9,7125.2z"/>
	<path id="Path_2478_1_" class="st1" d="M5660.9,7124.8c0.1,0,0.2,0,0.3-0.1C5661.1,7124.7,5661,7124.8,5660.9,7124.8z"/>
	<path id="Path_2479_1_" class="st1" d="M5662.3,7127.8c0,0.1,0.1,0,0.2,0C5662.4,7127.8,5662.3,7127.8,5662.3,7127.8z"/>
	<path id="Path_2480_1_" class="st1" d="M5662.2,7127.3c0.2,0,0.3-0.1,0.4-0.1C5662.5,7127.1,5662.3,7127.2,5662.2,7127.3z"/>
	<path id="Path_2481_1_" class="st1" d="M5661.2,7124.7c0.2,0,0.3-0.1,0.4-0.2C5661.5,7124.6,5661.4,7124.7,5661.2,7124.7z"/>
	<path id="Path_2482_1_" class="st1" d="M5661.9,7125.6c0.1,0,0.1,0,0.2,0C5662.1,7125.4,5662,7125.5,5661.9,7125.6z"/>
	<path id="Path_2483_1_" class="st1" d="M5662.1,7125.3c0.1,0,0.1,0,0.2-0.1C5662.2,7125.2,5662.1,7125.3,5662.1,7125.3z"/>
	<path id="Path_2484_1_" class="st1" d="M5662.2,7124.9c0,0,0.2,0,0.2-0.1c-0.1,0,0,0,0,0.1
		C5662.2,7124.9,5662.2,7124.9,5662.2,7124.9z"/>
	<path id="Path_2485_1_" class="st1" d="M5663.2,7126.3"/>
	<path id="Path_2486_1_" class="st1" d="M5663.7,7127c0.1,0,0.2,0,0.3-0.1C5663.9,7127,5663.8,7127,5663.7,7127z"/>
	<path id="Path_2487_1_" class="st1" d="M5663.8,7127.1c0,0.1,0.2,0,0.1,0L5663.8,7127.1z"/>
	<path id="Path_2488_1_" class="st1" d="M5664.3,7128.2c0,0,0.1,0,0.1,0C5664.4,7128.1,5664.3,7128.1,5664.3,7128.2z"/>
	<path id="Path_2489_1_" class="st1" d="M5664.8,7127.9"/>
	<path id="Path_2490_1_" class="st1" d="M5660.3,7129.8c0,0,0.1,0,0.1,0c0-0.1,0.2-0.1,0.2-0.2
		C5660.6,7129.6,5660.5,7129.8,5660.3,7129.8z"/>
	<path id="Path_2491_1_" class="st1" d="M5661.9,7127c0.1,0,0-0.1,0.1-0.1c0,0,0,0,0-0.1c0.1,0,0.2-0.1,0.3-0.1c0,0,0,0,0-0.1
		c0.2,0.1,0.3-0.2,0.5-0.2c-0.2,0-0.4,0.1-0.6,0.1c-0.2,0.1-0.4,0.2-0.5,0.2c0.1,0.1,0.2-0.1,0.3,0
		C5661.9,7126.9,5661.8,7126.9,5661.9,7127z"/>
	<path id="Path_2492_1_" class="st1" d="M5661.3,7125C5661.4,7125,5661.4,7125,5661.3,7125c0,0.1,0.1,0,0.1,0
		C5661.4,7124.9,5661.1,7125.1,5661.3,7125z"/>
	<path id="Path_2493_1_" class="st1" d="M5663.3,7124.6L5663.3,7124.6c0.1-0.1,0.2-0.1,0.3-0.2c0.1,0,0.2-0.1,0.2-0.1
		c-0.2,0-0.6,0.2-0.8,0.2c0,0-0.1,0-0.1,0.1c-0.2,0-0.5,0.1-0.7,0.2c-0.2,0.1-0.5,0.2-0.7,0.2c0.3,0.1,0.6-0.3,1-0.2c0,0,0,0,0,0
		c0.1,0,0.2-0.1,0.4-0.1C5663,7124.6,5663.1,7124.6,5663.3,7124.6z"/>
	<path id="Path_2494_1_" class="st1" d="M5663.9,7127.3c0,0,0.1,0,0.1,0C5664,7127.3,5663.9,7127.2,5663.9,7127.3z"/>
	<path id="Path_2495_1_" class="st1" d="M5621.5,7153.2c-0.1-0.1-0.1-0.2-0.2-0.3c-0.2-0.2-0.4-0.4-0.6-0.6
		c-0.2-0.2-0.3-0.5-0.4-0.7c-0.1-0.1-0.2-0.2-0.2-0.3c-0.2-0.3-0.5-0.5-0.5-0.8c-0.1-0.3-0.3-0.6-0.4-0.9c0,0-0.1-0.1-0.1-0.1
		c-0.1-0.7-0.2-1.4-0.4-2c0.1-0.2,0.1-0.3,0.2-0.5c0-0.1,0-0.2,0-0.3c0.1-0.3,0.4-0.5,0.4-0.8c0-0.1,0.1,0,0.1-0.1
		c0.4-0.3,0.7-0.6,1-1c0.3,0,0.5-0.3,0.7-0.3c0.2,0,0.4,0,0.6,0c0.2,0,0.4,0,0.6-0.1c0.1-0.1,0.3,0,0.4-0.1c0.2,0.1,0.4,0.1,0.6,0.2
		c0.1,0,0.1,0,0.2-0.1c0.6,0.1,1.1,0.2,1.6,0.5c0.1,0,0.1,0.1,0.2,0.1c0.3,0.4,0.7,0.6,1.2,0.8c0.1,0,0,0.1,0.1,0.1
		c0.2,0,0.4,0,0.6,0.1c0,0,0,0.2,0.1,0.4c0.1,0.2,0.4,0.2,0.6,0.4c0.1,0.1,0,0.2,0.1,0.3c0.2,0.3,0.5,0.5,0.7,0.7
		c0.1,0.1,0.3,0.1,0.3,0.2c0.1,0.1,0,0.3-0.1,0.4c0,0.1,0,0.1,0,0.2c0,0,0,0.1,0,0.1l0,0v0c0,0,0,0,0,0.1c0,0,0.1,0,0.1,0.1
		c0,0,0.1,0,0.1,0c0,0.1,0,0.1,0,0.1l0,0c0,0,0,0.1,0,0.2c0,0.1,0.1,0.1,0.1,0.2c0-0.1,0-0.1,0.1,0c0,0.1,0,0.1,0.1,0.2h0l0,0
		c0,0,0-0.1,0-0.1c0,0,0,0.1,0,0c0,0,0-0.1,0-0.1l0,0c0,0,0-0.1,0-0.1l0.1,0.1c0.1,0,0.1-0.2,0.2-0.1c0-0.2,0.2-0.1,0.2-0.4
		c0,0,0.1,0,0.1,0l0,0c0,0,0,0,0,0c0,0,0-0.1,0.1-0.1c0,0,0.1,0,0.1,0c0.2-0.3,0.6-0.5,0.8-0.9c0,0,0.1,0,0.1,0
		c0.3-0.5,0.6-0.9,1.1-1.3c0.1-0.3,0.5-0.5,0.7-0.9c0.1-0.2,0.2-0.3,0.3-0.5c0.3-0.2,0.5-0.6,0.8-0.9c0.1-0.1,0.2-0.1,0.3-0.2
		c0.1-0.1,0.2-0.3,0.4-0.4c0.5-0.5,1-1.1,1.5-1.7c0.1-0.1,0.3-0.3,0.5-0.4c0.3-0.2,0.4-0.6,0.7-0.9c0.1-0.1,0.2-0.1,0.2-0.2
		c0.2-0.1,0.3-0.3,0.4-0.5c0.4-0.4,0.8-0.8,1.2-1.2c0.6-0.5,1.2-1.1,1.8-1.7c0.2,0,0.3-0.2,0.4-0.4c0.5-0.4,1-0.8,1.4-1.3
		c1.9-1.6,3.8-3.5,5.9-5c0.1-0.2,0.3-0.3,0.5-0.4c0-0.1,0.1-0.1,0.1-0.2c0.3-0.1,0.6-0.4,0.9-0.7c0.2,0,0.3-0.2,0.5-0.2
		c0-0.1-0.1,0-0.1-0.1c0.4,0,1-0.6,1.3-0.8c0,0,0,0.1,0,0c0-0.1,0.1,0,0.2-0.1c0.3-0.2,0.6-0.3,0.9-0.4c0.3-0.1,0.6-0.2,0.8-0.3
		c0-0.1,0.2-0.3,0.3-0.2c-0.1,0.1-0.2,0.1-0.1,0.2c0.1-0.1,0.3-0.2,0.5-0.2c0.2-0.1,0.3-0.2,0.5-0.3c0,0,0,0.1,0.1,0.1
		c0.2-0.2,0.4-0.2,0.6-0.4c0.2,0,0.4-0.1,0.5-0.2c0.1,0,0,0.1,0,0.1c0.2-0.1,0.4-0.2,0.6-0.4c0.1,0,0.2,0,0.2,0c0.1,0-0.1-0.1,0-0.1
		c0.1,0,0,0.1,0,0.2c0.1,0,0.1,0,0.2,0c0.1-0.1,0.3-0.1,0.5-0.1c0.2-0.1,0.3-0.2,0.5-0.2c0.1,0,0.2,0,0.4-0.1
		c0.1-0.1,0.2-0.2,0.3-0.2c0.1,0,0,0.1,0.1,0.1c0.2-0.1,0.5-0.2,0.7-0.3c0.2-0.1,0.4-0.1,0.6-0.1c-0.3,0-0.5,0.1-0.7,0.2
		c-0.2,0.1-0.4,0.2-0.7,0.3c0,0.1-0.2,0-0.2,0.2c-0.1,0,0-0.1-0.1-0.1c0,0,0,0.1-0.1,0.1c0.1,0.1,0,0.1,0,0.2
		c-0.4,0.2-0.7,0.3-1,0.5c-0.1,0,0-0.1-0.1-0.1c-0.1,0.1-0.2,0.1-0.4,0.2c0,0.1-0.1,0.2,0,0.3c0.2-0.1,0.5-0.3,0.8-0.3l0.4-0.2
		c0.1-0.1,0.3-0.1,0.4-0.2c0.2-0.1,0.3-0.2,0.4-0.2c-0.2,0.1-0.4,0.3-0.5,0.4c-0.2,0.1-0.6,0.2-0.8,0.3c-0.1,0-0.1,0.1-0.1,0.1
		c-0.1,0-0.2,0-0.2,0.1c-0.1,0,0,0.1-0.1,0.1c-0.1,0.1-0.2,0-0.3,0.1c-0.2,0.1-0.4,0.3-0.6,0.4c0,0,0,0.1,0.1,0.1c0,0,0,0,0,0
		c0.2-0.2,0.3-0.2,0.5-0.3c0,0,0,0.1,0,0.1l0,0c0.1-0.1,0.1-0.1,0.2-0.1c-0.2,0.1-0.1,0.2,0,0.3c0.4-0.3,1.1-0.6,1.4-0.8
		c0.1,0,0.1,0,0.2,0c0.5-0.2,0.9-0.5,1.4-0.7c-0.5,0.4-1.1,0.6-1.7,0.9c0,0,0,0.1,0,0.1c-0.3,0.1-0.5,0.2-0.8,0.4
		c0,0.1-0.1,0.3-0.1,0.4c-0.7,0.3-0.9,0.9-1.5,1.3c0,0.1,0,0.1,0,0.2c0.1,0,0.1,0,0.2,0.1c0.1-0.1,0.2-0.1,0.3-0.2
		c0.6-0.2,1.2-0.7,1.9-1c0.1,0.1,0.1,0.2,0.1,0.3c-0.3,0.2-0.6,0.3-0.9,0.6c0,0.3,0.2,0.4,0.5,0.2c0.2-0.1,0.5-0.3,0.7-0.4
		c0.2-0.1,0.5-0.3,0.6-0.4c0.6-0.3,1.2-0.5,1.8-0.8c0.6-0.2,1.2-0.4,1.8-0.6c-0.6,0.2-1.3,0.4-1.9,0.7c0,0,0-0.1-0.1,0
		c-0.6,0.3-1.2,0.6-1.8,0.8c-0.1,0.3-0.6,0.3-0.8,0.6c0.2,0.2,0.4,0.2,0.7,0.1c-0.2,0.1-0.4,0.3-0.6,0.4c-0.1,0.1-0.5,0.2-0.5,0.3
		c0,0,0.1,0,0,0.1c0.1,0-0.1,0.1-0.1,0.1c-0.1,0-0.1,0-0.2,0.1c-0.1,0-0.1,0.1-0.2,0.2c-0.4,0.3-0.9,0.5-1.3,0.9
		c0,0-0.1,0.1-0.1,0.1c0,0,0,0.1,0,0.1c0,0,0,0-0.1,0c-0.2,0.1-0.3,0.3-0.5,0.4c-0.4,0.3-0.9,0.7-1.2,1c-0.1,0.1,0.1,0.1,0,0.1
		l-1.7,1.5c0,0,0.1,0.1,0,0.1c-0.1,0.1-0.1,0-0.2,0.1c0,0.1,0,0.1,0,0.2c-0.6,0.6-1.4,1.2-2.1,1.8c-0.7,0.6-1.3,1.2-1.9,1.7
		c-0.5,0.4-0.9,0.8-1.4,1.3c-0.6,0.5-1.1,1-1.6,1.5c-0.4,0.4-0.7,0.8-1.1,1.1c-0.1,0-0.2,0.1-0.2,0.1c-0.1,0.1-0.1,0.2-0.2,0.3
		c-0.3,0.3-0.6,0.5-0.8,0.8c-0.3,0.3-0.5,0.6-0.8,0.9c-0.2,0.2-0.4,0.3-0.5,0.4c-0.1,0.1-0.2,0.3-0.3,0.4c-0.3,0.3-0.7,0.6-0.9,0.9
		c-0.3,0.5-0.7,0.9-1.1,1.3c-0.4,0.5-0.8,1-1.3,1.5c-0.2,0.5-0.6,0.7-1,1.2c0,0,0,0.1-0.1,0.1c-0.4,0.7-1.2,1.3-1.5,1.9
		c-0.2,0.1-0.3,0.4-0.4,0.6c-0.1,0.1-0.1,0.2-0.2,0.3l-0.1,0.1l0,0l0,0l0,0c-0.1,0.1-0.1,0.1-0.2,0.2c-0.1,0.1-0.1,0.2-0.2,0.3
		c-0.1,0.2-0.3,0.3-0.4,0.5c-0.2,0.2-0.3,0.3-0.5,0.5c-0.2,0.3-0.5,0.6-0.7,0.9c-0.2,0.3-0.5,0.7-0.7,1c-0.4,0.7-0.9,1.4-1.4,2
		c-0.3,0.6-0.7,1.1-1.1,1.6c-0.1,0-0.1-0.1-0.2-0.2l-0.2-0.2l-0.3-0.4c-0.2-0.2-0.5-0.5-0.7-0.7c-0.3-0.2-0.7-0.5-0.9-0.8
		c-0.4-0.3-0.8-0.6-1.1-1c-0.4-0.4-0.8-0.7-1.3-1.1c-0.3-0.3-0.6-0.6-1-0.9c-0.3-0.3-0.6-0.5-1-0.7c-0.5,0.2-0.2-0.5-0.5-0.7
		c-0.2-0.1-0.3,0.1-0.5,0.1c-0.2-0.1-0.3-0.2-0.4-0.4C5622,7153.3,5621.7,7153.4,5621.5,7153.2z M5656.7,7126.6
		C5656.6,7126.6,5656.6,7126.6,5656.7,7126.6C5656.6,7126.5,5656.6,7126.5,5656.7,7126.6C5656.5,7126.5,5656.5,7126.7,5656.7,7126.6
		z M5656.7,7126.6c0.2-0.1,0.5-0.2,0.6-0.3c0,0,0,0.1,0.1,0.1c0.1-0.1,0.2-0.2,0.3-0.3c-0.1-0.2-0.3,0.1-0.4,0
		c-0.1,0.1-0.2,0.1-0.2,0.1c-0.2,0.2-0.3,0.1-0.4,0.3C5656.7,7126.5,5656.6,7126.5,5656.7,7126.6L5656.7,7126.6z"/>
</g>
</svg>
